<svg xmlns="http://www.w3.org/2000/svg" id="Capa_1" height="512" viewBox="0 0 512 512" width="512"><g><g><path d="m463.56 55.598c-4.124-5.799-10.238-9.636-17.193-10.8l-261.865-44.417c-6.979-1.189-14.022.427-19.825 4.554s-9.642 10.248-10.805 17.208l-7.451 43.889h-76.353c-14.65 0-26.569 11.925-26.569 26.583v392.831c0 14.642 11.919 26.554 26.569 26.554h265.612c14.649 0 26.568-11.913 26.568-26.554v-2.586l9.675 1.644c1.496.255 2.995.381 4.484.381 5.457 0 10.778-1.694 15.335-4.938 5.783-4.118 9.622-10.226 10.81-17.21l29.654-175.184c.922-5.445-2.745-10.607-8.19-11.529-5.446-.919-10.606 2.746-11.528 8.191l-29.652 175.175c-.293 1.722-1.249 3.236-2.692 4.264-1.435 1.021-3.159 1.424-4.864 1.133l-13.03-2.214v-369.958c0-14.658-11.919-26.583-26.568-26.583h-168.974l6.887-40.568c.285-1.705 1.234-3.207 2.674-4.231 1.438-1.023 3.171-1.426 4.881-1.135l261.895 44.422c1.697.284 3.195 1.232 4.217 2.669 1.027 1.445 1.434 3.184 1.14 4.906l-20.903 123.565c-.921 5.446 2.747 10.607 8.192 11.528.564.096 1.126.142 1.68.142 4.79 0 9.022-3.453 9.849-8.333l20.9-123.555c1.189-6.99-.43-14.037-4.56-19.844zm-121.311 37.017v392.831c0 3.553-3.008 6.555-6.568 6.555h-265.613c-3.561 0-6.569-3.001-6.569-6.555v-392.831c0-3.63 2.947-6.583 6.569-6.583h265.612c3.623 0 6.569 2.953 6.569 6.583z"></path><path d="m131.071 228.684c-19.48 20.203-18.897 52.511 1.301 72.019l63.556 61.371c1.937 1.871 4.441 2.806 6.946 2.806 2.504 0 5.009-.936 6.946-2.806l63.565-61.378c20.184-19.531 20.749-51.838 1.271-72.005-9.395-9.761-22.07-15.274-35.691-15.522-13.55-.235-26.357 4.743-36.104 14.058-9.718-9.303-22.544-14.308-36.039-14.059-13.635.236-26.331 5.746-35.751 15.516zm36.654 4.475c8.071 0 15.661 3.053 21.443 8.647l6.769 6.519c3.879 3.735 10.018 3.729 13.889-.014l6.736-6.516c5.92-5.717 13.738-8.769 22.038-8.632 8.272.151 15.96 3.487 21.658 9.407 11.836 12.255 11.486 31.881-.773 43.743l-56.611 54.664-56.609-54.663c-12.271-11.852-12.629-31.479-.796-43.751 5.706-5.919 13.413-9.258 21.699-9.401.186-.001.371-.003.557-.003z"></path><path d="m124.78 190.574c1.937 1.872 4.442 2.808 6.947 2.808 2.506 0 5.013-.937 6.951-2.811l31.66-30.611c12.054-11.64 12.395-30.925.763-42.991-5.623-5.831-13.199-9.122-21.333-9.265-6.537-.115-12.802 1.818-18.052 5.529-5.236-3.704-11.502-5.652-18.058-5.529-8.135.143-15.711 3.434-21.333 9.266-11.633 12.066-11.291 31.351.762 42.99zm-18.057-59.724c1.911-1.982 4.499-3.101 7.287-3.15.063-.001.127-.001.191-.001 2.718 0 5.271 1.023 7.203 2.889l3.37 3.26c3.888 3.76 10.062 3.748 13.934-.03l3.307-3.225c1.981-1.915 4.6-2.928 7.399-2.893 2.788.049 5.376 1.168 7.287 3.15 3.985 4.133 3.869 10.738-.262 14.727l-24.717 23.898-24.744-23.902c-4.124-3.985-4.24-10.59-.255-14.723z"></path><path d="m267.074 387.486-31.705 30.626c-12.026 11.654-12.362 30.934-.75 42.978 5.622 5.832 13.199 9.122 21.333 9.266.186.003.369.005.554.005 6.357 0 12.423-1.936 17.515-5.542 5.236 3.709 11.469 5.647 18.069 5.538 8.135-.144 15.712-3.434 21.334-9.266 11.632-12.065 11.29-31.35-.762-42.989l-31.694-30.615c-3.875-3.744-10.019-3.744-13.894-.001zm31.952 59.724c-1.911 1.982-4.499 3.102-7.288 3.15-2.769.054-5.417-.978-7.395-2.888l-3.371-3.26c-1.938-1.874-4.444-2.811-6.951-2.811s-5.015.937-6.952 2.812l-3.364 3.254c-1.982 1.915-4.6 2.949-7.4 2.893-2.788-.049-5.376-1.168-7.287-3.15-3.978-4.125-3.856-10.736.258-14.724l24.746-23.904 24.747 23.904c4.126 3.986 4.241 10.591.257 14.724z"></path><path d="m429.854 231.577c-5.522 0-10 4.505-10 10.028s4.478 10 10 10 10-4.477 10-10v-.057c0-5.522-4.478-9.971-10-9.971z"></path></g></g></svg>