<svg xmlns="http://www.w3.org/2000/svg" id="Capa_1" height="512" viewBox="0 0 512 512" width="512"><g><g><path d="m256 231.226c54.644 0 99.097-44.453 99.097-99.097s-44.453-99.097-99.097-99.097-99.097 44.453-99.097 99.097 44.453 99.097 99.097 99.097zm0-181.678c45.535 0 82.581 37.046 82.581 82.581s-37.046 82.581-82.581 82.581-82.581-37.046-82.581-82.581 37.046-82.581 82.581-82.581z"></path><path d="m319.174 396.387h-30.142v-69.393c24.262-4.947 46.501-15.368 65.643-29.704h8.679c59.194 0 107.355-48.161 107.355-107.355v-16.516c0-22.767-18.523-41.29-41.29-41.29h-8.258v-16.516h-34.18c-8.167-65.074-63.727-115.613-130.981-115.613s-122.814 50.539-130.981 115.613h-34.18v16.516h-8.258c-22.767 0-41.29 18.523-41.29 41.29v16.516c0 59.194 48.161 107.355 107.355 107.355h8.679c19.142 14.336 41.381 24.758 65.643 29.704v69.393h-30.142l-33.445 75.264c-1.643 3.691-2.477 7.614-2.477 11.66 0 15.814 12.874 28.689 28.697 28.689h140.808c15.814 0 28.689-12.874 28.689-28.697 0-4.038-.834-7.961-2.477-11.66zm110.245-247.742c13.659 0 24.774 11.115 24.774 24.774v16.516c0 46.336-34.89 84.604-79.765 90.095 28.862-29.754 46.732-70.243 46.732-114.87v-16.516h8.259zm-173.419-132.129c63.752 0 115.613 51.861 115.613 115.613s-51.861 115.613-115.613 115.613-115.613-51.861-115.613-115.613 51.861-115.613 115.613-115.613zm-148.645 115.613h16.516c0 72.853 59.276 132.129 132.129 132.129s132.129-59.276 132.129-132.129h16.516v33.032c0 81.961-66.684 148.645-148.645 148.645s-148.645-66.684-148.645-148.645zm-49.549 57.806v-16.516c0-13.659 11.115-24.774 24.774-24.774h8.258v16.516c0 44.627 17.87 85.116 46.732 114.87-44.873-5.492-79.764-43.76-79.764-90.096zm181.678 139.553c5.434.537 10.942.834 16.516.834s11.082-.297 16.516-.834v66.899h-33.032zm86.916 165.996h-140.8c-6.714 0-12.181-5.467-12.181-12.181 0-1.718.355-3.378 1.049-4.947l29.093-65.453h19.406 66.065 19.406l29.093 65.453c.694 1.569 1.049 3.237 1.049 4.947.001 6.714-5.466 12.181-12.18 12.181z"></path><path d="m206.452 478.968h99.097v-49.548h-99.097zm16.516-33.033h66.065v16.516h-66.065z"></path><path d="m268.387 198.194 55.09-73.455-29.341-58.674h-76.271l-29.341 58.674 55.09 73.455zm19.621-107.446 12.437 24.865h-29.011zm-32.008 18.234-17.606-26.401h35.204zm-15.426 6.631h-29.011l12.437-24.865zm7.168 16.516v44.04l-33.032-44.04zm16.516 44.04v-44.04h33.032z"></path><path d="m247.742 280.774h16.516v16.516h-16.516z"></path><path d="m214.71 280.774h16.516v16.516h-16.516z"></path><path d="m280.774 280.774h16.516v16.516h-16.516z"></path><path d="m388.129 470.71c0-4.55 3.708-8.258 8.258-8.258h66.065c13.659 0 24.774-11.115 24.774-24.774s-11.115-24.774-24.774-24.774h-49.548c-4.55 0-8.258-3.708-8.258-8.258s3.708-8.258 8.258-8.258h74.323c13.659 0 24.774-11.115 24.774-24.774s-11.115-24.774-24.774-24.774h-115.614c-4.55 0-8.258-3.708-8.258-8.258s3.708-8.258 8.258-8.258h66.065c13.659 0 24.774-11.115 24.774-24.774v-8.258h-16.516v8.258c0 4.55-3.708 8.258-8.258 8.258h-66.065c-13.659 0-24.774 11.115-24.774 24.774s11.115 24.774 24.774 24.774h115.613c4.55 0 8.258 3.708 8.258 8.258s-3.708 8.258-8.258 8.258h-74.323c-13.659 0-24.774 11.115-24.774 24.774s11.115 24.774 24.774 24.774h49.548c4.55 0 8.258 3.708 8.258 8.258s-3.708 8.258-8.258 8.258h-66.065c-13.659 0-24.774 11.115-24.774 24.774s11.115 24.774 24.774 24.774h115.614v-16.516h-115.613c-4.55 0-8.258-3.708-8.258-8.258z"></path><path d="m24.774 363.355h115.613c13.659 0 24.774-11.115 24.774-24.774s-11.115-24.774-24.774-24.774h-66.064c-4.55 0-8.258-3.708-8.258-8.258v-8.258h-16.517v8.258c0 13.659 11.115 24.774 24.774 24.774h66.065c4.55 0 8.258 3.708 8.258 8.258s-3.708 8.258-8.258 8.258h-115.613c-13.659 0-24.774 11.115-24.774 24.774s11.115 24.774 24.774 24.774h74.323c4.55 0 8.258 3.708 8.258 8.258s-3.708 8.258-8.258 8.258h-49.549c-13.659 0-24.774 11.115-24.774 24.774s11.115 24.774 24.774 24.774h66.065c4.55 0 8.258 3.708 8.258 8.258s-3.708 8.258-8.258 8.258h-115.613v16.516h115.613c13.659 0 24.774-11.115 24.774-24.774s-11.115-24.774-24.774-24.774h-66.065c-4.55 0-8.258-3.708-8.258-8.258s3.708-8.258 8.258-8.258h49.548c13.659 0 24.774-11.115 24.774-24.774s-11.115-24.774-24.774-24.774h-74.322c-4.55 0-8.258-3.708-8.258-8.258s3.708-8.258 8.258-8.258z"></path></g></g></svg>