<svg xmlns="http://www.w3.org/2000/svg" id="Layer_1" height="512" viewBox="0 0 468 468" width="512"><g><g><g><g><path d="m244.505 134.081h-141.059c-2.762 0-5-2.239-5-5.001s2.238-5.001 5-5.001h141.059c2.762 0 5 2.239 5 5.001s-2.238 5.001-5 5.001z"></path></g></g><g><g><path d="m244.505 173.297h-141.059c-2.762 0-5-2.239-5-5.001s2.238-5.001 5-5.001h141.059c2.762 0 5 2.239 5 5.001s-2.238 5.001-5 5.001z"></path></g></g><g><g><path d="m152.319 212.513h-48.873c-2.762 0-5-2.239-5-5.001s2.238-5.001 5-5.001h48.873c2.762 0 5 2.239 5 5.001s-2.238 5.001-5 5.001z"></path></g></g><g><g><path d="m103.976 251.729h-59.303c-2.762 0-5-2.239-5-5.001s2.238-5.001 5-5.001h59.303c2.762 0 5 2.239 5 5.001s-2.239 5.001-5 5.001z"></path></g></g><g><g><path d="m83 290.945h-38.327c-2.762 0-5-2.239-5-5.001s2.238-5.001 5-5.001h38.327c2.762 0 5 2.239 5 5.001s-2.238 5.001-5 5.001z"></path></g></g><g><g><path d="m255.279 59.073h-29.774v-16.686c0-2.762-2.238-5.001-5-5.001h-14.591v-32.385c0-2.762-2.238-5.001-5-5.001h-117.549c-2.762 0-5 2.239-5 5.001v32.384h-14.591c-2.762 0-5 2.239-5 5.001v16.686h-29.774c-15.99 0-29 13.012-29 29.007v323.021c0 15.995 13.01 29.007 29 29.007h17.957v22.505c0 4.233 5.16 6.551 8.322 3.738l23.678-21.052 23.678 21.052c3.222 2.866 8.322.46 8.322-3.738v-22.505h31.048c2.762 0 5-2.239 5-5.001s-2.238-5.001-5-5.001h-31.048v-39.287c7.541-7.935 12.184-18.652 12.184-30.441 0-24.381-19.82-44.217-44.184-44.217-24.362 0-44.183 19.836-44.183 44.217s19.82 44.217 44.183 44.217c8.007 0 15.517-2.153 22-5.896v52.778l-18.678-16.607c-1.895-1.685-4.75-1.685-6.645 0l-18.678 16.607v-32.689c0-2.762-2.238-5.001-5-5.001s-5 2.239-5 5.001v11.318h-17.956c-10.477 0-19-8.526-19-19.005v-323.02c0-10.479 8.523-19.005 19-19.005h29.774v16.36c0 2.762 2.238 5.001 5 5.001h156.73c2.762 0 5-2.239 5-5.001v-16.36h29.774c10.477 0 19 8.526 19 19.005v91.311c0 2.762 2.238 5.001 5 5.001s5-2.239 5-5.001v-91.311c.001-15.995-13.008-29.007-28.999-29.007zm-210.505 301.302c0-18.866 15.334-34.215 34.183-34.215s34.184 15.349 34.184 34.215-15.335 34.215-34.184 34.215-34.183-15.349-34.183-34.215zm43.591-350.373h107.549v27.383h-107.549zm127.14 70.432h-146.731v-33.046h146.73v33.046z"></path></g><g><g><path d="m78.957 378.38c-9.925 0-18-8.077-18-18.004 0-9.928 8.075-18.004 18-18.004s18 8.077 18 18.004-8.075 18.004-18 18.004zm0-26.007c-4.411 0-8 3.59-8 8.002s3.589 8.002 8 8.002 8-3.59 8-8.002-3.589-8.002-8-8.002z"></path></g></g></g></g><g><g><path d="m466.53 287.545-103.239-102.951c-1.951-1.946-5.109-1.945-7.061 0l-24.013 23.952c-1.96 2.361-1.96 4.722 0 7.083l1.707 1.702-29.095 20.169c-12.508 2.495-24.644 4.653-35.618 11.746l-10.877-2.17-29.912-19.25 2.611-2.604c1.96-2.361 1.96-4.722 0-7.083l-24.014-23.952c-1.951-1.947-5.109-1.946-7.061 0l-90.489 90.241c-1.96 2.361-1.96 4.722 0 7.083l24.013 23.952c2.353 1.946 4.707 1.946 7.061 0l80.63-80.408 32.548 20.946c.526.339 1.112.576 1.728.698l3.555.709c-.135.132-38.836 38.67-38.836 38.67-5.368 5.348-5.383 14.449-.005 19.811 14.396 14.357 37.774 14.331 52.113-.055l5.48-5.493c15.998 2.616 32.521-.773 46.196-9.46l60.426 60.156c4.987 4.973 4.998 13.428 0 18.413-5.061 5.046-13.292 5.047-18.353 0l-24.824-24.756c-1.955-1.95-5.122-1.945-7.071.011s-1.944 5.122.011 7.073l31.12 31.035c4.986 4.972 4.997 13.43 0 18.413-5.061 5.046-13.293 5.045-18.354 0l-33.91-33.818c-1.955-1.95-5.122-1.945-7.071.011s-1.944 5.123.011 7.073l27.535 27.46c4.918 4.982 4.896 13.384-.073 18.339-5.059 5.047-13.293 5.047-18.354 0l-30.478-30.395c-1.956-1.95-5.123-1.945-7.071.011-1.949 1.956-1.944 5.122.011 7.073l17.656 17.608c4.987 4.973 4.998 13.428 0 18.413-3.162 3.154-7.622 4.389-11.812 3.513 2.357-8.32-.244-17.488-6.633-23.314-4.487-4.091-10.152-6.07-15.787-5.99 1.766-7.654-.649-15.889-6.261-21.369-5.082-4.949-12.052-7.505-19.151-6.605.672-6.892-1.843-13.888-6.811-18.736-5.186-5.063-12.226-7.142-18.956-6.292.713-6.923-1.819-13.987-6.806-18.856-7.229-7.059-18.071-8.359-26.643-3.943-3.559-4.179-7.022-8.479-10.322-12.836-1.668-2.202-4.803-2.634-7.005-.967-2.201 1.667-2.634 4.804-.966 7.006 3.354 4.429 6.872 8.803 10.486 13.057l-9.391 9.365c-8.867 8.842-8.869 23.735 0 32.58 4.868 4.854 12.065 7.343 18.891 6.535-.436 7.062 1.468 13.767 6.599 18.885 4.849 4.835 11.981 7.305 18.778 6.548-1.505 13.372 9.468 25.681 22.951 25.681 2.369 0 4.731-.386 7.006-1.119.257 5.859 2.687 11.309 6.907 15.429 8.848 8.636 23.542 8.559 32.3-.173 0 0 5.559-5.567 5.861-5.905 8.185 2.877 17.674.726 23.826-5.409 3.356-3.346 5.552-7.546 6.385-12.111 8.993 8.323 23.102 8.125 31.851-.599 3.855-3.846 6.18-8.816 6.665-14.173 8.359 3.522 18.398 1.889 25.197-4.892 6.534-6.516 8.564-16.633 4.989-25.175 5.158-.471 10.188-2.671 14.128-6.601 7.888-7.866 8.916-20.806 2.346-29.804 8.917-4.953 16.815-11.688 23.099-19.745 1.698-2.178 1.311-5.321-.867-7.02-2.176-1.698-5.318-1.31-7.018.867-6.003 7.697-13.699 14.005-22.404 18.392l-54.719-54.564 13.389-11.412c2.102-1.791 2.354-4.948.563-7.051-1.792-2.104-4.948-2.354-7.049-.563l-17.955 15.304c-12.646 8.925-28.569 12.25-43.734 9.11-1.653-.341-3.36.171-4.55 1.363l-7.344 7.36c-10.449 10.481-27.482 10.498-37.973.035-1.562-1.881-1.561-3.761.001-5.641l38.429-38.279c11.806-11.759 26.55-14.67 42.149-17.782.672-.134 1.308-.404 1.87-.794l31.452-21.803 94.333 94.07c2.354 1.946 4.707 1.946 7.061 0l24.013-23.952c1.959-2.359 1.959-4.72-.001-7.081zm-329.517 17.315-16.932-16.889 83.408-83.179 16.933 16.889zm47.507 77.671c-5.06 5.047-13.294 5.046-18.354 0-4.986-4.972-4.997-13.43 0-18.413l11.542-11.51c4.91-4.896 13.284-4.949 18.254-.098 5.076 4.956 5.135 13.489.1 18.511zm25.49 25.42c-11.84 11.807-30.226-6.575-18.354-18.412l11.814-11.782c4.947-4.892 13.25-4.983 18.255-.098 5.076 4.956 5.134 13.489.099 18.51zm25.296 25.614c-4.954 4.94-13.014 4.937-17.968-.002-5.21-4.862-5.473-13.336-.383-18.413l12.467-12.433c5.101-5.088 13.282-4.7 18.262.281 4.972 4.852 5.027 13.21.097 18.126zm35.095 15.841-4.925 4.911c-5.006 4.992-13.193 5.038-18.255.098-5.077-4.955-5.133-13.489-.099-18.51l4.925-4.911c4.85-4.81 12.87-5.018 17.933-.4 5.367 4.892 5.576 13.67.421 18.812zm168.586-141.43-96.158-95.889 16.932-16.889 96.158 95.889z"></path></g></g><g><path d="m373.074 41.352-21.14-38.747c-1.867-3.426-6.946-3.406-8.792.027l-20.86 38.802c-.392.728-.597 1.542-.597 2.369v97.002c0 14.34 11.663 26.006 26 26.006s26-11.666 26-26.006v-97.057c.001-.837-.209-1.661-.611-2.396zm-25.496-25.851 12.71 23.297-25.237.003zm16.108 125.304c0 8.824-7.178 16.004-16 16.004s-16-7.179-16-16.004v-5.001h32zm-32-15.004v-76.997l32-.004v77.001z"></path></g><g><g><circle cx="279.28" cy="212.023" r="6.5"></circle></g></g><g><g><circle cx="172.373" cy="435.105" r="6.5"></circle></g></g></g></svg>