<svg xmlns="http://www.w3.org/2000/svg" id="Capa_1" height="512" viewBox="0 0 512 512" width="512"><g><path d="m168.652 55.66c2.866 7.758 11.488 11.746 19.269 8.87 7.77-2.872 11.741-11.5 8.869-19.27l-10.418-28.191c-2.872-7.77-11.499-11.743-19.27-8.87-7.77 2.872-11.741 11.5-8.87 19.27z"></path><path d="m77.866 130.195-26.382-15c-7.204-4.097-16.358-1.576-20.454 5.625-4.095 7.202-1.575 16.359 5.626 20.454l26.382 15c7.155 4.069 16.332 1.622 20.454-5.625 4.095-7.202 1.575-16.359-5.626-20.454z"></path><path d="m42.436 270.596-30 5.209c-8.162 1.418-13.63 9.184-12.213 17.346 1.267 7.294 7.602 12.437 14.762 12.437 2.311 0 1.042-.033 32.584-5.433 8.162-1.418 13.63-9.184 12.213-17.346s-9.177-13.631-17.346-12.213z"></path><path d="m472.415 366.44-74.429-35.225c14.3-24.376 22.513-52.735 22.513-82.98 0-90.706-73.793-164.5-164.498-164.5s-164.498 73.794-164.498 164.5 73.793 164.5 164.498 164.5c20.537 0 40.203-3.792 58.346-10.698l19.626 80.006c2.636 10.743 15.669 15.074 24.201 7.925l21.344-17.881 22.736 27.256c5.315 6.372 14.805 7.217 21.16 1.882l51.725-43.404c6.333-5.313 7.173-14.75 1.877-21.099l-22.776-27.304 21.392-17.922c8.367-7.01 6.671-20.374-3.217-25.056zm-186.465-132.705h-59.9c-8.271 0-15-6.729-15-15s6.728-15 15-15h89.999c8.284 0 15-6.716 15-15s-6.716-15-15-15h-44.549v-15c0-8.284-6.716-15-15-15s-15 6.716-15 15v15h-15.45c-24.813 0-45 20.187-45 45s20.186 45 45 45h59.9c8.271 0 15 6.729 15 15s-6.728 15-15 15h-89.9c-8.284 0-15 6.716-15 15s6.716 15 15 15h45.45v15c0 8.284 6.716 15 15 15s15-6.716 15-15v-15c12.251-.186 16.417.522 23.418-.9l12.213 49.787c-88.211 36.396-185.629-28.873-185.629-124.387 0-74.164 60.336-134.5 134.499-134.5s134.499 60.336 134.499 134.5c0 25.662-7.225 49.668-19.746 70.092l-43.933-20.792c13.769-29.819-8.223-63.8-40.871-63.8zm129.703 234.84-22.728-27.247c-5.311-6.368-14.792-7.216-21.151-1.89l-14.403 12.066-29.507-120.284 110.55 52.32-14.915 12.495c-6.341 5.312-7.184 14.755-1.886 21.106l22.784 27.313z"></path><path d="m128.009 398.952c-6.305-5.37-15.772-4.615-21.146 1.689l-19.581 22.981c-5.372 6.306-4.616 15.773 1.689 21.146 6.306 5.37 15.772 4.617 21.146-1.689l19.581-22.981c5.373-6.305 4.617-15.773-1.689-21.146z"></path><path d="m256 444.735c-8.284 0-15 6.716-15 15v30c0 8.284 6.716 15 15 15s15-6.716 15-15v-30c0-8.284-6.716-15-15-15z"></path><path d="m499.564 275.805-30-5.209c-8.17-1.415-15.929 4.051-17.346 12.213s4.051 15.928 12.213 17.346l30 5.209c8.214 1.423 15.936-4.097 17.346-12.213 1.416-8.163-4.051-15.928-12.213-17.346z"></path><path d="m441.561 158.237c6.748 0 8.928-3.48 33.782-16.963 7.201-4.095 9.721-13.252 5.626-20.454-4.096-7.202-13.254-9.72-20.454-5.625l-26.382 15c-7.201 4.095-9.721 13.252-5.626 20.454 2.765 4.861 7.836 7.588 13.054 7.588z"></path><path d="m324.078 64.53c7.787 2.878 16.405-1.117 19.269-8.87l10.42-28.191c2.871-7.771-1.1-16.398-8.87-19.27-7.768-2.871-16.398 1.1-19.27 8.87l-10.418 28.191c-2.872 7.77 1.099 16.398 8.869 19.27z"></path></g></svg>