<svg xmlns="http://www.w3.org/2000/svg" xmlns:xlink="http://www.w3.org/1999/xlink" id="Capa_1" x="0px" y="0px" viewBox="0 0 512.002 512.002" style="enable-background:new 0 0 512.002 512.002;" xml:space="preserve">
<g>
	<g>
		<path d="M511.769,210.368c-0.372-4.394-3.578-8.025-7.892-8.938c-2.488-0.527-4.994-0.904-7.502-1.137    c0.851-1.35,1.66-2.731,2.414-4.15c9.771-18.376,10.267-40.585,1.326-59.409c-1.892-3.983-6.175-6.257-10.528-5.598    c-20.604,3.116-38.737,15.948-48.508,34.326c-0.001,0-0.001,0-0.001,0c-1.009,1.897-1.894,3.844-2.705,5.815    c-5.768-6.562-12.827-12.017-20.855-15.897c-3.969-1.917-8.728-1.011-11.713,2.235c-13.296,14.46-19.467,34.273-16.863,53.623    c-0.703,0.236-1.388,0.548-2.04,0.948c-17.766,10.891-29.474,29.769-31.319,50.5c-1.472,16.539,3.448,33.023,13.398,46.053    c-6.348,3.813-13.006,7.17-19.931,10.025v-14.764c0-16.542-13.458-30-30-30h-25.047v-65.364c0-5.523-4.478-10-10-10    s-10,4.477-10,10v75.364c0,5.522,4.478,10,10,10h35.047c5.514,0,10,4.486,10,10v26H182.954v-26c0-5.514,4.486-10,10-10h35.047    c5.522,0,10-4.478,10-10V97.595c0-4.044-2.437-7.691-6.173-9.239c-3.737-1.548-8.038-0.691-10.898,2.167l-38.004,38.003    l-25.455-25.455l63.075-63.075h53.456v85.269c0,5.523,4.478,10,10,10c5.522,0,10-4.477,10-10V29.996c0-5.523-4.478-10-10-10    h-67.599c-2.652,0-5.195,1.054-7.071,2.929l-66.004,66.004c-3.777,3.778-5.857,8.8-5.857,14.143s2.08,10.365,5.857,14.143    l25.455,25.455c7.799,7.799,20.486,7.799,28.285,0l20.932-20.932V274h-25.047c-16.542,0-30,13.458-30,30v14.764    c-6.925-2.855-13.583-6.213-19.931-10.025c9.95-13.028,14.87-29.512,13.398-46.053c-1.846-20.73-13.554-39.609-31.319-50.5    c-0.652-0.4-1.337-0.712-2.04-0.948c2.604-19.349-3.567-39.161-16.863-53.622c-2.985-3.246-7.741-4.153-11.713-2.235    c-8.028,3.88-15.087,9.335-20.855,15.897c-0.811-1.971-1.696-3.918-2.705-5.815c0,0,0,0-0.001,0    c-9.771-18.377-27.903-31.209-48.508-34.326c-4.364-0.657-8.637,1.615-10.528,5.598c-8.94,18.824-8.444,41.033,1.325,59.409    c0.754,1.418,1.564,2.8,2.415,4.15c-2.509,0.234-5.013,0.61-7.502,1.137c-4.313,0.914-7.52,4.545-7.892,8.938    c-1.76,20.764,6.503,41.385,22.104,55.16c5.624,4.966,12.017,8.859,18.842,11.626c-4.371,2.189-8.522,4.866-12.355,8.021    c-3.403,2.803-4.57,7.504-2.871,11.573c8.028,19.229,24.882,33.701,45.082,38.715c5.208,1.292,10.511,1.924,15.793,1.924    c14.839,0,29.487-5.006,41.283-14.384c3.858,2.49,7.831,4.82,11.899,6.998h-12.011c-16.542,0-30,13.458-30,30v40.001h-2    c-27.57,0-50.001,22.43-50.001,50.001v32c0,5.522,4.478,10,10,10H198c5.522,0,10-4.478,10-10c0-5.522-4.478-10-10-10H65.999v-22    c0-16.542,13.458-30,30-30h12h296.004h12c16.542,0,30,13.458,30,30v22H290.002c-5.522,0-10,4.478-10,10c0,5.522,4.478,10,10,10    h166.002c5.522,0,10-4.478,10-10v-32c0-27.57-22.43-50.001-50.001-50.001h-2v-40.001c0-16.542-13.458-30-30-30h-12.011    c4.068-2.178,8.04-4.508,11.899-6.998c11.796,9.38,26.441,14.384,41.283,14.384c5.28,0,10.587-0.632,15.793-1.924    c20.199-5.013,37.054-19.485,45.082-38.715c1.699-4.069,0.532-8.771-2.871-11.573c-3.833-3.156-7.985-5.833-12.356-8.021    c6.825-2.767,13.219-6.661,18.843-11.626C505.266,251.753,513.529,231.133,511.769,210.368z M77.938,206.259    c2.259-11.833,8.825-22.001,18.41-28.826c6.398,9.875,8.759,21.747,6.501,33.581c-2.259,11.833-8.825,22.001-18.41,28.826    C78.041,229.965,75.68,218.093,77.938,206.259z M27.158,152.754c11.174,3.687,20.452,11.46,26.107,22.097    c4.602,8.657,6.289,18.243,5.036,27.616c-0.003,0.014-0.007,0.028-0.009,0.042c-0.168,0.883-0.312,1.768-0.443,2.654    c-0.241,1.235-0.523,2.466-0.868,3.688c-11.174-3.687-20.452-11.46-26.107-22.097C25.22,176.118,23.965,164.079,27.158,152.754z     M35.578,250.535c-9.03-7.973-14.432-18.804-15.42-30.529c11.743-0.477,23.173,3.546,32.204,11.52    c9.03,7.973,14.433,18.805,15.42,30.53C56.029,262.514,44.608,258.509,35.578,250.535z M75.855,316.051    c-11.691-2.9-21.486-10.013-27.776-19.956c10.208-5.848,22.192-7.558,33.884-4.656c7.121,1.766,13.532,5.103,18.882,9.682    c1.23,1.214,2.476,2.412,3.742,3.589c1.905,2.051,3.633,4.283,5.153,6.685C99.529,317.246,87.549,318.955,75.855,316.051z     M126.687,297.226c-8.857-7.745-14.379-18.518-15.447-30.517c-1.068-11.999,2.463-23.576,9.813-32.765    c8.857,7.746,14.378,18.518,15.446,30.516C137.568,276.458,134.037,288.037,126.687,297.226z M384.004,350c5.514,0,10,4.487,10,10    v40.001H118v-40.001c0-5.514,4.486-10,10-10h44.954H339.05H384.004z M458.739,174.851c5.655-10.637,14.934-18.41,26.107-22.097    c3.193,11.325,1.938,23.364-3.717,34c-5.654,10.636-14.933,18.41-26.106,22.096c-0.344-1.221-0.627-2.452-0.868-3.688    c-0.131-0.886-0.274-1.771-0.443-2.654c-0.003-0.014-0.007-0.028-0.009-0.042C452.45,193.093,454.137,183.508,458.739,174.851z     M415.657,177.433c9.585,6.825,16.151,16.993,18.41,28.826c2.258,11.833-0.103,23.705-6.501,33.58    c-9.585-6.825-16.151-16.993-18.41-28.826C406.898,199.18,409.258,187.308,415.657,177.433z M400.764,266.707    c-1.068,12-6.59,22.772-15.447,30.518c-7.35-9.189-10.88-20.767-9.812-32.766c1.068-11.999,6.589-22.771,15.446-30.516    C398.301,243.131,401.832,254.709,400.764,266.707z M436.151,316.051c-11.694,2.902-23.676,1.192-33.884-4.656    c1.52-2.403,3.249-4.636,5.155-6.688c1.265-1.175,2.51-2.371,3.738-3.585c5.351-4.58,11.762-7.917,18.883-9.683    c11.693-2.899,23.676-1.191,33.884,4.656C457.636,306.038,447.842,313.151,436.151,316.051z M476.427,250.535    c-9.031,7.973-20.461,11.988-32.205,11.521c0.987-11.726,6.39-22.558,15.42-30.53c9.03-7.974,20.445-11.991,32.204-11.52    C490.859,231.731,485.456,242.562,476.427,250.535z"></path>
	</g>
</g>
<g>
	<g>
		<path d="M250.332,474.932c-1.86-1.86-4.44-2.93-7.07-2.93c-2.63,0-5.21,1.069-7.07,2.93c-1.859,1.86-2.93,4.44-2.93,7.07    c0,2.63,1.07,5.21,2.93,7.069c1.86,1.86,4.44,2.931,7.07,2.931c2.63,0,5.21-1.07,7.07-2.931c1.859-1.859,2.93-4.439,2.93-7.069    C253.262,479.372,252.192,476.792,250.332,474.932z"></path>
	</g>
</g>
<g>
	<g>
		<path d="M291.072,157.308c-1.859-1.86-4.439-2.92-7.069-2.92c-2.63,0-5.21,1.06-7.07,2.92c-1.86,1.87-2.93,4.44-2.93,7.08    c0,2.63,1.069,5.21,2.93,7.07c1.86,1.86,4.44,2.93,7.07,2.93c2.63,0,5.21-1.07,7.069-2.93c1.86-1.86,2.931-4.44,2.931-7.07    C294.003,161.748,292.933,159.178,291.072,157.308z"></path>
	</g>
</g>
<g>
</g>
<g>
</g>
<g>
</g>
<g>
</g>
<g>
</g>
<g>
</g>
<g>
</g>
<g>
</g>
<g>
</g>
<g>
</g>
<g>
</g>
<g>
</g>
<g>
</g>
<g>
</g>
<g>
</g>
</svg>