<svg xmlns="http://www.w3.org/2000/svg" height="512pt" viewBox="0 -17 512.002 512" width="512pt"><path d="m509.804688 322.09375-44.894532-44.894531c-4.871094-4.871094-8.246094-11.066407-9.714844-17.726563l38.972657-38.972656c.566406-.566406 1.023437-1.203125 1.371093-1.878906 10.804688-14.28125 9.699219-34.765625-3.316406-47.777344-6.890625-6.890625-16.046875-10.683594-25.792968-10.683594-.417969 0-.835938.015625-1.25.03125 2.949218-11.996094-.25-25.207031-9.601563-34.5625-7.234375-7.234375-16.773437-10.78125-26.273437-10.65625 3.472656-12.304687.382812-26.089844-9.28125-35.753906-6.1875-6.1875-14.066407-9.679688-22.164063-10.484375 2.691406-5.144531 4.125-10.898437 4.125-16.871094 0-9.746093-3.792969-18.90625-10.683594-25.792969-6.890625-6.890624-16.050781-10.683593-25.792969-10.683593-9.742187 0-18.902343 3.792969-25.792968 10.683593l-11.988282 11.984376-26.84375-25.664063c-8.355468-7.988281-19.320312-12.390625-30.878906-12.390625h-63.550781c-10.742187 0-19.484375 8.742188-19.484375 19.484375 0 5.679687.835938 11.167969 2.371094 16.363281-10.546875-1.082031-21.476563 2.402344-29.542969 10.46875-6.890625 6.890625-10.683594 16.050782-10.683594 25.792969 0 4.503906.820313 8.882813 2.375 12.972656-9.128906.402344-17.65625 4.140625-24.15625 10.644531-9.742187 9.738282-12.808593 23.664063-9.207031 36.042969-9.425781-.066406-18.875 3.480469-26.054688 10.660157-10.675781 10.675781-13.335937 26.378906-7.984374 39.558593-8.636719.488281-17.128907 4.019531-23.714844 10.601563-13.667969 13.671875-14.191406 35.574218-1.585938 49.882812-.507812 4.09375-.929687 8.195313-1.257812 12.230469-.6875 8.460937-4.390625 16.453125-10.4375 22.496094l-44.894532 44.894531c-1.40625 1.40625-2.195312 3.3125-2.195312 5.304688 0 1.988281.789062 3.894531 2.195312 5.300781l28.433594 28.433593c1.464844 1.464844 3.386719 2.195313 5.304688 2.195313 1.917968 0 3.835937-.730469 5.300781-2.195313 2.929687-2.929687 2.929687-7.675781 0-10.601562l-23.132813-23.132812 39.59375-39.59375c8.480469-8.480469 13.703126-19.679688 14.746094-31.5625l3.386719 3.390624c7.109375 7.109376 16.453125 10.664063 25.792969 10.664063s18.683594-3.554687 25.792968-10.667969c7.425782-7.421875 10.964844-17.277344 10.636719-27.023437 2.839844.699219 5.785157 1.0625 8.785157 1.0625 9.742187 0 18.902343-3.792969 25.792968-10.683594 7.226563-7.230469 10.773438-16.757813 10.65625-26.25 3.199219.902344 6.542969 1.378906 9.960938 1.378906 9.742187 0 18.902344-3.792969 25.792968-10.683593 6.191407-6.191407 9.6875-14.078126 10.484376-22.179688 5.265624 2.742188 11.066406 4.113281 16.867187 4.113281 9.339844 0 18.679687-3.554687 25.789063-10.664062h.003906c12.914062-12.914063 14.097656-33.183594 3.558594-47.449219l74.578124-74.578125c4.054688-4.058594 9.449219-6.292969 15.1875-6.292969 5.738282 0 11.132813 2.234375 15.1875 6.292969 8.375 8.375 8.375 22.003906 0 30.378906l-75.921874 75.921875c-2.730469 2.726563-2.910157 7.238282-.398438 10.171875 2.804688 3.273438 7.953125 3.480469 11.003906.429688l64.589844-64.589844c8.429688-7.503906 21.375-7.238281 29.449219.835937 8.375 8.375 8.375 22.003907 0 30.378907 0 0-54.886719 54.886719-54.886719 54.886719-1.855469 1.859374-3.722656 3.703124-5.566406 5.570312-3.527344 3.5625-2.953125 9.640625 1.625 12.078125 2.875 1.53125 6.519531.980469 8.824218-1.320313l55.1875-55.1875c4.054688-4.054687 9.449219-6.289062 15.183594-6.289062s11.128906 2.234375 15.1875 6.292969c8.375 8.375 8.375 22 0 30.375l-49.460937 49.460937c-2.730469 2.730469-2.914063 7.242188-.398438 10.175782 2.804688 3.273437 7.953125 3.476562 11.003907.429687l46.203124-46.207031c3.914063-3.425782 8.863282-5.3125 14.109376-5.3125 5.738281 0 11.132812 2.234375 15.1875 6.289062 8.378906 8.375 8.378906 22.003906 0 30.378906l-35.941407 35.945313h-.003906c-.105469.105469-.203125.210937-.300781.320313l-24.429688 24.429687c-2.773437 2.773437-2.90625 7.355469-.300781 10.285156 2.824219 3.179688 7.894531 3.328125 10.90625.320313l11.75-11.75c2.558594 6.109375 6.320313 11.742187 11.007813 16.429687l39.59375 39.59375-88.804688 88.804688c-2.929688 2.929687-2.929688 7.675781 0 10.605469 1.464844 1.464843 3.382812 2.195312 5.300781 2.195312s3.839844-.730469 5.304688-2.195312l94.105469-94.109376c1.40625-1.40625 2.199218-3.3125 2.199218-5.300781-.003906-1.988281-.792968-3.894531-2.199218-5.300781zm-392.992188-73.066406c-8.375 8.375-22.003906 8.375-30.378906 0l-15.457032-15.457032c-8.375-8.375-8.375-22 0-30.375 8.046876-8.046874 20.917969-8.339843 29.347657-.933593l17.429687 17.429687c7.394532 8.425782 7.097656 21.292969-.941406 29.335938zm45.210938-36.648438c-4.054688 4.054688-9.449219 6.289063-15.1875 6.289063-5.734376 0-11.128907-2.234375-15.1875-6.289063l-2.738282-2.742187c-.480468-.539063-.976562-1.074219-1.496094-1.59375-.234374-.234375-.484374-.441407-.738281-.640625l-14.074219-14.074219c-.199218-.253906-.40625-.503906-.640624-.738281-.515626-.515625-1.046876-1.007813-1.585938-1.488282l-7.695312-7.695312c-8.375-8.375-8.375-22 0-30.375s22-8.375 30.375 0c.003906 0 .003906.003906.003906.003906l28.96875 28.964844c8.371094 8.378906 8.371094 22.003906-.003906 30.378906zm46.410156-35.550781c-8.371094 8.375-22 8.375-30.375 0l-40.121094-40.121094c-8.378906-8.375-8.378906-22.003906 0-30.378906 4.054688-4.058594 9.449219-6.292969 15.1875-6.292969 5.308594 0 10.308594 1.933594 14.238281 5.433594l41.890625 41.890625c7.519532 8.425781 7.261719 21.382813-.820312 29.46875zm53.144531-28.734375c-8.375 8.375-22.003906 8.375-30.378906 0l-10.742188-10.742188c-.457031-.511718-.925781-1.015624-1.417969-1.503906-.222656-.222656-.457031-.421875-.695312-.609375l-38.820312-38.816406c-.1875-.242187-.386719-.476563-.605469-.695313-.492188-.492187-.996094-.960937-1.507813-1.417968l-7.011718-7.011719c-4.054688-4.058594-6.289063-9.453125-6.289063-15.1875 0-5.738281 2.234375-11.132813 6.292969-15.191406 4.1875-4.183594 9.6875-6.28125 15.1875-6.28125s11 2.09375 15.1875 6.28125l1.007812 1.011719c1.21875 1.339843 2.5 2.625 3.84375 3.839843l55.945313 55.949219c8.378906 8.375 8.378906 22 .003906 30.375zm3.847656-47.738281-23.433593-23.433594 16.492187 2.652344c2.007813 4.375 5.617187 11.425781 10.359375 17.359375zm14.109375-14.109375c-4.171875-5.683594-7.589844-13.070313-8.816406-16.167969-.972656-2.46875-3.171875-4.238281-5.789062-4.660156l-27.59375-4.429688c-8.355469-1.34375-15.773438-5.039062-21.632813-10.355469l-2.808594-2.804687c-6.835937-7.5-10.929687-17.46875-10.929687-28.347656 0-2.472657 2.015625-4.484375 4.488281-4.484375h63.550781c7.679688 0 14.964844 2.921875 20.515625 8.230468l26.601563 25.433594zm0 0"></path><path d="m383.882812 437.410156-22.296874 22.296875-39.347657-39.347656c-9.394531-9.394531-21.414062-16.089844-34.328125-19.207031 41.867188-17.40625 71.089844-45.527344 74.335938-48.734375.011718-.011719.019531-.019531.027344-.027344.089843-.085937.164062-.160156.210937-.207031l47.851563-47.851563c2.929687-2.929687 2.929687-7.675781 0-10.605469-2.925782-2.929687-7.675782-2.929687-10.605469 0l-47.851563 47.851563c-.015625.015625-.078125.078125-.171875.171875-2.449219 2.382812-29.6875 28.375-67.910156 44.777344-9.382813 4.023437-19.089844 7.328125-29.039063 9.644531-6.476562 1.511719-13.132812 2.625-19.921874 3.222656-17.039063 1.492188-33.046876 8.9375-45.074219 20.964844l-39.347657 39.347656-87.96875-87.96875c-2.929687-2.929687-7.675781-2.929687-10.605468 0-2.925782 2.925781-2.925782 7.675781 0 10.601563l93.273437 93.273437c2.886719 2.886719 7.71875 2.886719 10.605469 0l44.648438-44.648437c9.539062-9.539063 22.246093-15.445313 35.78125-16.632813 6.792968-.597656 13.441406-1.652343 19.914062-3.0625 6.644531 1.449219 13.296875 2.492188 19.792969 3.0625 13.535156 1.183594 26.242187 7.09375 35.78125 16.632813l44.648437 44.648437c2.886719 2.886719 7.71875 2.886719 10.605469 0l27.597656-27.601562c2.929688-2.925781 2.929688-7.675781 0-10.601563-2.929687-2.925781-7.675781-2.925781-10.605469 0zm0 0"></path></svg>