<svg xmlns="http://www.w3.org/2000/svg" id="Capa_1" height="512" viewBox="0 0 511 511" width="512"><g id="Outline_51_"><g><path d="m255 351.5c0-4.142-3.357-7.5-7.5-7.5h-132.229c16.86-13.092 27.729-33.551 27.729-56.5v-157.043c0-4.142-3.357-7.5-7.5-7.5s-7.5 3.358-7.5 7.5v149.543h-120.5c-4.143 0-7.5 3.358-7.5 7.5 0 39.425 32.075 71.5 71.5 71.5h176c4.143 0 7.5-3.358 7.5-7.5zm-183.5-7.5c-28.612 0-52.325-21.378-56.004-49h111.991c-3.682 27.619-27.377 49-55.987 49z"></path><path d="m439.5 0h-240c-39.425 0-71.5 32.075-71.5 71.5v25.304c0 4.142 3.357 7.5 7.5 7.5s7.5-3.358 7.5-7.5v-25.304c0-31.154 25.346-56.5 56.5-56.5s56.5 25.346 56.5 56.5c0 4.142 3.357 7.5 7.5 7.5h168.5v30.715c-3.531 1.317-7.163 2.751-10.889 4.327-27.512 11.635-64.22 32.777-95.731 69.985-.173-.012-.345-.026-.521-.026h-45.359c-4.143 0-7.5 3.358-7.5 7.5s3.357 7.5 7.5 7.5h34.163c-2.897 4.004-5.737 8.147-8.49 12.474-45.428 71.386-36.713 125.744-30.856 145.801.132.452.311.877.516 1.283-1.824 5.838-3.442 11.653-4.866 17.443h-30.467c-4.143 0-7.5 3.358-7.5 7.5v24.498h-.5c-4.143 0-7.5 3.358-7.5 7.5s3.357 7.5 7.5 7.5h.5v4.253l-36.358 21.815c-2.23 1.341-3.642 3.828-3.642 6.431v48c0 4.142 3.357 7.5 7.5 7.5h144c4.143 0 7.5-3.358 7.5-7.5v-48c0-2.603-1.412-5.09-3.642-6.431l-36.358-21.815v-4.253h.5c4.143 0 7.5-3.358 7.5-7.5s-3.357-7.5-7.5-7.5h-.5v-24.5c0-4.142-3.357-7.5-7.5-7.5h-17.042c1.757-6.665 3.986-14.031 6.816-22.038.832-.69 1.535-1.562 2.019-2.609 14.25-30.778 67.913-75.894 100.507-98.709 13.91-9.737 25.894-20.395 36.199-31.273v66.129c0 31.154-25.346 56.5-56.5 56.5h-56c-4.143 0-7.5 3.358-7.5 7.5s3.357 7.5 7.5 7.5h56c39.425 0 71.5-32.075 71.5-71.5v-83.498c13.175-16.764 22.65-33.179 29.243-46.719 11.482-23.58 16.431-42.517 18.021-49.525 1.723-2.738 1.68-6.364-.391-9.094-2.366-3.119-6.575-4.01-9.95-2.316-5.695.71-19.151 2.802-36.923 8.264v-25.612h56.5c4.143 0 7.5-3.358 7.5-7.5.001-39.425-32.074-71.5-71.499-71.5zm-139.858 437.931 16.781 10.069h-39.43c-4.143 0-7.5 3.358-7.5 7.5s3.357 7.5 7.5 7.5h59.007v33h-129v-33h32.5c4.143 0 7.5-3.358 7.5-7.5s-3.357-7.5-7.5-7.5h-12.923l16.781-10.069c2.26-1.355 3.642-3.797 3.642-6.431v-8.5h49v8.5c0 2.634 1.382 5.076 3.642 6.431zm-3.642-29.931h-49v-17h49zm130.434-279.923c11.178-4.756 21.565-8.216 30.521-10.733-42.709 34.818-78.934 70.908-108.238 107.819l-14.284-28.567c30.023-36.614 65.549-57.263 92.001-68.519zm-36.074 110.017c-.06.009-.119.012-.179.023l-36.022 6.432c5.413-7.148 11.214-14.437 17.445-21.856l41.211-3.323c-6.789 6.462-14.252 12.762-22.455 18.724zm-72.533-18.568c2.112-3.318 4.275-6.529 6.479-9.645l12.486 24.973c.564 1.128 1.383 2.037 2.341 2.724-5.185 6.93-10.126 13.886-14.821 20.867-5.85 8.698-11.271 17.391-16.31 26.071l-5.068-38.007c-.007-.052-.021-.102-.029-.154 4.095-8.585 9.009-17.536 14.922-26.829zm-26.193 55.729 4.228 31.708c-4.025 8.035-7.691 16.048-10.999 24.031-1.075-14.24-.053-33.158 6.771-55.739zm28.332 20.928c6.169-10.863 13.292-22.267 21.506-34.131l21.96-3.921c-13.853 10.941-29.411 24.205-43.466 38.052zm108.371-93.113-42.627 3.438c23.664-26.219 52.62-53.817 88.047-82.154-2.671 7.639-6.326 16.814-11.227 26.827-7.278 14.869-18.276 33.441-34.193 51.889zm-157.728-139.07c-2.08-19.876-12.338-37.353-27.338-49h196.229c28.612 0 52.325 21.378 56.004 49z"></path><path d="m191.5 119h80c4.143 0 7.5-3.358 7.5-7.5s-3.357-7.5-7.5-7.5h-80c-4.143 0-7.5 3.358-7.5 7.5s3.357 7.5 7.5 7.5z"></path><path d="m383.5 119c4.143 0 7.5-3.358 7.5-7.5s-3.357-7.5-7.5-7.5h-80c-4.143 0-7.5 3.358-7.5 7.5s3.357 7.5 7.5 7.5z"></path><path d="m191.5 159h136c4.143 0 7.5-3.358 7.5-7.5s-3.357-7.5-7.5-7.5h-136c-4.143 0-7.5 3.358-7.5 7.5s3.357 7.5 7.5 7.5z"></path><path d="m191.5 199h56c4.143 0 7.5-3.358 7.5-7.5s-3.357-7.5-7.5-7.5h-56c-4.143 0-7.5 3.358-7.5 7.5s3.357 7.5 7.5 7.5z"></path><path d="m191.5 239h48c4.143 0 7.5-3.358 7.5-7.5s-3.357-7.5-7.5-7.5h-48c-4.143 0-7.5 3.358-7.5 7.5s3.357 7.5 7.5 7.5z"></path></g></g></svg>