<svg xmlns="http://www.w3.org/2000/svg" id="Capa_1" height="512" viewBox="0 0 512 512" width="512"><g><path d="m256 179.25c43.76 0 80.29-31.527 88.084-73.059l49.331 49.331 10.606-10.606-58.458-58.459c-1.676-47.957-41.205-86.457-89.563-86.457-20.917 0-41.278 7.365-57.331 20.737l9.601 11.525c13.363-11.131 30.313-17.262 47.73-17.262 41.148 0 74.625 33.477 74.625 74.625 0 17.597-6.136 33.779-16.362 46.551v-23.775l-36.963-14.479 9.662-12.883v-16.577c0-17.072-13.89-30.962-30.962-30.962s-30.962 13.89-30.962 30.962v16.577l9.662 12.883-36.963 14.479v23.774c-10.226-12.773-16.362-28.954-16.362-46.551 0-17.418 6.13-34.369 17.262-47.729l-11.524-9.602c-13.373 16.052-20.737 36.412-20.737 57.331-.001 49.42 40.205 89.626 89.624 89.626zm-15.962-110.788c0-8.802 7.161-15.962 15.962-15.962s15.962 7.16 15.962 15.962v11.577l-10.327 13.77h-11.27l-10.327-13.77zm7.994 40.347h15.937l35.294 13.827v27.736c-12.214 8.723-27.143 13.878-43.263 13.878s-31.049-5.155-43.263-13.878v-27.736z"></path><path d="m256 332.75c-20.918 0-41.279 7.364-57.331 20.736l9.601 11.525c13.362-11.132 30.313-17.262 47.73-17.262 41.148 0 74.625 33.477 74.625 74.625 0 17.597-6.136 33.779-16.362 46.551v-23.775l-36.963-14.479 9.662-12.883v-16.577c0-17.072-13.89-30.962-30.962-30.962s-30.962 13.89-30.962 30.962v16.577l9.662 12.883-36.963 14.479v23.775c-10.226-12.773-16.362-28.954-16.362-46.551 0-17.419 6.13-34.369 17.262-47.729l-11.524-9.602c-9.806 11.769-16.366 25.86-19.176 40.786l-49.352-49.352-10.606 10.606 58.458 58.459c1.676 47.958 41.205 86.458 89.563 86.458 49.419 0 89.625-40.206 89.625-89.625s-40.206-89.625-89.625-89.625zm-15.962 68.461c0-8.802 7.161-15.962 15.962-15.962s15.962 7.16 15.962 15.962v11.577l-10.327 13.77h-11.27l-10.327-13.77zm-27.301 81.911v-27.737l35.295-13.827h15.937l35.294 13.827v27.737c-12.214 8.723-27.143 13.878-43.263 13.878s-31.049-5.155-43.263-13.878z"></path><path d="m179.25 256c0-20.918-7.365-41.278-20.737-57.331l-11.524 9.602c11.131 13.362 17.261 30.312 17.261 47.729 0 17.597-6.136 33.779-16.362 46.551v-23.775l-36.963-14.479 9.662-12.883v-16.578c0-17.072-13.89-30.962-30.962-30.962-17.073 0-30.962 13.89-30.962 30.962v16.578l9.662 12.883-36.963 14.479v23.775c-10.226-12.772-16.362-28.954-16.362-46.551 0-41.148 33.477-74.625 74.625-74.625 17.418 0 34.368 6.13 47.729 17.261l9.602-11.524c-11.77-9.805-25.861-16.365-40.786-19.174l49.351-49.352-10.606-10.606-58.458 58.458c-47.958 1.675-86.457 41.204-86.457 89.562 0 49.419 40.206 89.625 89.625 89.625s89.625-40.206 89.625-89.625zm-105.587-21.164c0-8.802 7.161-15.962 15.962-15.962s15.962 7.16 15.962 15.962v11.578l-10.328 13.77h-11.269l-10.327-13.77zm-27.301 81.911v-27.736l35.294-13.827h15.937l35.295 13.827v27.736c-12.214 8.724-27.143 13.878-43.263 13.878-16.119 0-31.049-5.155-43.263-13.878z"></path><path d="m512 256c0-20.918-7.365-41.278-20.737-57.331l-11.524 9.602c11.131 13.362 17.261 30.312 17.261 47.729 0 17.597-6.136 33.779-16.362 46.551v-23.775l-36.963-14.479 9.662-12.883v-16.578c0-17.072-13.89-30.962-30.962-30.962s-30.962 13.89-30.962 30.962v16.578l9.662 12.883-36.963 14.479v23.775c-10.226-12.772-16.362-28.954-16.362-46.551 0-41.148 33.477-74.625 74.625-74.625 17.418 0 34.369 6.13 47.729 17.261l9.602-11.524c-16.051-13.372-36.412-20.736-57.331-20.736-49.419 0-89.625 40.206-89.625 89.625 0 43.76 31.527 80.29 73.059 88.084l-49.33 49.331 10.606 10.606 58.458-58.458c47.958-1.677 86.457-41.206 86.457-89.564zm-105.587-21.164c0-8.802 7.161-15.962 15.962-15.962 8.802 0 15.962 7.16 15.962 15.962v11.578l-10.328 13.77h-11.27l-10.327-13.77v-11.578zm7.993 40.348h15.937l35.295 13.827v27.736c-12.214 8.724-27.143 13.878-43.263 13.878s-31.049-5.155-43.263-13.878v-27.736z"></path><path d="m279.987 213.604c-8.47-1.686-16.891.724-23.987 6.676-7.095-5.95-15.518-8.361-23.987-6.676-10.94 2.178-19.984 10.845-23.042 22.081-3.323 12.212.961 24.73 11.754 34.347l35.275 31.43 35.274-31.43c10.793-9.616 15.077-22.135 11.754-34.347-3.057-11.236-12.101-19.903-23.041-22.081zm1.309 45.229-25.296 22.539-25.296-22.539c-6.48-5.774-9.059-12.596-7.259-19.209 1.552-5.704 6.172-10.248 11.496-11.308.792-.158 1.582-.236 2.367-.236 4.514 0 8.884 2.59 12.761 7.599l5.931 7.665 5.931-7.665c4.551-5.88 9.779-8.428 15.128-7.362 5.324 1.06 9.944 5.604 11.496 11.308 1.799 6.612-.779 13.434-7.259 19.208z"></path><path d="m248.5 123.808h15v15.001h-15z"></path><path d="m414.875 290.183h15v15.001h-15z"></path><path d="m248.5 454.842h15v15h-15z"></path><path d="m82.125 288.467h15v15h-15z"></path></g></svg>