<svg xmlns="http://www.w3.org/2000/svg" id="Layer_1" data-name="Layer 1" viewBox="0 0 64 64" width="512" height="512"><rect x="31" y="26" width="2" height="5"></rect><rect x="25.76793" y="28.00009" width="1.99979" height="4.99981" transform="translate(-13.72664 27.86095) rotate(-45)"></rect><rect x="34.73227" y="29.50011" width="4.99981" height="1.99979" transform="translate(-10.66203 35.25706) rotate(-44.99604)"></rect><path d="M22.95654,4a7.00735,7.00735,0,0,1,5.74658,3.01221l.38917.55908,1.6416-1.14258-.38916-.55859A9.0073,9.0073,0,0,0,22.95654,2a8.00012,8.00012,0,0,0,0,16,9.0081,9.0081,0,0,0,7.38819-3.86963l4.95215-7.11865A7.00816,7.00816,0,0,1,41.04346,4a6.00016,6.00016,0,0,1,0,12,7.00735,7.00735,0,0,1-5.74658-3.01221l-.52833-.75927L33.127,13.37109l.52832.75879A9.0073,9.0073,0,0,0,41.04346,18a8.00012,8.00012,0,0,0,0-16,9.0081,9.0081,0,0,0-7.38819,3.86963l-4.95215,7.11865A7.00816,7.00816,0,0,1,22.95654,16a6.00016,6.00016,0,0,1,0-12Z"></path><circle cx="50" cy="39" r="1"></circle><circle cx="56" cy="39" r="1"></circle><circle cx="8" cy="39" r="1"></circle><circle cx="14" cy="39" r="1"></circle><path d="M58.36218,45.03662A7.76647,7.76647,0,0,0,61,39.209V36.791A7.8,7.8,0,0,0,53.209,29h-.418A7.8,7.8,0,0,0,45,36.791v2.418A7.76485,7.76485,0,0,0,47.59753,45H46.3457l-13.728-10.78613a.9989.9989,0,0,0-1.23536,0L17.6543,45H16.40247A7.76485,7.76485,0,0,0,19,39.209V36.791A7.8,7.8,0,0,0,11.209,29h-.418A7.8,7.8,0,0,0,3,36.791v2.418a7.76647,7.76647,0,0,0,2.63782,5.82764A4.991,4.991,0,0,0,1,50V62H3V50a3.00328,3.00328,0,0,1,3-3H18a.99839.99839,0,0,0,.61768-.21387L31,37.05768v3.50445l-12.67822,11.703A1.00009,1.00009,0,0,0,18,53v9h2V53.438L32,42.36084,44,53.438V62h2V53a1.00009,1.00009,0,0,0-.32178-.73486L33,40.56213V37.05768l12.38232,9.72845A.99839.99839,0,0,0,46,47H58a3.00328,3.00328,0,0,1,3,3V62h2V50A4.991,4.991,0,0,0,58.36218,45.03662ZM10.791,31h.418a5.79393,5.79393,0,0,1,5.07111,3H5.71991A5.79393,5.79393,0,0,1,10.791,31Zm.418,14h-.418A5.79735,5.79735,0,0,1,5,39.209V36.791A5.78876,5.78876,0,0,1,5.06055,36h11.8789A5.78876,5.78876,0,0,1,17,36.791v2.418A5.79735,5.79735,0,0,1,11.209,45ZM52.791,31h.418a5.79512,5.79512,0,0,1,5.41523,3.75708,6.92791,6.92791,0,0,1-3.23212-1.43335,1.00081,1.00081,0,0,0-1.04883-.19873,29.83744,29.83744,0,0,1-6.97137,1.64288A5.7951,5.7951,0,0,1,52.791,31Zm.418,14h-.418A5.79735,5.79735,0,0,1,47,39.209v-2.3916a34.37,34.37,0,0,0,7.52148-1.62256A10.27888,10.27888,0,0,0,59,36.84247V39.209A5.79735,5.79735,0,0,1,53.209,45Z"></path></svg>