<svg xmlns="http://www.w3.org/2000/svg" height="511pt" viewBox="0 0 511 511.98372" width="511pt"><path d="m133.335938 149.335938c-4.039063 2.15625-5.660157 7.113281-3.671876 11.238281 1.988282 4.121093 6.878907 5.941406 11.078126 4.121093 10.359374-5.011718 21.460937-8.328124 32.871093-9.820312 4.59375-.691406 7.792969-4.929688 7.195313-9.535156-.597656-4.605469-4.769532-7.890625-9.386719-7.386719-13.222656 1.730469-26.082031 5.574219-38.085937 11.382813zm0 0"></path><path d="m60.648438 366.742188c-4.710938 0-8.53125 3.820312-8.53125 8.53125v22.304687c.003906 11.183594 2.175781 22.253906 6.398437 32.609375 1.09375 2.898438 3.671875 4.976562 6.738281 5.429688 3.066406.453124 6.132813-.792969 8.019532-3.25 1.886718-2.460938 2.289062-5.746094 1.054687-8.589844-3.429687-8.484375-5.167969-17.558594-5.121094-26.710938v-21.792968c0-2.265626-.902343-4.441407-2.507812-6.042969-1.605469-1.601563-3.78125-2.496094-6.050781-2.488281zm0 0"></path><path d="m99.28125 195.324219c5.074219-5.402344 10.644531-10.316407 16.628906-14.6875 2.464844-1.792969 3.785156-4.765625 3.464844-7.796875-.320312-3.035156-2.234375-5.664063-5.019531-6.902344-2.789063-1.234375-6.023438-.894531-8.488281.902344-6.824219 4.984375-13.179688 10.589844-18.976563 16.742187-11.785156 12.230469-21.003906 26.703125-27.101563 42.554688-5.371093 13.722656-8.117187 28.332031-8.097656 43.066406v71.878906c0 4.710938 3.820313 8.53125 8.53125 8.53125 4.714844 0 8.535156-3.820312 8.535156-8.53125v-71.878906c-.015624-12.648437 2.34375-25.1875 6.953126-36.964844 5.308593-13.757812 13.324218-26.308593 23.570312-36.914062zm0 0"></path><path d="m207.261719 138.242188c-4.609375-.585938-8.839844 2.621093-9.519531 7.214843-.679688 4.59375 2.4375 8.890625 7.019531 9.664063 15.1875 2.238281 29.730469 7.671875 42.664062 15.941406 3.980469 2.527344 9.253907 1.355469 11.78125-2.625 2.527344-3.976562 1.355469-9.25-2.625-11.78125-14.953125-9.550781-31.765625-15.828125-49.320312-18.414062zm0 0"></path><path d="m189.296875 211.3125c-.472656-2.1875-1.804687-4.09375-3.699219-5.292969-1.894531-1.195312-4.1875-1.582031-6.367187-1.070312l-.921875.136719c-16.195313 2.433593-31.113282 10.207031-42.386719 22.082031-9.296875 10.25-14.847656 23.347656-15.742187 37.15625-.175782 1.414062-.246094 2.839843-.222657 4.265625v40.523437c0 16.105469 0 35.558594.09375 56.089844.132813 31.003906 14.730469 60.167969 39.464844 78.859375l5.640625 4.359375c68.847656 53.195313 69.027344 53.308594 69.703125 53.757813 3.875 2.453124 9 1.378906 11.570313-2.421876 2.601562-3.8125 1.703124-9.003906-2.03125-11.714843-1.757813-1.296875-34.320313-26.453125-68.796876-53.113281l-5.648437-4.359376c-20.660156-15.613281-32.8125-40.007812-32.835937-65.902343-.09375-20.0625-.09375-39.492188-.09375-55.570313v-40.523437c-.027344-.660157-.007813-1.324219.066406-1.980469.050781-.28125.085937-.566406.105468-.855469.605469-10.121093 4.660157-19.730469 11.492188-27.226562 8.726562-8.960938 20.15625-14.808594 32.53125-16.640625.332031 0 1.21875-.179688 1.542969-.257813 4.621093-1.082031 7.527343-5.660156 6.535156-10.300781zm0 0"></path><path d="m162.621094 330.414062c-4.710938 0-8.53125 3.820313-8.53125 8.53125v10.148438c0 30.847656 13.984375 60.035156 38.03125 79.359375 16.964844 13.714844 32.351562 26.105469 43.121094 34.746094.265624.269531.550781.515625.851562.746093l8.875 7.125c7.238281 5.816407 7.238281 5.816407 8.859375 6.355469 4.070313 1.367188 8.527344-.503906 10.398437-4.371093 1.871094-3.871094.574219-8.523438-3.027343-10.867188-.765625-.582031-2.671875-2.117188-5.539063-4.421875l-8.105468-6.503906c-.246094-.257813-.511719-.5-.792969-.722657-10.792969-8.671874-26.503907-21.335937-43.878907-35.347656-20.042968-16.089844-31.710937-40.398437-31.726562-66.097656v-10.148438c0-4.710937-3.820312-8.53125-8.535156-8.53125zm0 0"></path><path d="m69.949219 45.441406c1.367187.003906 2.714843-.324218 3.925781-.953125 50.835938-26.363281 109.316406-34.019531 165.222656-21.640625 4.601563 1.03125 9.167969-1.859375 10.199219-6.460937 1.03125-4.597657-1.859375-9.164063-6.460937-10.195313-59.832032-13.261718-122.417969-5.066406-176.820313 23.148438-3.484375 1.816406-5.28125 5.777344-4.347656 9.59375.933593 3.820312 4.351562 6.507812 8.28125 6.507812zm0 0"></path><path d="m308.988281 30.722656c-10.597656-5.699218-21.582031-10.648437-32.871093-14.8125-4.402344-1.550781-9.234376.722656-10.84375 5.105469-1.609376 4.378906.597656 9.238281 4.953124 10.910156 10.550782 3.871094 20.816407 8.476563 30.722657 13.78125 1.238281.675781 2.625 1.027344 4.035156 1.023438 3.875-.050781 7.226563-2.703125 8.167969-6.460938.9375-3.757812-.773438-7.679687-4.164063-9.546875zm0 0"></path><path d="m27.726562 121.253906c2.355469 0 4.609376-.972656 6.222657-2.6875 39.894531-43.03125 95.953125-67.433594 154.632812-67.3125 18.714844-.03125 37.347657 2.480469 55.390625 7.46875 4.539063 1.261719 9.246094-1.394531 10.507813-5.9375 1.261719-4.539062-1.394531-9.246094-5.933594-10.507812-19.53125-5.402344-39.703125-8.121094-59.964844-8.089844-63.394531-.144531-123.964843 26.207031-167.074219 72.6875-2.332031 2.480469-2.96875 6.109375-1.617187 9.234375s4.433594 5.144531 7.835937 5.144531zm0 0"></path><path d="m270.082031 58.199219c-1.933593 4.292969-.023437 9.34375 4.269531 11.28125 32.886719 14.84375 61.578126 37.621093 83.488282 66.289062 2.867187 3.742188 8.222656 4.453125 11.964844 1.585938 3.742187-2.863281 4.453124-8.222657 1.585937-11.964844-23.628906-30.910156-54.5625-55.472656-90.027344-71.480469-2.0625-.929687-4.414062-.996094-6.527343-.191406-2.117188.804688-3.828126 2.417969-4.753907 4.480469zm0 0"></path><path d="m82.699219 120.503906c16.167969-12.082031 34.292969-21.292968 53.582031-27.230468 4.503906-1.394532 7.023438-6.171876 5.632812-10.675782-1.394531-4.503906-6.171874-7.023437-10.675781-5.632812-21.152343 6.515625-41.023437 16.621094-58.753906 29.867187-3.769531 2.828125-4.535156 8.175781-1.707031 11.945313 2.828125 3.773437 8.179687 4.535156 11.949218 1.707031zm0 0"></path><path d="m6.464844 217.773438c.828125.257812 1.691406.394531 2.558594.402343 3.722656-.003906 7.015624-2.421875 8.132812-5.972656 8.023438-25.46875 21.5625-48.855469 39.652344-68.5 2.0625-2.242187 2.769531-5.417969 1.859375-8.328125-.914063-2.910156-3.308594-5.109375-6.285157-5.773438-2.976562-.664062-6.082031.3125-8.144531 2.558594-19.777343 21.472656-34.578125 47.046875-43.347656 74.894532-.683594 2.160156-.480469 4.503906.5625 6.515624 1.046875 2.011719 2.847656 3.523438 5.011719 4.203126zm0 0"></path><path d="m170.191406 69.625c-3.0625.308594-5.71875 2.238281-6.960937 5.054688-1.238281 2.8125-.867188 6.078124.972656 8.542968s4.867187 3.75 7.917969 3.359375c6.515625-.742187 13.066406-1.121093 19.625-1.132812 68.496094.820312 130.40625 40.988281 159.070312 103.199219 1.261719 2.820312 3.945313 4.738281 7.015625 5.015624 3.074219.28125 6.0625-1.121093 7.808594-3.664062 1.75-2.546875 1.984375-5.835938.621094-8.605469-31.472657-68.1875-99.382813-112.175781-174.480469-113.015625-7.214844.011719-14.421875.425782-21.589844 1.246094zm0 0"></path><path d="m48.394531 207.585938c26.125-55.519532 82.847657-90.101563 144.164063-87.894532 3.046875.082032 5.90625-1.46875 7.503906-4.070312 1.59375-2.601563 1.679688-5.851563.226562-8.535156-1.457031-2.679688-4.230468-4.378907-7.277343-4.460938-68.101563-2.351562-131.058594 36.078125-160.09375 97.722656-8.929688 18.894532-14.09375 39.34375-15.207031 60.210938-.070313 2.824218-.15625 5.734375-.15625 8.644531 0 19.125 0 29.371094.105468 30.464844.292969 4.488281 4.035156 7.964843 8.53125 7.929687h.410156c4.699219-.238281 8.320313-4.230468 8.097657-8.929687-.078125-2.242188-.078125-28.046875-.078125-29.464844 0-2.722656.085937-5.453125.164062-7.882813 1.015625-18.625 5.636719-36.875 13.609375-53.734374zm0 0"></path><path d="m278.121094 147.628906c3.714844 0 7.003906-2.402344 8.132812-5.945312 1.125-3.539063-.167968-7.402344-3.199218-9.550782-15.210938-10.808593-32.21875-18.832031-50.238282-23.695312l-3.105468-.769531c-2.953126-.761719-6.085938.109375-8.222657 2.285156s-2.949219 5.328125-2.132812 8.265625c.816406 2.9375 3.136719 5.214844 6.089843 5.980469l3.003907.742187c16.035156 4.339844 31.175781 11.492188 44.714843 21.117188 1.449219 1.027344 3.183594 1.578125 4.957032 1.570312zm0 0"></path><path d="m124.847656 459.652344 18.847656 14.683594c17.476563 13.65625 33.800782 26.335937 46.140626 35.839843 3.726562 2.886719 9.085937 2.203125 11.972656-1.527343 2.882812-3.726563 2.199218-9.085938-1.527344-11.972657-12.332031-9.53125-28.628906-22.234375-46.082031-35.839843l-18.882813-14.648438c-20.402344-15.550781-32.394531-39.722656-32.425781-65.375v-111.789062c0-3.492188.246094-6.984376.742187-10.441407 1.417969-10.925781 5.203126-21.410156 11.09375-30.722656 6.804688-10.816406 16.003907-19.929687 26.886719-26.632813 17.027344-10.507812 37.050781-15.089843 56.953125-13.027343 4.410156.441406 8.78125 1.222656 13.070313 2.335937 2.980469.839844 6.175781 0 8.359375-2.191406s3.011718-5.390625 2.160156-8.363281c-.847656-2.976563-3.238281-5.257813-6.25-5.964844-5.140625-1.328125-10.371094-2.265625-15.652344-2.800781-23.648437-2.414063-47.429687 3.035156-67.667968 15.507812-13.089844 8.070313-24.152344 19.039063-32.339844 32.058594-7.203125 11.351562-11.839844 24.132812-13.59375 37.460938-.601563 4.242187-.898438 8.515624-.898438 12.800781v112.195312c.136719 30.792969 14.582032 59.769531 39.09375 78.414063zm0 0"></path><path d="m338.894531 241.933594c-6.875-6.890625-15.15625-12.214844-24.277343-15.609375-13.542969-5.058594-28.339844-5.707031-42.273438-1.851563-11.335938 3.128906-21.667969 9.152344-29.976562 17.476563-1.125 1.117187-2.140626 2.234375-2.996094 3.269531-23.722656 27.007812-22.410156 67.792969 2.996094 93.226562 1.425781 1.445313 2.925781 2.816407 4.496093 4.101563 28.039063 23.152344 69.300781 20.265625 93.839844-6.5625 24.539063-26.832031 23.746094-68.1875-1.808594-94.050781zm-12.066406 84.476562c-18.851563 18.597656-48.730469 19.890625-69.117187 2.988282-1.140626-.9375-2.234376-1.933594-3.269532-2.988282-19.082031-19.128906-20.011718-49.796875-2.125-70.046875.691406-.855469 1.382813-1.589843 2.125-2.332031 6.226563-6.242188 13.96875-10.753906 22.46875-13.097656 4.445313-1.242188 9.039063-1.867188 13.652344-1.859375 6.175781-.003907 12.300781 1.105469 18.082031 3.265625 16.265625 6.132812 28.3125 20.09375 31.988281 37.082031 3.675782 16.988281-1.519531 34.683594-13.792968 46.988281zm0 0"></path><path d="m398.996094 360.433594-19.429688-19.753906c17.867188-31.542969 17.738282-70.179688-.347656-101.601563-18.082031-31.421875-51.421875-50.945313-87.675781-51.339844-27.460938-.167969-53.855469 10.648438-73.300781 30.042969-36.9375 36.613281-40.515626 95.117188-8.3125 135.957031 32.203124 40.839844 89.929687 51 134.144531 23.617188l19.132812 19.457031h-.042969c-6.519531 6.691406-6.519531 17.363281 0 24.054688l77.296876 78.566406c7.863281 8.027344 18.628906 12.550781 29.867187 12.550781 11.234375 0 22-4.523437 29.863281-12.550781 16.359375-16.777344 16.359375-43.535156 0-60.3125l-77.300781-78.558594c-6.640625-6.445312-17.1875-6.503906-23.894531-.128906zm-168.703125-10c-16.011719-15.976563-25.011719-37.664063-25.011719-60.285156 0-22.617188 9-44.308594 25.011719-60.28125 7.511719-7.570313 16.402343-13.628907 26.195312-17.851563 10.84375-4.746094 22.546875-7.199219 34.382813-7.210937h.527344c15.628906.140624 30.914062 4.609374 44.160156 12.902343 5.582031 3.4375 10.738281 7.519531 15.359375 12.167969 16.015625 15.972656 25.011719 37.660156 25.011719 60.277344 0 22.617187-8.996094 44.308594-25.011719 60.28125-3.664063 3.675781-7.664063 7.003906-11.945313 9.941406-33.839844 23.488281-79.660156 19.296875-108.679687-9.941406zm127.640625 16.65625c1.707031-1.484375 3.414062-2.96875 5.019531-4.574219 2.394531-2.386719 4.667969-4.890625 6.824219-7.472656l17.273437 17.550781-11.835937 12.023438zm130.089844 120.378906c-9.835938 9.628906-25.558594 9.628906-35.394532 0l-77.296875-78.675781 29.015625-29.703125c.214844-.128906.425782-.269532.628906-.421875.191407-.238281.359376-.492188.511719-.757813l5.257813-5.382812 77.296875 78.566406c9.855469 10.125 9.847656 26.261719-.019531 36.375zm0 0"></path></svg>