<svg xmlns="http://www.w3.org/2000/svg" id="Capa_1" height="512" viewBox="0 0 512.004 512.004" width="512"><g><path d="m492.487 344.905c-2.626-3.762-2.626-8.816 0-12.579l16.383-23.469c3.704-5.305 4.146-12.164 1.154-17.9-2.991-5.736-8.868-9.299-15.337-9.299h-33.061v-264.352c.001-9.543-7.763-17.306-17.305-17.306h-376.638c-9.542 0-17.306 7.763-17.306 17.306v264.353h-33.061c-6.469 0-12.346 3.563-15.337 9.299s-2.55 12.595 1.154 17.9l16.383 23.469c2.626 3.762 2.626 8.816 0 12.579l-16.382 23.469c-3.704 5.305-4.146 12.164-1.154 17.9 2.991 5.736 8.868 9.299 15.337 9.299h27.656v21.204c0 13.571 10.123 25.251 23.546 27.167 14.692 2.098 38.108 4.915 70.048 7.185 46.936 36.885 97.584 55.242 112.027 59.999 1.769.583 3.588.874 5.408.874 1.819 0 3.64-.292 5.409-.874 14.409-4.747 65.073-23.1 112.012-59.982.007-.006.013-.012.02-.018 31.937-2.27 55.35-5.087 70.041-7.185 13.424-1.917 23.547-13.596 23.547-27.167v-21.204h27.656c6.469 0 12.346-3.563 15.337-9.299s2.55-12.595-1.154-17.9zm-424.804-329.905h376.639c1.271 0 2.306 1.034 2.306 2.306v94.333h-46.416c-4.143 0-7.5 3.358-7.5 7.5s3.357 7.5 7.5 7.5h46.416v158.686c0 13.691-1.541 27.162-4.543 40.101-14.771 2.119-40.296 5.223-76.114 7.601l-19.358-59.971c-1.273-3.942-5.502-6.105-9.441-4.833-3.942 1.272-6.106 5.499-4.834 9.441l18.175 56.304c-26.685 1.48-58.236 2.503-94.509 2.503-24.285 0-47.846-.455-70.499-1.352l-46.425-143.822 149.773-48.345 33.07 102.452c1.272 3.942 5.499 6.103 9.441 4.833 3.942-1.272 6.106-5.499 4.834-9.441l-36.848-114.157h66.861c4.143 0 7.5-3.358 7.5-7.5s-3.357-7.5-7.5-7.5h-72.146c-2.225-4.074-5.608-7.392-9.831-9.553-5.554-2.844-11.885-3.354-17.821-1.437l-34.048 10.99h-166.988v-94.333c0-1.272 1.034-2.306 2.306-2.306zm64.088 153.656c-.687-2.125-.504-4.391.515-6.378 1.018-1.988 2.748-3.46 4.873-4.146l98.544-31.809c.07-.021.139-.044.209-.067l35.109-11.333c2.126-.687 4.391-.502 6.379.514 1.987 1.018 3.46 2.749 4.146 4.874l2.7 8.366-149.773 48.345zm-114.455 211.918c-1.212 0-1.797-.774-2.037-1.235s-.54-1.384.153-2.378l16.383-23.468c6.213-8.898 6.213-20.854 0-29.751l-16.383-23.469c-.693-.995-.394-1.917-.153-2.378.24-.461.825-1.235 2.037-1.235h33.396c.534 9.312 1.738 18.496 3.579 27.478-1.759.482-3.413 1.343-4.841 2.553-2.845 2.413-4.477 5.937-4.477 9.669v44.215h-27.657zm239.403 116.309c-.469.154-.966.154-1.433 0-11.965-3.941-49.833-17.62-88.93-44.057 25.706 1.323 55.591 2.208 89.646 2.208s63.941-.885 89.646-2.208c-39.109 26.444-76.991 40.124-88.929 44.057zm195.312-80.105c0 6.154-4.586 11.45-10.667 12.318-28.604 4.085-90.722 10.938-185.362 10.938s-156.759-6.853-185.362-10.938c-6.081-.868-10.667-6.164-10.667-12.318v-77.681c7.958 1.266 20.279 3.014 37.167 4.82 4.128.435 7.815-2.542 8.255-6.66.441-4.119-2.541-7.814-6.659-8.255-11.922-1.275-21.489-2.516-28.816-3.572-3.004-12.946-4.542-26.413-4.542-40.105v-158.686h120.518l-53.343 17.218c-5.938 1.917-10.774 6.031-13.618 11.585s-3.354 11.883-1.438 17.821l52.014 161.14c-12.728-.636-25.144-1.416-37.205-2.342-4.126-.325-7.734 2.774-8.052 6.904s2.773 7.735 6.903 8.052c38.486 2.954 80.489 4.452 124.845 4.452 107.637 0 174.467-8.955 196.029-12.374zm44.694-37.439c-.24.461-.825 1.235-2.037 1.235h-27.656v-44.215c0-3.732-1.632-7.256-4.477-9.668-1.427-1.21-3.08-2.072-4.838-2.554 1.84-8.979 3.046-18.164 3.579-27.477h33.392c1.212 0 1.797.774 2.037 1.235s.54 1.384-.153 2.378l-16.383 23.468c-6.213 8.898-6.213 20.854 0 29.751l16.383 23.469c.693.994.393 1.916.153 2.378z"></path><path d="m180.687 85.658c8.426 0 15.904-5.664 18.188-13.774 1.122-3.987-1.2-8.129-5.188-9.251-3.988-1.125-8.129 1.2-9.252 5.187-.47 1.671-2.012 2.838-3.748 2.838-1.04 0-2.02-.406-2.757-1.145-.732-.732-1.136-1.708-1.136-2.748v-14.13c0-2.141 1.746-3.883 3.893-3.883 1.04 0 2.017.403 2.746 1.133.477.476.824 1.067 1.006 1.71 1.131 3.985 5.277 6.297 9.263 5.168 3.984-1.13 6.299-5.277 5.169-9.262-.879-3.097-2.548-5.939-4.828-8.221-3.565-3.565-8.309-5.529-13.355-5.529-10.417 0-18.893 8.471-18.893 18.883v14.13c0 5.046 1.964 9.79 5.528 13.354 3.57 3.573 8.316 5.54 13.364 5.54z"></path><path d="m86.922 85.658h22.781c4.143 0 7.5-3.358 7.5-7.5s-3.357-7.5-7.5-7.5h-15.281v-3.453h10.27c4.143 0 7.5-3.358 7.5-7.5s-3.357-7.5-7.5-7.5h-10.27v-3.453h15.281c4.143 0 7.5-3.358 7.5-7.5s-3.357-7.5-7.5-7.5h-22.781c-4.143 0-7.5 3.358-7.5 7.5v36.906c0 4.142 3.357 7.5 7.5 7.5z"></path><path d="m123.68 84.54c1.228.758 2.588 1.119 3.933 1.119 2.515 0 4.971-1.265 6.389-3.562l5.009-8.114 5.009 8.114c1.418 2.297 3.874 3.562 6.389 3.562 1.344 0 2.705-.361 3.933-1.119 3.524-2.175 4.618-6.796 2.442-10.321l-8.959-14.514 8.959-14.514c2.176-3.525 1.082-8.146-2.442-10.321-3.524-2.176-8.145-1.083-10.321 2.442l-5.009 8.114-5.009-8.114c-2.177-3.526-6.798-4.619-10.321-2.442-3.524 2.175-4.618 6.796-2.442 10.321l8.959 14.514-8.959 14.514c-2.178 3.524-1.085 8.145 2.44 10.321z"></path><path d="m364.126 80.375c.981 3.18 3.916 5.284 7.159 5.284.372 0 .748-.028 1.126-.085 2.957-.446 5.292-2.583 6.088-5.339l11.347-36.774c1.221-3.958-.998-8.157-4.956-9.378-3.958-1.224-8.157.998-9.378 4.955l-4.223 13.688-4.227-13.689c-1.222-3.958-5.42-6.175-9.378-4.954-3.958 1.222-6.176 5.421-4.954 9.379z"></path><path d="m263.423 85.658c10.417 0 18.892-8.474 18.892-18.891v-25.516c0-4.142-3.357-7.5-7.5-7.5s-7.5 3.358-7.5 7.5v25.516c0 2.146-1.746 3.891-3.892 3.891s-3.891-1.745-3.891-3.891v-25.516c0-4.142-3.357-7.5-7.5-7.5s-7.5 3.358-7.5 7.5v25.516c0 10.417 8.475 18.891 18.891 18.891z"></path><path d="m210.343 85.658h22.475c4.143 0 7.5-3.358 7.5-7.5s-3.357-7.5-7.5-7.5h-14.975v-29.407c0-4.142-3.357-7.5-7.5-7.5s-7.5 3.358-7.5 7.5v36.906c0 4.143 3.357 7.501 7.5 7.501z"></path><path d="m402.309 85.658h22.782c4.143 0 7.5-3.358 7.5-7.5s-3.357-7.5-7.5-7.5h-15.282v-3.453h10.27c4.143 0 7.5-3.358 7.5-7.5s-3.357-7.5-7.5-7.5h-10.27v-3.453h15.282c4.143 0 7.5-3.358 7.5-7.5s-3.357-7.5-7.5-7.5h-22.782c-4.143 0-7.5 3.358-7.5 7.5v36.906c0 4.142 3.357 7.5 7.5 7.5z"></path><path d="m308.888 70.658h-13.556c-4.143 0-7.5 3.358-7.5 7.5s3.357 7.5 7.5 7.5h13.556c9.223 0 16.727-7.503 16.727-16.727s-7.504-16.727-16.727-16.727h-4.329c-.952 0-1.727-.774-1.727-1.727s.774-1.727 1.727-1.727h13.556c4.143 0 7.5-3.358 7.5-7.5s-3.357-7.5-7.5-7.5h-13.556c-9.223 0-16.727 7.503-16.727 16.727s7.504 16.727 16.727 16.727h4.329c.952 0 1.727.774 1.727 1.727s-.775 1.727-1.727 1.727z"></path><path d="m339.867 85.658c4.143 0 7.5-3.358 7.5-7.5v-36.907c0-4.142-3.357-7.5-7.5-7.5s-7.5 3.358-7.5 7.5v36.906c0 4.143 3.358 7.501 7.5 7.501z"></path><path d="m145.458 362.545c-11.328 0-20.545 9.216-20.545 20.545v16.175c0 11.329 9.217 20.545 20.545 20.545s20.545-9.216 20.545-20.545v-16.175c0-11.328-9.217-20.545-20.545-20.545zm5.545 36.721c0 3.058-2.487 5.545-5.545 5.545s-5.545-2.487-5.545-5.545v-16.176c0-3.058 2.487-5.545 5.545-5.545s5.545 2.487 5.545 5.545z"></path><path d="m281.882 421.51c4.143 0 7.5-3.358 7.5-7.5v-42.265c0-4.142-3.357-7.5-7.5-7.5s-7.5 3.358-7.5 7.5v42.265c0 4.142 3.357 7.5 7.5 7.5z"></path><path d="m207.188 364.245c-4.143 0-7.5 3.358-7.5 7.5v15.837l-12.208-19.777c-1.761-2.854-5.202-4.19-8.43-3.276-3.226.916-5.452 3.862-5.452 7.215v42.265c0 4.142 3.357 7.5 7.5 7.5s7.5-3.358 7.5-7.5v-15.837l12.208 19.776.006-.004c1.322 2.136 3.679 3.564 6.376 3.564 4.143 0 7.5-3.358 7.5-7.5v-42.265c0-4.14-3.357-7.498-7.5-7.498z"></path><path d="m305.542 421.51c4.143 0 7.5-3.358 7.5-7.5v-15.837l12.208 19.776.006-.004c1.322 2.136 3.679 3.564 6.376 3.564 4.143 0 7.5-3.358 7.5-7.5v-42.265c0-4.142-3.357-7.5-7.5-7.5s-7.5 3.358-7.5 7.5v15.837l-12.208-19.777c-1.761-2.854-5.202-4.19-8.43-3.276-3.226.916-5.452 3.862-5.452 7.215v42.265c0 4.144 3.357 7.502 7.5 7.502z"></path><path d="m238.541 371.745c0-4.142-3.357-7.5-7.5-7.5s-7.5 3.358-7.5 7.5v42.265c0 4.142 3.357 7.5 7.5 7.5h25.738c4.143 0 7.5-3.358 7.5-7.5s-3.357-7.5-7.5-7.5h-18.238z"></path><path d="m353.501 419.811h26.09c4.143 0 7.5-3.358 7.5-7.5s-3.357-7.5-7.5-7.5h-18.59v-6.132h12.85c4.143 0 7.5-3.358 7.5-7.5s-3.357-7.5-7.5-7.5h-12.85v-6.133h18.59c4.143 0 7.5-3.358 7.5-7.5s-3.357-7.5-7.5-7.5h-26.09c-4.143 0-7.5 3.358-7.5 7.5v42.265c0 4.142 3.357 7.5 7.5 7.5z"></path><path d="m247.495 270.995 17.154.505c4.247.133 8.293-1.853 10.802-5.293 2.509-3.439 3.16-7.889 1.741-11.903l-5.719-16.18 5.781-16.159c1.435-4.009.8-8.461-1.695-11.91-2.496-3.449-6.549-5.455-10.781-5.333l-17.156.439-13.581-10.492c-3.369-2.602-7.8-3.376-11.851-2.067-4.052 1.308-7.193 4.525-8.404 8.605l-4.885 16.452-14.175 9.675c-3.516 2.4-5.62 6.375-5.628 10.632-.009 4.257 2.08 8.239 5.587 10.652l14.137 9.729 4.821 16.469c1.195 4.086 4.324 7.315 8.37 8.639 1.313.43 2.667.64 4.013.64 2.8 0 5.564-.913 7.847-2.662zm-25.025-19.421c-.485-1.656-1.525-3.093-2.946-4.071l-13.812-9.505 13.849-9.452c1.424-.973 2.471-2.407 2.961-4.06l4.772-16.073 13.269 10.25c1.364 1.055 3.05 1.598 4.776 1.563l16.762-.429-5.648 15.787c-.581 1.624-.585 3.399-.01 5.025l5.587 15.809-16.759-.493c-1.728-.066-3.414.494-4.782 1.543l-13.309 10.198z"></path><path d="m282.821 294.384-50.312 16.24c-3.942 1.272-6.106 5.499-4.834 9.441 1.025 3.176 3.969 5.198 7.136 5.198.764 0 1.54-.118 2.306-.365l50.312-16.24c3.942-1.272 6.106-5.499 4.834-9.441-1.273-3.942-5.502-6.106-9.442-4.833z"></path></g></svg>