<svg xmlns="http://www.w3.org/2000/svg" height="512" viewBox="0 0 520 520" width="512"><g id="_x38_94-Adjust_x2C__User_Interface"><g><circle cx="100" cy="50" r="10"></circle><circle cx="110" cy="190" r="10"></circle><circle cx="380" cy="170" r="10"></circle><circle cx="260" cy="190" r="10"></circle><circle cx="410" cy="350" r="10"></circle><circle cx="200" cy="320" r="10"></circle><circle cx="350" cy="480" r="10"></circle><circle cx="350" cy="60" r="10"></circle><path d="m75 150h35.271c11.567 18.023 31.769 30 54.729 30s43.162-11.977 54.729-30h215.271c19.299 0 35-15.701 35-35s-15.701-35-35-35h-215.271c-11.567-18.023-31.769-30-54.729-30s-43.162 11.977-54.729 30h-35.271c-19.299 0-35 15.701-35 35s15.701 35 35 35zm360-50c8.271 0 15 6.729 15 15s-6.729 15-15 15h-206.767c2.354-9.919 2.357-20.067 0-30zm-270-30c24.813 0 45 20.187 45 45s-20.187 45-45 45-45-20.187-45-45 20.187-45 45-45zm-90 30h26.767c-2.354 9.919-2.357 20.067 0 30h-26.767c-8.271 0-15-6.729-15-15s6.729-15 15-15z"></path><path d="m435 230h-35.271c-11.566-18.023-31.769-30-54.729-30s-43.162 11.977-54.729 30h-215.271c-19.299 0-35 15.701-35 35s15.701 35 35 35h215.271c11.566 18.023 31.769 30 54.729 30s43.162-11.977 54.729-30h35.271c19.299 0 35-15.701 35-35s-15.701-35-35-35zm-360 50c-8.271 0-15-6.729-15-15s6.729-15 15-15h206.767c-2.354 9.918-2.357 20.067 0 30zm270 30c-24.813 0-45-20.187-45-45s20.187-45 45-45 45 20.187 45 45-20.187 45-45 45zm90-30h-26.767c2.354-9.918 2.357-20.067 0-30h26.767c8.271 0 15 6.729 15 15s-6.729 15-15 15z"></path><path d="m435 380h-215.271c-11.567-18.023-31.769-30-54.729-30s-43.162 11.977-54.729 30h-35.271c-19.299 0-35 15.701-35 35s15.701 35 35 35h35.271c11.567 18.023 31.769 30 54.729 30s43.162-11.977 54.729-30h215.271c19.299 0 35-15.701 35-35s-15.701-35-35-35zm-360 50c-8.271 0-15-6.729-15-15s6.729-15 15-15h26.767c-2.354 9.918-2.357 20.068 0 30zm90 30c-24.813 0-45-20.187-45-45s20.187-45 45-45 45 20.187 45 45-20.187 45-45 45zm270-30h-206.767c2.354-9.918 2.357-20.068 0-30h206.767c8.271 0 15 6.729 15 15s-6.729 15-15 15z"></path><path d="m80 370c16.542 0 30-13.458 30-30s-13.458-30-30-30-30 13.458-30 30 13.458 30 30 30zm0-40c5.514 0 10 4.486 10 10s-4.486 10-10 10-10-4.486-10-10 4.486-10 10-10z"></path><path d="m465 160c-19.299 0-35 15.701-35 35s15.701 35 35 35 35-15.701 35-35-15.701-35-35-35zm0 50c-8.271 0-15-6.729-15-15s6.729-15 15-15 15 6.729 15 15-6.729 15-15 15z"></path></g></g></svg>