<svg xmlns="http://www.w3.org/2000/svg" id="Layer_1_1_" height="512" viewBox="0 0 64 64" width="512"><path d="m37.151 29.831-2.927-.447-1.318-2.809c-.165-.35-.518-.575-.906-.575s-.741.225-.905.575l-1.318 2.809-2.927.447c-.371.057-.678.315-.797.671s-.029.747.232 1.016l2.147 2.201-.509 3.12c-.062.378.098.758.411.979.314.221.724.243 1.06.058l2.606-1.441 2.606 1.44c.152.084.318.125.484.125.202 0 .404-.062.576-.183.313-.221.473-.601.411-.979l-.509-3.12 2.147-2.201c.262-.269.352-.66.232-1.016s-.426-.613-.796-.67zm-3.367 2.853c-.222.228-.322.546-.271.859l.259 1.586-1.288-.712c-.151-.083-.317-.125-.484-.125s-.333.042-.484.125l-1.288.712.259-1.586c.051-.313-.049-.632-.271-.859l-1.141-1.169 1.531-.234c.33-.05.613-.262.754-.563l.64-1.364.64 1.363c.142.302.425.514.754.563l1.531.234z"></path><path d="m32 21c-6.065 0-11 4.935-11 11s4.935 11 11 11 11-4.935 11-11-4.935-11-11-11zm0 20c-4.962 0-9-4.037-9-9s4.038-9 9-9 9 4.037 9 9-4.038 9-9 9z"></path><path d="m6 1c-2.757 0-5 2.243-5 5s2.243 5 5 5c1.017 0 1.962-.309 2.753-.833l13.54 13.54 1.414-1.414-13.54-13.54c.524-.791.833-1.736.833-2.753 0-2.757-2.243-5-5-5zm0 8c-1.654 0-3-1.346-3-3s1.346-3 3-3 3 1.346 3 3-1.346 3-3 3z"></path><path d="m58 1c-2.757 0-5 2.243-5 5 0 1.017.309 1.962.833 2.753l-13.54 13.54 1.414 1.414 13.54-13.54c.791.524 1.736.833 2.753.833 2.757 0 5-2.243 5-5s-2.243-5-5-5zm0 8c-1.654 0-3-1.346-3-3s1.346-3 3-3 3 1.346 3 3-1.346 3-3 3z"></path><path d="m58 53c-1.017 0-1.962.309-2.753.833l-13.54-13.54-1.414 1.414 13.54 13.54c-.524.791-.833 1.736-.833 2.753 0 2.757 2.243 5 5 5s5-2.243 5-5-2.243-5-5-5zm0 8c-1.654 0-3-1.346-3-3s1.346-3 3-3 3 1.346 3 3-1.346 3-3 3z"></path><path d="m8 28c-2.206 0-4 1.794-4 4s1.794 4 4 4c1.858 0 3.411-1.279 3.858-3h7.142v-2h-7.142c-.447-1.721-2-3-3.858-3zm0 6c-1.103 0-2-.897-2-2s.897-2 2-2 2 .897 2 2-.897 2-2 2z"></path><path d="m56 36c2.206 0 4-1.794 4-4s-1.794-4-4-4c-1.858 0-3.411 1.279-3.858 3h-7.142v2h7.142c.447 1.721 2 3 3.858 3zm0-6c1.103 0 2 .897 2 2s-.897 2-2 2-2-.897-2-2 .897-2 2-2z"></path><path d="m33 52.142v-7.142h-2v7.142c-1.72.447-3 1.999-3 3.858 0 2.206 1.794 4 4 4s4-1.794 4-4c0-1.859-1.28-3.411-3-3.858zm-1 5.858c-1.103 0-2-.897-2-2s.897-2 2-2 2 .897 2 2-.897 2-2 2z"></path><path d="m22.293 40.293-13.54 13.54c-.791-.524-1.736-.833-2.753-.833-2.757 0-5 2.243-5 5s2.243 5 5 5 5-2.243 5-5c0-1.017-.309-1.962-.833-2.753l13.54-13.54zm-16.293 20.707c-1.654 0-3-1.346-3-3s1.346-3 3-3 3 1.346 3 3-1.346 3-3 3z"></path><path d="m33 19v-7.142c1.72-.447 3-1.999 3-3.858 0-2.206-1.794-4-4-4s-4 1.794-4 4c0 1.859 1.28 3.411 3 3.858v7.142zm-3-11c0-1.103.897-2 2-2s2 .897 2 2-.897 2-2 2-2-.897-2-2z"></path></svg>