<svg xmlns="http://www.w3.org/2000/svg" id="Capa_1" height="512" viewBox="0 0 511.99 511.99" width="512"><g><path d="m465.05 405.927v-122.193c15.32-3.431 26.808-17.131 26.808-33.471v-38.289c0-16.34-11.486-30.039-26.806-33.471v-138.093c0-22.282-18.133-40.41-40.42-40.41h-336.019c-14.63 0-28.154 7.936-35.297 20.71-2.021 3.615-.729 8.185 2.887 10.206 3.614 2.021 8.185.729 10.207-2.887 4.493-8.036 13.001-13.029 22.203-13.029h336.02c14.017 0 25.42 11.399 25.42 25.41v137.257h-25.027c-.815-10.302-5.61-19.915-13.458-26.74-7.199-6.269-16.421-9.721-25.967-9.721-2.981 0-5.949.337-8.838.995-2.896-11.997-11.292-22.14-23.005-27.125-4.941-2.092-10.144-3.153-15.462-3.153-6.881 0-13.657 1.835-19.584 5.195-2.079-3.562-4.715-6.796-7.837-9.589-5.959-5.344-13.324-8.709-21.249-9.726-1.665-.226-3.399-.34-5.153-.34-10.519 0-20.491 4.227-27.801 11.452-7.318-7.238-17.294-11.472-27.809-11.472-1.621 0-3.265.103-5.083.322-7.953 1.022-15.315 4.374-21.297 9.699-3.131 2.795-5.773 6.032-7.856 9.598-5.937-3.372-12.721-5.213-19.608-5.213-5.32 0-10.51 1.059-15.414 3.141-11.724 4.956-20.133 15.085-23.042 27.09-2.59-.595-5.249-.921-7.917-.986l-7.594-34.668c-1.935-8.832-9.309-14.765-18.35-14.764-9.04 0-16.414 5.934-18.348 14.764l-8.369 38.208c-.315 1.438-1.448 2.571-2.887 2.886l-9.906 2.17v-92.7c0-4.142-3.357-7.5-7.5-7.5s-7.5 3.358-7.5 7.5v95.986l-13.301 2.914c-8.831 1.934-14.765 9.308-14.765 18.349 0 6.876 3.438 12.781 8.968 16.068-4.883 5.989-7.71 13.573-7.71 21.667v38.289c0 16.34 11.487 30.04 26.808 33.471v122.191c-15.322 3.431-26.811 17.132-26.811 33.474v38.28c0 18.918 15.392 34.31 34.311 34.31h401.85c18.924 0 34.32-15.392 34.32-34.31v-38.279c.001-16.34-11.488-30.04-26.812-33.473zm-299.593-277.124c3.051-1.296 6.269-1.953 9.563-1.953 6.51 0 12.871 2.646 17.452 7.26 1.894 1.907 4.662 2.656 7.262 1.96 2.597-.695 4.623-2.728 5.311-5.326 1.237-4.675 3.807-8.855 7.422-12.082 3.709-3.302 8.283-5.383 13.169-6.011 1.157-.14 2.214-.208 3.229-.208 8.76 0 16.923 4.748 21.302 12.391 1.337 2.333 3.819 3.771 6.508 3.771h.003c2.689-.001 5.172-1.442 6.507-3.776 4.363-7.627 12.521-12.365 21.29-12.365 1.084 0 2.141.069 3.193.211 4.947.635 9.51 2.717 13.202 6.028 3.62 3.239 6.188 7.42 7.425 12.093.688 2.599 2.714 4.631 5.311 5.326 2.591.694 5.367-.052 7.261-1.96 4.569-4.601 10.923-7.239 17.432-7.239 3.298 0 6.532.662 9.601 1.961 9.096 3.87 14.973 12.758 14.973 22.643 0 .254-.01.518-.018.772-.086 2.683 1.268 5.207 3.55 6.619 2.284 1.413 5.146 1.497 7.509.222 3.557-1.919 7.599-2.934 11.69-2.934 5.925 0 11.648 2.143 16.119 6.036 4.572 3.976 7.474 9.476 8.236 15.424h-224.978c.194-1.11.298-2.254.298-3.429 0-9.041-5.934-16.415-14.766-18.349l-20.067-4.396c0-.013-.001-.027-.001-.04.002-9.904 5.888-18.793 15.012-22.649zm-127.356 41.739 38.207-8.369c7.142-1.563 12.767-7.188 14.33-14.329l8.369-38.208c.566-2.587 2.559-2.974 3.695-2.974 1.138 0 3.13.386 3.697 2.974l8.369 38.207c1.563 7.141 7.188 12.766 14.329 14.33l38.207 8.369c2.588.567 2.975 2.559 2.975 3.696s-.387 3.129-2.975 3.696l-38.207 8.369h-.001c-7.141 1.564-12.765 7.189-14.328 14.329l-8.368 38.208c-.567 2.588-2.56 2.974-3.697 2.974s-3.129-.386-3.695-2.974l-8.369-38.207c-1.563-7.14-7.188-12.765-14.33-14.33l-38.207-8.369c-2.587-.567-2.974-2.559-2.974-3.696s.386-3.129 2.973-3.696zm-1.716 79.721v-38.289c0-7.098 3.849-13.503 9.956-16.879l26.757 5.861c1.439.315 2.572 1.448 2.888 2.887l8.369 38.207c1.934 8.831 9.308 14.765 18.348 14.765h.001c9.04 0 16.414-5.933 18.349-14.764l8.369-38.208c.315-1.438 1.448-2.571 2.887-2.886h-.001l37.83-8.287h287.415c.008 0 .015-.001.023-.001 10.635.014 19.282 8.668 19.282 19.306v38.289c0 10.646-8.661 19.307-19.308 19.307h-123.591l-12.423-38.232c-5.156-15.87-19.833-26.533-36.52-26.533h-56.791c-16.687 0-31.363 10.663-36.52 26.533l-12.423 38.232h-123.589c-10.647-.001-19.308-8.662-19.308-19.308zm233.99 99.264c-8.228 5.977-19.28 5.977-27.508 0l-45.945-33.381c-8.227-5.978-11.643-16.49-8.5-26.161l17.55-54.012c3.143-9.671 12.086-16.168 22.254-16.168h56.791c10.168 0 19.111 6.498 22.254 16.168l17.55 54.011c3.142 9.671-.274 20.184-8.5 26.161zm206.488 128.153c0 10.647-8.667 19.31-19.32 19.31h-401.85c-10.647 0-19.311-8.663-19.311-19.31v-38.28c0-10.647 8.663-19.31 19.311-19.31h345.399c4.143 0 7.5-3.358 7.5-7.5s-3.357-7.5-7.5-7.5h-337.899v-120.52h111.217l-.253.78c-5.156 15.87.449 33.123 13.949 42.932l45.945 33.381c6.75 4.904 14.66 7.356 22.57 7.356s15.82-2.452 22.57-7.356l45.945-33.382c13.499-9.808 19.105-27.061 13.949-42.931l-.253-.78h111.218v120.52h-15.817c-4.143 0-7.5 3.358-7.5 7.5s3.357 7.5 7.5 7.5h23.31c10.653 0 19.32 8.663 19.32 19.31z"></path><path d="m277.276 287.13c6.262-5.973 9.951-14.342 9.951-23.171 0-17.639-14.351-31.99-31.989-31.99-17.64 0-31.99 14.351-31.99 31.99 0 8.83 3.689 17.198 9.952 23.171l-13.423 23.249c-1.34 2.32-1.34 5.18 0 7.5s3.815 3.75 6.495 3.75h57.932c2.68 0 5.155-1.43 6.495-3.75s1.34-5.18 0-7.5zm-16.29 1.785 10.228 17.714h-31.951l10.228-17.714c2.07-3.585.844-8.169-2.739-10.242-5.245-3.034-8.503-8.672-8.503-14.714 0-9.368 7.622-16.99 16.99-16.99s16.989 7.622 16.989 16.99c0 6.042-3.258 11.68-8.502 14.714-3.584 2.074-4.809 6.657-2.74 10.242z"></path><path d="m396.406 52.493-27.015 27.016c-2.929 2.929-2.929 7.678.001 10.606 1.464 1.465 3.384 2.197 5.303 2.197s3.839-.732 5.304-2.197l27.015-27.016c2.929-2.929 2.929-7.678-.001-10.606-2.929-2.93-7.678-2.929-10.607 0z"></path><path d="m339.825 62.655c2.552 0 5.04-1.303 6.444-3.653l12.082-20.213c2.125-3.556.966-8.161-2.59-10.286-3.553-2.125-8.16-.966-10.285 2.589l-12.082 20.213c-2.125 3.556-.966 8.161 2.59 10.286 1.205.722 2.531 1.064 3.841 1.064z"></path><path d="m397.911 123.519c1.405 2.351 3.894 3.655 6.446 3.655 1.309 0 2.634-.342 3.839-1.062l20.219-12.076c3.556-2.124 4.717-6.729 2.594-10.285-2.125-3.556-6.729-4.717-10.285-2.593l-20.219 12.076c-3.556 2.124-4.717 6.729-2.594 10.285z"></path><path d="m138.585 92.312c1.919 0 3.839-.732 5.304-2.197 2.929-2.929 2.929-7.678 0-10.606l-27.016-27.016c-2.93-2.929-7.678-2.929-10.607 0s-2.929 7.678 0 10.606l27.016 27.016c1.465 1.464 3.385 2.197 5.303 2.197z"></path><path d="m173.456 62.655c1.31 0 2.636-.343 3.842-1.063 3.555-2.125 4.714-6.73 2.589-10.286l-12.083-20.213c-2.125-3.556-6.729-4.714-10.286-2.589-3.555 2.125-4.714 6.73-2.589 10.286l12.083 20.213c1.404 2.35 3.892 3.652 6.444 3.652z"></path></g></svg>