<svg xmlns="http://www.w3.org/2000/svg" id="Capa_1" height="512" viewBox="0 0 512.003 512.003" width="512"><g><path d="m502.063.012c-145.912-1.14-272.218 77.055-360.301 194.618-37.739-17.625-83.133-9.957-113.022 19.932-3.903 3.904-3.905 10.237 0 14.143l80.718 80.718-15.023 53.382c-.98 3.482-.003 7.222 2.555 9.78l42.43 42.431c2.571 2.571 6.32 3.53 9.78 2.555l53.381-15.024c8.681 8.681 72.097 72.098 80.718 80.719 3.904 3.903 10.238 3.904 14.143 0 29.896-29.897 37.562-75.294 19.922-113.029 32.429-24.29 76.426-62.834 114.332-115.55 3.224-4.484 2.203-10.732-2.281-13.957-4.483-3.223-10.732-2.202-13.957 2.281-39.15 54.447-85.144 93.238-116.836 116.195-32.821 23.791-57.56 36.184-69.576 41.521-9.628-9.628-40.693-40.693-51.813-51.813l56.569-56.569c3.905-3.905 3.905-10.237 0-14.143-3.904-3.904-10.237-3.904-14.142 0l-56.569 56.569c-37.414-37.415 3.303 3.292-51.812-51.813 31.823-71.651 132.76-204.948 283.314-248.274 3.319 20.643 13.002 39.745 27.99 54.742 14.989 14.98 34.085 24.662 54.72 27.984-4.812 16.7-10.814 33.261-17.941 49.37-2.234 5.051.049 10.957 5.1 13.191 5.061 2.236 10.959-.055 13.19-5.1 23.961-54.166 34.733-109.689 34.339-164.93-.039-5.467-4.461-9.89-9.928-9.929zm-201.302 382.176c10.834 26.399 6.707 56.826-10.832 79.42l-45.806-45.807c17.008-8.177 36.949-20 56.638-33.613zm-175.089-56.553c6.358 6.358 54.26 54.261 60.696 60.696l-36.948 10.398-34.146-34.147zm-29.469-57.753-45.807-45.806c22.588-17.535 53.012-21.664 79.413-10.841-13.604 19.681-25.424 39.626-33.606 56.647zm386.165-169.924c-17.223-2.356-33.201-10.24-45.644-22.676-12.438-12.445-20.323-28.423-22.679-45.647 25.386-5.857 51.504-9.071 77.889-9.566-.496 26.385-3.71 52.506-9.566 77.889z"></path><path d="m268.09 144.921c-27.326 27.325-27.329 71.664 0 98.992 27.324 27.324 71.664 27.329 98.992 0 27.326-27.325 27.329-71.664 0-98.992-27.324-27.324-71.664-27.328-98.992 0zm84.85 84.85c-19.509 19.51-51.197 19.511-70.707 0-19.509-19.507-19.512-51.198 0-70.707 19.509-19.51 51.196-19.511 70.708 0 19.508 19.507 19.511 51.198-.001 70.707z"></path><circle cx="446.279" cy="209.975" r="10"></circle><path d="m54.557 400.875c-12.278 12.288-46.765 82.762-53.554 96.765-1.858 3.832-1.085 8.422 1.927 11.434 3.028 3.027 7.623 3.776 11.434 1.927 14.003-6.789 84.477-41.276 96.766-53.554.001-.001.002-.002.003-.003 15.597-15.597 15.597-40.976 0-56.572-15.632-15.633-40.932-15.643-56.576.003zm42.436 42.423c-5.502 5.497-35.852 21.862-64.835 36.547 14.686-28.982 31.05-59.332 36.544-64.831 7.819-7.82 20.466-7.823 28.288 0 7.798 7.798 7.799 20.486.003 28.284z"></path></g></svg>