<svg xmlns="http://www.w3.org/2000/svg" id="Capa_1" height="512" viewBox="0 0 512 512" width="512"><g><path d="m393.69 414.433-9.57-32.437h-14.053l-11.211 62.298 14.763 2.657 5.314-29.528 8.242 27.936h13.439l7.834-28.001 5.804 29.684 14.722-2.879-12.162-62.191-14.056.053z"></path><path d="m169.729 381.068v64.865h32.475v-15h-17.475v-49.865z"></path><path d="m153.273 396.482v-15h-35.836v64.451h35.836v-15h-20.836v-9.725h19.3v-15h-19.3v-9.726z"></path><path d="m245.635 396.047c3.498 0 6.871 1.029 9.753 2.977l6.215 4.198 8.397-12.43-6.214-4.199c-5.372-3.629-11.648-5.547-18.15-5.547-17.895 0-32.453 14.559-32.453 32.453 0 17.895 14.559 32.454 32.453 32.454 8.584 0 16.208-3.454 21.467-9.725l4.819-5.747-11.493-9.639-4.819 5.747c-2.428 2.896-5.784 4.364-9.974 4.364-9.624 0-17.453-7.83-17.453-17.454-.001-9.623 7.829-17.452 17.452-17.452z"></path><path d="m72.075 382.23-13.47-.018-8.348 28.866-6.053-30.601-14.715 2.911 12.383 62.601 13.931-.095 9.523-32.93 9.522 33.022 13.922-.096 12.419-62.4-14.711-2.928-6.079 30.537z"></path><path d="m282.641 413.5c0 17.895 14.559 32.453 32.453 32.453s32.453-14.559 32.453-32.453-14.559-32.453-32.453-32.453-32.453 14.558-32.453 32.453zm49.906 0c0 9.624-7.83 17.453-17.453 17.453s-17.453-7.83-17.453-17.453 7.83-17.453 17.453-17.453 17.453 7.829 17.453 17.453z"></path><path d="m481.198 396.482v-15h-35.836v64.451h35.836v-15h-20.836v-9.725h19.3v-15h-19.3v-9.726z"></path><path d="m489.5 334.75h-91v-315h-285v315h-91c-12.407 0-22.5 10.093-22.5 22.5v112.5c0 12.406 10.093 22.5 22.5 22.5h399.5v-15h-399.5c-4.135 0-7.5-3.364-7.5-7.5v-112.5c0-4.135 3.365-7.5 7.5-7.5h467c4.135 0 7.5 3.365 7.5 7.5v112.5c0 4.135-3.365 7.5-7.5 7.5h-22.5v15h22.5c12.407 0 22.5-10.093 22.5-22.5v-112.5c0-12.407-10.093-22.5-22.5-22.5zm-361-300h255v300h-15v-285h-225v52.499h15v-32.864l60 30v200.731l-60 29.999v-212.866h-15v217.501h-15zm54.272 30h146.457l-50.729 25.364v219.271l50.729 25.364h-146.458l50.729-25.364v-219.271zm170.728 4.635v260.729l-60-30v-200.729z"></path><path d="m437 477.25h15v15h-15z"></path><path d="m188.501 207.25h15v22.5h-15z"></path><path d="m308.499 207.25h15v22.5h-15z"></path><path d="m323.5 102.249h15v15h-15z"></path><path d="m323.5 132.25h15v15h-15z"></path></g></svg>