<?xml version="1.0" encoding="utf-8"?>
<!-- Generator: Adobe Illustrator 25.3.1, SVG Export Plug-In . SVG Version: 6.00 Build 0)  -->
<svg version="1.1" id="Layer_1" xmlns="http://www.w3.org/2000/svg" xmlns:xlink="http://www.w3.org/1999/xlink" x="0px" y="0px"
	 viewBox="0 0 500 500" style="enable-background:new 0 0 500 500;" xml:space="preserve">
<style type="text/css">
	.st0{display:none;fill:#FEFEFE;}
	.st1{fill:#D6302B;}
	.st2{fill:#D5372F;}
	.st3{fill:#D5362F;}
</style>
<g>
	<path class="st0" d="M-67.17-63.31c211.45,0,422.89,0,634.34,0c0,211.45,0,422.89,0,634.34c-211.45,0-422.89,0-634.34,0
		C-67.17,359.58-67.17,148.13-67.17-63.31z M246.22,473.82c0.91,0.16,1.82,0.32,2.73,0.48c1.26-3.05,3.18-6,3.67-9.17
		c3.09-20.07,5.82-40.18,8.75-60.28c2.79-19.16,10.43-33.31,30.79-40.6c34.65-12.4,58.09-37.6,68.77-72.83
		c5.01-16.52,16.28-22.81,30.79-25.97c10.91-2.38,22.2-3.01,33.27-4.75c14.21-2.23,28.37-4.79,42.56-7.2
		c-0.01-1.02-0.02-2.03-0.03-3.05c-4.56-1.2-9.05-2.81-13.68-3.54c-20.75-3.24-41.65-5.61-62.27-9.52
		c-14.99-2.84-26.11-10.22-31.85-26.51c-12.89-36.59-38.97-60.92-76.1-72.39c-8.65-2.67-14.33-7.01-17.08-15.06
		c-2.25-6.58-4.06-13.4-5.1-20.27c-3.99-26.3-7.57-52.65-11.4-78.97c-0.1-0.71-1.31-1.26-1.93-1.82
		c-4.55,30.31-8.59,60.5-13.86,90.46c-1.83,10.41-5.34,21.05-17.93,24.78c-38.93,11.53-65.63,36.58-79.11,74.74
		c-4.65,13.15-13.38,20.49-25.69,23.51c-13.21,3.25-26.88,4.65-40.37,6.77c-17.17,2.7-34.35,5.31-51.53,7.95
		c2.71,2.19,5.3,3.04,7.96,3.44c24.94,3.73,49.91,7.21,74.82,11.11c16.38,2.57,28.77,9.04,34.52,27.1
		c11.67,36.6,36.51,61.62,73.17,74c14.77,4.99,21.85,15.86,24.26,30.01C238.75,422.05,242.31,447.97,246.22,473.82z M225.48,49.51
		C126.86,57.72,50.3,147.35,48.08,226.75c1.29,0.14,2.66,0.55,3.95,0.39c5.9-0.74,12.02-0.92,17.58-2.77
		c3.06-1.02,6.96-4.66,7.42-7.6c5.53-34.88,22.22-63.91,46.58-88.63c26.76-27.15,58.94-44.45,97.67-49.69
		C222.64,69.04,223.99,59.78,225.48,49.51z M449.56,227.69c11.09-71.32-110.69-192.18-177.44-176.16c1.42,9.13,2.85,18.32,4.29,27.6
		c4.74,0.48,8.6,0.57,12.34,1.28c64.23,12.22,121.78,72.21,131.67,136.87c0.39,2.52,2.59,6.33,4.57,6.77
		C433.05,225.86,441.36,226.58,449.56,227.69z M47.52,275.3c-4.97,77.8,109.41,191.45,176.8,176.19
		c-1.02-6.87-1.42-13.95-3.34-20.59c-0.86-2.97-4.43-6.68-7.35-7.29c-52.92-11.02-92.77-40.19-118.44-87.36
		c-9.51-17.48-14.88-37.23-22.65-57.27C66.1,278.04,57.12,276.72,47.52,275.3z M450.22,276.52c-1.1-0.53-1.43-0.84-1.71-0.8
		c-6.91,0.89-13.99,1.18-20.64,3.04c-3.02,0.84-6.95,4.49-7.44,7.38c-7.56,44.83-31.49,79.37-66.86,106.47
		c-22.49,17.23-47.91,28.38-76.4,31.86c-1.53,9.83-2.96,18.97-4.41,28.27C357.79,448.74,443.6,369.08,450.22,276.52z"/>
	<path class="st1" d="M246.22,473.82c-3.91-25.86-7.47-51.77-11.86-77.54c-2.41-14.15-9.49-25.03-24.26-30.01
		c-36.66-12.38-61.5-37.4-73.17-74c-5.76-18.06-18.14-24.53-34.52-27.1c-24.91-3.91-49.88-7.39-74.82-11.11
		c-2.66-0.4-5.25-1.25-7.96-3.44c17.18-2.65,34.36-5.25,51.53-7.95c13.48-2.12,27.15-3.53,40.37-6.77
		c12.3-3.02,21.04-10.36,25.69-23.51c13.48-38.16,40.18-63.21,79.11-74.74c12.59-3.73,16.1-14.37,17.93-24.78
		c5.28-29.96,9.31-60.15,13.86-90.46c0.62,0.56,1.83,1.11,1.93,1.82c3.83,26.32,7.41,52.68,11.4,78.97
		c1.04,6.86,2.85,13.69,5.1,20.27c2.75,8.05,8.43,12.39,17.08,15.06c37.13,11.47,63.2,35.8,76.1,72.39
		c5.74,16.28,16.86,23.67,31.85,26.51c20.62,3.91,41.52,6.28,62.27,9.52c4.63,0.72,9.13,2.33,13.68,3.54
		c0.01,1.02,0.02,2.03,0.03,3.05c-14.18,2.42-28.34,4.97-42.56,7.2c-11.07,1.74-22.35,2.37-33.27,4.75
		c-14.51,3.16-25.79,9.46-30.79,25.97c-10.68,35.23-34.12,60.43-68.77,72.83c-20.36,7.29-28,21.44-30.79,40.6
		c-2.93,20.09-5.66,40.21-8.75,60.28c-0.49,3.17-2.41,6.12-3.67,9.17C248.04,474.14,247.13,473.98,246.22,473.82z"/>
	<path class="st2" d="M225.48,49.51c-1.49,10.27-2.84,19.52-4.21,28.95c-38.73,5.24-70.91,22.54-97.67,49.69
		c-24.36,24.72-41.05,53.74-46.58,88.63c-0.47,2.94-4.36,6.58-7.42,7.6c-5.55,1.85-11.68,2.03-17.58,2.77
		c-1.29,0.16-2.65-0.25-3.95-0.39C50.3,147.35,126.86,57.72,225.48,49.51z"/>
	<path class="st2" d="M449.56,227.69c-8.19-1.11-16.5-1.83-24.58-3.62c-1.97-0.44-4.18-4.25-4.57-6.77
		c-9.89-64.66-67.44-124.66-131.67-136.87c-3.74-0.71-7.6-0.81-12.34-1.28c-1.44-9.28-2.87-18.47-4.29-27.6
		C338.87,35.51,460.64,156.38,449.56,227.69z"/>
	<path class="st3" d="M47.52,275.3c9.6,1.41,18.57,2.73,25.03,3.68c7.77,20.04,13.13,39.79,22.65,57.27
		c25.67,47.17,65.52,76.33,118.44,87.36c2.92,0.61,6.49,4.32,7.35,7.29c1.92,6.64,2.33,13.72,3.34,20.59
		C156.94,466.76,42.56,353.1,47.52,275.3z"/>
	<path class="st2" d="M450.22,276.52c-6.63,92.56-92.44,172.23-177.47,176.22c1.45-9.3,2.88-18.44,4.41-28.27
		c28.49-3.48,53.92-14.63,76.4-31.86c35.37-27.11,59.29-61.65,66.86-106.47c0.49-2.89,4.42-6.54,7.44-7.38
		c6.65-1.85,13.73-2.14,20.64-3.04C448.79,275.68,449.12,275.99,450.22,276.52z"/>
</g>
</svg>
