<svg xmlns="http://www.w3.org/2000/svg" xmlns:xlink="http://www.w3.org/1999/xlink" id="Layer_1" x="0px" y="0px" viewBox="0 0 500 500" style="enable-background:new 0 0 500 500;" xml:space="preserve">
<style type="text/css">
	.st0{display:none;fill:#FFFFFF;}
	.st1{fill:#F7D8AB;}
</style>
<g>
	<path class="st0" d="M-118.24,618.24c0-245.49,0-490.99,0-736.48c245.49,0,490.99,0,736.48,0c0,245.49,0,490.99,0,736.48   C372.75,618.24,127.25,618.24-118.24,618.24z M472.97,90.4c-1.12-1.36-2.23-2.71-3.35-4.07c-18.44,13.5-36.88,26.99-55.11,40.34   c61.15,95.65,54.03,184.69-17.41,266.68c17.9,18.19,35.47,36.06,52.8,53.67c0.02-0.24,0.42-1.45,0.13-2.46   c-3.02-10.52-6.76-20.89-8.98-31.57c-1.13-5.45-1.78-13.12,1.1-16.97c36.83-49.14,51.49-104.72,48.11-165.22   c-1.48-26.45-8.4-52.18-20.2-76.04c-13.82-27.96-14.31-27.71-0.49-56.7C470.78,95.54,471.84,92.95,472.97,90.4z M104.39,106.05   c-15.96-16.77-31.3-32.9-46.65-49.03c-1.44,0.94-2.87,1.89-4.31,2.83c2.6,10.75,5.43,21.44,7.67,32.26   c0.64,3.12,0.64,7.2-0.87,9.79c-6.73,11.52-14.22,22.6-21.26,33.94c-17.92,28.89-26.09,61.24-29.06,94.33   c-4.31,47.99,5.81,93.78,29.46,136.05c4.53,8.09,4.75,14.7,0.32,22.75c-5.03,9.14-8.73,19.01-13.01,28.56   c0.93,0.52,1.85,1.03,2.78,1.55c19.33-14.6,38.66-29.2,57.96-43.78C20.23,281.87,37.35,177.46,104.39,106.05z M90.28,31.02   c-0.73,1.17-1.46,2.34-2.19,3.51c10.3,14.46,20.74,28.82,30.84,43.42c4.95,7.15,9.34,7.21,17.11,2.94   c17.2-9.45,34.75-18.99,53.26-25.16c30.84-10.29,61.99-16.13,95.4-7.61c38.58,9.85,74.4,23.47,103.36,51.51   c6.05,5.86,10.15,6.49,16.05,0.1c9.14-9.91,19.03-19.12,28.52-28.72c5.55-5.61,10.92-11.39,16.37-17.1   c-0.62-0.95-1.25-1.89-1.87-2.84c-10.62,3.57-21.11,7.65-31.93,10.46c-4.82,1.25-11.77,1.96-15.27-0.55   c-28.89-20.72-59.48-36.95-94.91-43.67c-30.41-5.76-60.56-6.61-91.41-3.42c-33.15,3.43-62.69,15.23-88.84,30.6   C112.26,39.61,101.27,35.31,90.28,31.02z M61.93,442.54c0.18,1.24,0.36,2.49,0.54,3.73c4.26-0.32,8.82,0.2,12.74-1.12   c15.08-5.09,28.65-7.86,42.26,5.49c8.13,7.97,19.78,12.82,30.51,17.58c44.81,19.89,90.7,27.65,140.12,18.4   c25-4.68,48.69-10.81,70.86-22.54c11.23-5.94,20.95-8.09,32.34-0.41c5.98,4.03,13.77,5.38,22.63,8.63   c-1.64-5.45-1.8-8.62-3.36-10.76c-10.33-14.1-21.03-27.94-31.48-41.96c-4.85-6.5-9.3-3.78-14.51-0.32   c-37.47,24.9-78.32,38.99-123.76,36.72c-11.55-0.58-22.92-4.49-34.48-5.21c-24.34-1.52-43.79-14.21-63.29-26.56   c-11.23-7.11-21.09-16.35-32-24.02c-2.14-1.5-7.64-1.6-9.21-0.01C88.22,414,75.16,428.35,61.93,442.54z M231.96,112.93   c-4.89-0.24-8.8-1.46-11.97-0.43c-25.74,8.37-50.17,17.42-70.01,38.66c-15.09,16.16-26.27,33.41-33.85,53.24   c-9.37,24.53-1.97,33.05,24.46,30.42c0.75-0.07,1.44-0.65,1.82-0.83c11.78-49.68,42.41-79.98,93.54-91.81   C234.68,132.8,233.39,123.42,231.96,112.93z M359.73,235.44c6.95-0.65,13.71-1.14,20.44-1.94c7.27-0.87,11.67-3.53,7.85-12.07   c-8.2-18.39-13.78-38.46-24.8-54.92c-9.26-13.82-24.07-24.32-37.57-34.8c-15.72-12.2-34.17-18.84-55.24-21.79   c-1.49,11.55-2.86,22.11-4.24,32.86C317.82,153.62,347.89,184.68,359.73,235.44z M142.13,267.24c-7.69,1.02-13.29,2.52-18.83,2.32   c-10.7-0.37-13.72,3.54-10.94,14.01c12.58,47.38,41.65,80.19,86.76,98.66c9.73,3.98,20.36,5.75,30.67,8.56   c2.38-11.42,4.17-20,5.88-28.23C185.58,347.2,152.2,317.97,142.13,267.24z M361.8,267.17c-6.28,14.26-11.07,27.98-18.08,40.46   c-13.86,24.69-35.16,40.66-62.5,48.24c-13.46,3.73-18.11,14.01-11.2,27.66c1.43,2.83,7.04,5.94,9.93,5.3   c53.98-11.94,102.08-57.45,108.48-116.23C379.22,270.73,369.93,268.83,361.8,267.17z"></path>
	<path class="st1" d="M472.97,90.4c-1.13,2.55-2.19,5.14-3.39,7.65c-13.82,28.99-13.33,28.74,0.49,56.7   c11.79,23.86,18.71,49.59,20.2,76.04c3.39,60.5-11.28,116.07-48.11,165.22c-2.89,3.85-2.23,11.52-1.1,16.97   c2.22,10.68,5.96,21.05,8.98,31.57c0.29,1.01-0.11,2.22-0.13,2.46c-17.33-17.62-34.9-35.48-52.8-53.67   c71.43-82,78.56-171.03,17.41-266.68c18.23-13.34,36.67-26.84,55.11-40.34C470.74,87.68,471.85,89.04,472.97,90.4z"></path>
	<path class="st1" d="M104.39,106.05c-67.04,71.4-84.16,175.82-16.98,269.26c-19.3,14.58-38.63,29.18-57.96,43.78   c-0.93-0.52-1.85-1.03-2.78-1.55c4.28-9.55,7.98-19.43,13.01-28.56c4.44-8.05,4.21-14.67-0.32-22.75   C15.72,323.95,5.6,278.16,9.91,230.17c2.97-33.09,11.14-65.44,29.06-94.33c7.04-11.34,14.52-22.42,21.26-33.94   c1.51-2.59,1.52-6.67,0.87-9.79c-2.24-10.82-5.07-21.52-7.67-32.26c1.44-0.94,2.87-1.89,4.31-2.83   C73.09,73.15,88.43,89.28,104.39,106.05z"></path>
	<path class="st1" d="M90.28,31.02c10.99,4.3,21.97,8.59,34.51,13.5c26.15-15.37,55.68-27.17,88.84-30.6   c30.86-3.2,61-2.35,91.41,3.42c35.43,6.71,66.02,22.95,94.91,43.67c3.5,2.51,10.44,1.8,15.27,0.55   c10.82-2.81,21.3-6.89,31.93-10.46c0.62,0.95,1.25,1.89,1.87,2.84c-5.45,5.7-10.83,11.48-16.37,17.1   c-9.48,9.6-19.37,18.81-28.52,28.72c-5.9,6.39-10,5.76-16.05-0.1c-28.97-28.04-64.78-41.66-103.36-51.51   c-33.41-8.53-64.57-2.68-95.4,7.61c-18.51,6.18-36.06,15.71-53.26,25.16c-7.77,4.27-12.17,4.21-17.11-2.94   c-10.1-14.6-20.54-28.96-30.84-43.42C88.82,33.36,89.55,32.19,90.28,31.02z"></path>
	<path class="st1" d="M61.93,442.54c13.23-14.19,26.29-28.54,39.9-42.35c1.57-1.6,7.07-1.5,9.21,0.01   c10.91,7.67,20.77,16.92,32,24.02c19.5,12.34,38.95,25.04,63.29,26.56c11.56,0.72,22.93,4.64,34.48,5.21   c45.44,2.27,86.29-11.82,123.76-36.72c5.22-3.47,9.67-6.18,14.51,0.32c10.45,14.02,21.15,27.86,31.48,41.96   c1.56,2.14,1.72,5.3,3.36,10.76c-8.86-3.25-16.65-4.6-22.63-8.63c-11.39-7.68-21.11-5.53-32.34,0.41   c-22.17,11.73-45.86,17.85-70.86,22.54c-49.42,9.25-95.31,1.49-140.12-18.4c-10.73-4.76-22.38-9.61-30.51-17.58   c-13.61-13.35-27.18-10.58-42.26-5.49c-3.93,1.33-8.48,0.8-12.74,1.12C62.29,445.03,62.11,443.79,61.93,442.54z"></path>
	<path class="st1" d="M231.96,112.93c1.43,10.49,2.71,19.87,4,29.26c-51.13,11.82-81.76,42.13-93.54,91.81   c-0.38,0.18-1.08,0.76-1.82,0.83c-26.43,2.62-33.84-5.89-24.46-30.42c7.58-19.83,18.76-37.09,33.85-53.24   c19.84-21.24,44.27-30.29,70.01-38.66C223.17,111.47,227.07,112.69,231.96,112.93z"></path>
	<path class="st1" d="M359.73,235.44c-11.83-50.76-41.91-81.83-93.56-92.67c1.39-10.75,2.75-21.31,4.24-32.86   c21.07,2.96,39.53,9.6,55.24,21.79c13.51,10.48,28.32,20.98,37.57,34.8c11.02,16.46,16.59,36.53,24.8,54.92   c3.81,8.54-0.59,11.21-7.85,12.07C373.44,234.3,366.68,234.8,359.73,235.44z"></path>
	<path class="st1" d="M142.13,267.24c10.07,50.74,43.45,79.96,93.54,95.33c-1.72,8.23-3.5,16.81-5.88,28.23   c-10.31-2.81-20.95-4.58-30.67-8.56c-45.11-18.47-74.18-51.28-86.76-98.66c-2.78-10.47,0.24-14.38,10.94-14.01   C128.84,269.75,134.44,268.25,142.13,267.24z"></path>
	<path class="st1" d="M361.8,267.17c8.13,1.66,17.42,3.55,26.62,5.43c-6.4,58.78-54.5,104.29-108.48,116.23   c-2.88,0.64-8.49-2.47-9.93-5.3c-6.91-13.65-2.26-23.93,11.2-27.66c27.35-7.58,48.64-23.55,62.5-48.24   C350.73,295.15,355.52,281.43,361.8,267.17z"></path>
</g>
</svg>