<svg xmlns="http://www.w3.org/2000/svg" viewBox="0 0 512 512" width="512" height="512"><g id="OUTLINE"><path d="M472,280.09766H440a24.03765,24.03765,0,0,0-22.6239,16H394.81885a7.96963,7.96963,0,0,1-2.73389-.48194l-54.01465-19.6416A65.81475,65.81475,0,0,0,312,272.13086v-.0332H218.59668a23.95851,23.95851,0,0,0-7.58984,1.23193l-67.06055,22.353a7.475,7.475,0,0,1-2.543.41064l-46.80859-.08179A24.03856,24.03856,0,0,0,72,280.09766H40a24.02687,24.02687,0,0,0-24,24v112a24.02687,24.02687,0,0,0,24,24H72a24.02687,24.02687,0,0,0,24-24v-.07325l20.82715.06372c.47754.57154.97949,1.12964,1.51611,1.66626a24.87129,24.87129,0,0,0,16.70886,7.27979,24.95219,24.95219,0,0,0,24.00025,24.01111,24.98884,24.98884,0,0,0,33.16833,22.64,24.97511,24.97511,0,0,0,34.84473,14.79126l3.27783,3.27783a24.957,24.957,0,0,0,40.481-7.54284,24.97582,24.97582,0,0,0,40.97436-10.53211,25.03,25.03,0,0,0,25.85816-5.925,24.80818,24.80818,0,0,0,6.12622-10.08007,24.962,24.962,0,0,0,31.85132-31.61487l14.73877-.036a39.87888,39.87888,0,0,0,22.09033-6.71778L416,414.948v1.14966a24.02687,24.02687,0,0,0,24,24h32a24.02687,24.02687,0,0,0,24-24v-112A24.02687,24.02687,0,0,0,472,280.09766Zm-392,136a8.00917,8.00917,0,0,1-8,8H40a8.00917,8.00917,0,0,1-8-8v-112a8.00916,8.00916,0,0,1,8-8H72a8.00916,8.00916,0,0,1,8,8Zm56-7.0293a8.97073,8.97073,0,0,1-6.34326-15.314l16-16a8.97073,8.97073,0,0,1,12.68652,12.68653l-16,16A8.9123,8.9123,0,0,1,136,409.06836Zm24,24a8.97073,8.97073,0,0,1-6.34326-15.314l16-16,8-8a8.97073,8.97073,0,0,1,12.68652,12.68653l-24,24A8.9123,8.9123,0,0,1,160,433.06836Zm30.34326,21.37256a8.97073,8.97073,0,0,1-12.68652-12.68653l24-24a8.97073,8.97073,0,0,1,12.68652,12.68653l-16,16Zm32,16a8.97073,8.97073,0,0,1-12.68652-12.68653l16-16a8.97073,8.97073,0,0,1,12.68652,12.68653Zm32,8a8.982,8.982,0,0,1-12.68652,0l-2.34326-2.34326,10.34326-10.34327a25.03284,25.03284,0,0,0,2.1831-2.50341l2.50342,2.50341A8.98112,8.98112,0,0,1,254.34326,478.44092Zm104-40a8.982,8.982,0,0,1-12.68652,0l-8-8-52-52-11.31348,11.31347,52,52a8.97073,8.97073,0,1,1-12.68652,12.68653l-8-8-36-36-11.31348,11.31347,36,36a8.97073,8.97073,0,0,1-12.68652,12.68653l-16-16-8.82178-8.82178a24.91393,24.91393,0,0,0-23.88708-22.458A24.95219,24.95219,0,0,0,208.94763,399.15a24.98884,24.98884,0,0,0-33.16833-22.64,24.95308,24.95308,0,0,0-41.436-10.06909l-16,16a24.89062,24.89062,0,0,0-7.30151,17.62939L96,400.02441V312.01392l45.37549.07934h.041a23.94965,23.94965,0,0,0,7.58985-1.23193l67.06006-22.353a7.99037,7.99037,0,0,1,2.53027-.41064h53.70679L221.835,330.15479a30.53471,30.53471,0,1,0,39.0957,46.91455L287.509,354.92017l70.83423,70.83422A8.98112,8.98112,0,0,1,358.34326,438.44092ZM416,395.71863l-12.41162,8.274a23.92646,23.92646,0,0,1-13.25391,4.03076l-27.029.06616-41.19287-41.19287a58.40593,58.40593,0,0,0,38.2229-12.82251l4.66211-3.72949-9.99512-12.49414-4.66211,3.72949a42.51749,42.51749,0,0,1-56.68359-3.13916l-5.166-5.166L250.6875,364.77734a14.53412,14.53412,0,1,1-18.60938-22.33056l51.42823-42.85694a50.16485,50.16485,0,0,1,49.09619-8.57861l54.01269,19.64063a23.91618,23.91618,0,0,0,8.20362,1.4458H416Zm64,20.379a8.00917,8.00917,0,0,1-8,8H440a8.00917,8.00917,0,0,1-8-8v-112a8.00916,8.00916,0,0,1,8-8h32a8.00916,8.00916,0,0,1,8,8Z"></path><path d="M136,240h-8v16H384V240h-8V153.88855l11.04346-22.08728L296,95.38379V72a40.06761,40.06761,0,0,0-32-39.19507V16H248V32.80493A40.06761,40.06761,0,0,0,216,72V95.38379l-91.04346,36.41748L136,153.88855Zm32,0H152V160h16Zm32,0H184V160h16Zm32,0H216V160h16Zm32,0H248V160h16Zm32,0H280V160h16Zm32,0H312V160h16Zm32,0H344V160h16ZM232,72a24,24,0,0,1,48,0V88.98383l-24-9.6-24,9.6Zm24,24.61621,108.95654,43.58252L363.05566,144H148.94434l-1.90088-3.80127Z"></path></g></svg>