<?xml version="1.0" encoding="utf-8"?>
<!-- Generator: Adobe Illustrator 25.3.1, SVG Export Plug-In . SVG Version: 6.00 Build 0)  -->
<svg version="1.1" id="Layer_1" xmlns="http://www.w3.org/2000/svg" xmlns:xlink="http://www.w3.org/1999/xlink" x="0px" y="0px"
	 viewBox="0 0 500 500" style="enable-background:new 0 0 500 500;" xml:space="preserve">
<style type="text/css">
	.st0{display:none;fill:#FEFDFE;}
	.st1{fill:#942B8F;}
	.st2{fill:#95338F;}
	.st3{fill:#953490;}
	.st4{fill:#95348F;}
	.st5{fill:#953590;}
	.st6{fill:#963B90;}
	.st7{fill:#963990;}
	.st8{fill:#963890;}
	.st9{fill:#963790;}
</style>
<g>
	<path class="st0" d="M-64.87-64.87c209.85,0,419.69,0,629.74,0c0,209.76,0,419.58,0,629.74c-209.78,0-419.76,0-629.74,0
		C-64.87,355.12-64.87,145.16-64.87-64.87z M25.66,246.17c0.16,0.93,0.32,1.87,0.48,2.8c1.29,0.44,2.54,1.1,3.86,1.3
		c25.13,3.71,50.29,7.2,75.39,11.09c15.12,2.34,26.04,7.97,31.48,25.17c11.11,35.11,35.53,59.56,70.41,71.83
		c16.32,5.74,24.14,16.77,26.91,32.42c2.79,15.76,4.58,31.7,6.95,47.53c1.8,12.01,3.82,24,5.75,35.99c2.56-4.27,3.27-8.37,3.9-12.47
		c4.01-25.78,7.62-51.62,12.17-77.31c2.23-12.61,9-20.92,22.74-25.2c36.12-11.25,60.72-36.16,73.23-71.52
		c6.11-17.28,18.25-23.65,34.01-26.3c19.2-3.23,38.55-5.56,57.8-8.44c7.1-1.06,14.12-2.62,23.63-4.41
		c-14.03-2.86-25.16-5.47-36.43-7.33c-15.46-2.55-31.06-4.23-46.5-6.84c-14.87-2.51-27.02-7.34-32.19-24.65
		c-10.78-36.08-35.88-60.17-70.79-72.72c-16.13-5.8-23.74-16.45-26.39-31.6c-4.76-27.2-8.58-54.56-12.79-81.86
		c-3.68,7.21-4.92,14.52-5.99,21.86c-2.96,20.31-5.55,40.67-8.88,60.92c-2.44,14.83-8.72,25.21-25.38,30.37
		c-34.13,10.58-58.65,34.08-70.48,67.75c-7.22,20.55-20.86,27.72-40.1,30.41C74.14,238.35,49.92,242.4,25.66,246.17z M123.14,89.72
		c7.64,5.56,15.3,11.14,22.72,16.55c18.53-14.78,43.74-25.62,67.85-30.01c2.78-0.51,6.88-2.78,7.42-4.96
		c1.94-7.89,2.62-16.09,3.79-24.22C196.32,45.23,135.43,71.8,123.14,89.72z M271.83,45.89c0.25,3.59,0.36,5.27,0.49,6.95
		c1.55,20.26,1.9,19.3,20.55,25.96c20.06,7.16,39.38,16.36,60.66,25.36c5.14-3.99,12.58-9.78,20.66-16.05
		C343.27,64.58,310.4,50.29,271.83,45.89z M275.22,420.69c-1.47,9.86-2.83,18.94-4.4,29.47c38.9-5.35,72.99-18.07,103.08-43.39
		c-8.92-6.56-16.13-11.87-23.45-17.26C327.96,406.17,303.14,416.28,275.22,420.69z M46.13,270.36c3.8,38.93,18.32,72.33,42.4,103.76
		c6.77-9.15,12.44-16.81,17.88-24.17c-17.69-22.69-26.96-47.82-31.31-74.89C65.53,273.51,56.67,272.07,46.13,270.36z M389.69,145.25
		c16.93,23.79,23.82,40.16,30.03,70.31c0.42,2.03,2.01,5.15,3.48,5.41c8.63,1.55,17.39,2.4,27.01,3.59
		c-5.36-38.9-18.55-72.59-42.98-102.95C400.68,130.44,395.15,137.9,389.69,145.25z M224.1,449.77c-1.16-9.81-1.89-18.04-3.31-26.15
		c-0.29-1.67-3.01-3.88-4.86-4.15c-26.03-3.76-49.05-14.53-70.55-30c-7.69,5.68-15.36,11.34-23.97,17.71
		C151.99,430.94,185.07,444.72,224.1,449.77z M88.61,121.29c-23.89,31.17-37.96,64.13-42.45,103.11c11.11-1.65,20.23-3,29.4-4.36
		c3.91-28.05,14.26-52.63,30.86-74.84C100.68,137.49,95.13,130.04,88.61,121.29z M407.26,374.28
		c23.95-30.81,38.13-64.11,42.7-102.98c-10.6,1.46-19.44,2.68-27.57,3.81c-4.29,13.52-7.51,26.73-12.67,39.14
		c-5.26,12.64-12.42,24.5-19.08,37.35C395.25,357.9,400.57,365.15,407.26,374.28z M141.3,332.95
		c-18.59,25.21-35.85,48.63-53.1,72.04c0.7,0.89,1.4,1.78,2.1,2.67c23.97-17.51,47.94-35.02,71.36-52.12
		C154.82,347.95,148.54,340.98,141.3,332.95z M162.17,140.33c-23.77-17.19-46.73-33.8-69.7-50.4c-0.92,0.92-1.85,1.84-2.77,2.75
		c17.08,23.12,34.16,46.23,51.71,69.99C148.71,154.81,155,148.05,162.17,140.33z M355.63,162.02
		c16.96-23.65,32.96-45.98,48.96-68.31c-0.9-1.03-1.8-2.06-2.7-3.09c-22.74,16.74-45.49,33.48-68.81,50.64
		C340.83,148.4,347.68,154.71,355.63,162.02z M334.1,355.13c18.71,13.89,36.03,27.09,53.77,39.69c4.59,3.26,10.53,4.63,15.84,6.89
		c0.26,0.11,0.42,0.43,0.63,0.66c0.08-0.11,0.15-0.22,0.15-0.21c-16.41-22.91-32.8-45.79-49.59-69.22
		C347.71,340.61,341.32,347.42,334.1,355.13z"/>
	<path class="st1" d="M25.66,246.17c24.26-3.77,48.48-7.82,72.79-11.22c19.24-2.69,32.88-9.87,40.1-30.41
		c11.83-33.67,36.35-57.17,70.48-67.75c16.66-5.16,22.94-15.54,25.38-30.37c3.33-20.25,5.92-40.61,8.88-60.92
		c1.07-7.34,2.31-14.65,5.99-21.86c4.21,27.3,8.03,54.66,12.79,81.86c2.65,15.15,10.26,25.8,26.39,31.6
		c34.92,12.55,60.01,36.65,70.79,72.72c5.17,17.31,17.33,22.14,32.19,24.65c15.45,2.61,31.05,4.28,46.5,6.84
		c11.26,1.86,22.4,4.48,36.43,7.33c-9.5,1.79-16.53,3.35-23.63,4.41c-19.26,2.89-38.6,5.22-57.8,8.44
		c-15.76,2.65-27.9,9.02-34.01,26.3c-12.51,35.36-37.11,60.27-73.23,71.52c-13.74,4.28-20.51,12.59-22.74,25.2
		c-4.54,25.68-8.16,51.53-12.17,77.31c-0.64,4.1-1.34,8.2-3.9,12.47c-1.92-12-3.95-23.98-5.75-35.99
		c-2.37-15.84-4.16-31.77-6.95-47.53c-2.77-15.66-10.59-26.68-26.91-32.42c-34.88-12.27-59.3-36.72-70.41-71.83
		c-5.44-17.19-16.36-22.83-31.48-25.17c-25.1-3.89-50.26-7.38-75.39-11.09c-1.32-0.2-2.58-0.85-3.86-1.3
		C25.98,248.03,25.82,247.1,25.66,246.17z"/>
	<path class="st2" d="M123.14,89.72c12.29-17.92,73.18-44.49,101.78-42.64c-1.16,8.14-1.85,16.33-3.79,24.22
		c-0.54,2.18-4.64,4.45-7.42,4.96c-24.11,4.39-49.32,15.23-67.85,30.01C138.44,100.87,130.78,95.28,123.14,89.72z"/>
	<path class="st2" d="M271.83,45.89c38.57,4.4,71.44,18.69,102.36,42.22c-8.07,6.27-15.52,12.05-20.66,16.05
		c-21.28-9-40.6-18.2-60.66-25.36c-18.65-6.66-19-5.7-20.55-25.96C272.19,51.16,272.08,49.48,271.83,45.89z"/>
	<path class="st3" d="M275.22,420.69c27.92-4.41,52.74-14.52,75.23-31.18c7.32,5.39,14.54,10.7,23.45,17.26
		c-30.1,25.32-64.18,38.03-103.08,43.39C272.39,439.63,273.74,430.55,275.22,420.69z"/>
	<path class="st4" d="M46.13,270.36c10.53,1.71,19.4,3.15,28.97,4.7c4.35,27.07,13.61,52.19,31.31,74.89
		c-5.44,7.36-11.11,15.01-17.88,24.17C64.45,342.69,49.93,309.29,46.13,270.36z"/>
	<path class="st3" d="M389.69,145.25c5.46-7.35,10.99-14.81,17.54-23.64c24.43,30.36,37.61,64.05,42.98,102.95
		c-9.62-1.2-18.38-2.05-27.01-3.59c-1.47-0.26-3.06-3.38-3.48-5.41C413.52,185.42,406.62,169.04,389.69,145.25z"/>
	<path class="st5" d="M224.1,449.77c-39.04-5.05-72.11-18.83-102.69-42.6c8.62-6.36,16.29-12.03,23.97-17.71
		c21.49,15.48,44.51,26.24,70.55,30c1.85,0.27,4.57,2.49,4.86,4.15C222.21,431.73,222.94,439.96,224.1,449.77z"/>
	<path class="st3" d="M88.61,121.29c6.52,8.75,12.07,16.2,17.82,23.91c-16.61,22.21-26.96,46.79-30.86,74.84
		c-9.18,1.36-18.29,2.71-29.4,4.36C50.65,185.42,64.73,152.46,88.61,121.29z"/>
	<path class="st3" d="M407.26,374.28c-6.69-9.13-12.01-16.39-16.63-22.69c6.66-12.85,13.82-24.7,19.08-37.35
		c5.16-12.41,8.39-25.62,12.67-39.14c8.13-1.12,16.97-2.34,27.57-3.81C445.4,310.17,431.21,343.47,407.26,374.28z"/>
	<path class="st6" d="M141.3,332.95c7.24,8.03,13.52,15,20.36,22.58c-23.42,17.11-47.39,34.61-71.36,52.12
		c-0.7-0.89-1.4-1.78-2.1-2.67C105.46,381.58,122.72,358.17,141.3,332.95z"/>
	<path class="st7" d="M162.17,140.33c-7.17,7.72-13.46,14.49-20.76,22.34c-17.55-23.76-34.63-46.88-51.71-69.99
		c0.92-0.92,1.85-1.84,2.77-2.75C115.44,106.53,138.4,123.14,162.17,140.33z"/>
	<path class="st8" d="M355.63,162.02c-7.95-7.32-14.8-13.63-22.54-20.76c23.32-17.16,46.06-33.9,68.81-50.64
		c0.9,1.03,1.8,2.06,2.7,3.09C388.58,116.04,372.58,138.37,355.63,162.02z"/>
	<path class="st9" d="M334.1,355.13c7.22-7.7,13.61-14.52,20.8-22.2c16.79,23.44,33.18,46.31,49.59,69.22
		c0.01-0.01-0.07,0.1-0.15,0.21c-0.21-0.22-0.38-0.55-0.63-0.66c-5.31-2.26-11.25-3.63-15.84-6.89
		C370.13,382.22,352.81,369.02,334.1,355.13z"/>
</g>
</svg>
