<?xml version="1.0" encoding="utf-8"?>
<!-- Generator: Adobe Illustrator 25.3.1, SVG Export Plug-In . SVG Version: 6.00 Build 0)  -->
<svg version="1.1" id="Layer_1" xmlns="http://www.w3.org/2000/svg" xmlns:xlink="http://www.w3.org/1999/xlink" x="0px" y="0px"
	 viewBox="0 0 500 500" style="enable-background:new 0 0 500 500;" xml:space="preserve">
<style type="text/css">
	.st0{display:none;}
	.st1{fill:#FFFFFE;}
	.st2{display:none;fill:#FFFFFE;}
	.st3{fill:#F8A81E;}
</style>
<g class="st0">
	<path class="st1" d="M-64.47-64.47c209.65,0,419.3,0,628.95,0c0,209.65,0,419.3,0,628.95c-209.65,0-419.3,0-628.95,0
		C-64.47,354.82-64.47,145.18-64.47-64.47z M248.32,484.26c0.5-0.04,1-0.09,1.5-0.13c4.51-30.26,8.53-60.6,13.74-90.74
		c2.59-14.98,10.12-26.15,26.25-31.86c36.27-12.83,61.23-38.32,72.8-75.02c4.95-15.69,14.78-22.86,29.28-25.68
		c12.96-2.53,26.12-4.06,39.18-6.05c16.35-2.49,32.7-4.99,49.06-7.49c-2.17-2.42-4.26-3.47-6.47-3.8
		c-24.75-3.68-49.51-7.3-74.29-10.83c-18.43-2.63-31.7-10.09-38.7-29.51c-12.62-35.04-37.85-59.3-73.44-70.31
		c-16.36-5.06-21.69-15.51-24.06-29.89c-4.25-25.74-8.29-51.52-12.42-77.28c-0.97-0.19-1.94-0.39-2.91-0.58
		c-1.02,3.46-2.47,6.85-3.01,10.38c-3.58,23.72-6.37,47.58-10.66,71.16c-2.3,12.64-8.71,21.68-23.15,26.12
		c-36.09,11.07-61.27,35.79-73.95,71.08c-6.56,18.27-18.82,25.77-35.85,28.55c-20.59,3.36-41.32,5.85-61.95,8.97
		c-6.67,1.01-13.21,2.84-22.47,4.89c9.8,1.9,16.28,3.37,22.83,4.39c22.33,3.49,44.78,6.28,66.99,10.4
		c14.01,2.6,24.01,10.07,28.77,25.16c11.85,37.57,37.3,62.97,74.4,75.96c12.16,4.26,19.17,12.23,22.8,23.66
		c2.09,6.58,2.95,13.57,4.01,20.44C240.59,432.23,244.43,458.25,248.32,484.26z"/>
</g>
<g>
	<path class="st2" d="M-163.41-163.41c275.6,0,551.21,0,826.81,0c0,275.6,0,551.21,0,826.81c-275.6,0-551.21,0-826.81,0
		C-163.41,387.8-163.41,112.2-163.41-163.41z M57.04,22.55c-0.79,0.8-1.57,1.59-2.36,2.39c0.92,2.01,1.61,4.18,2.8,6.02
		c18.96,29.09,38.33,57.91,56.85,87.28c9.3,14.75,15.32,31.85,5.29,47.82c-28.29,45.02-34.14,92.47-15.41,141.57
		c9.41,24.67,3.46,43.11-12.32,61.41C69.23,395.3,47,421.9,24.59,448.36c8.02-1.43,15.37-4.46,21.99-8.65
		c24.32-15.4,48.17-31.57,72.65-46.7c18.54-11.46,36.91-13.77,57.8-2.13c43.25,24.1,89.28,27.01,134.54,6.61
		c22.63-10.2,39.5-4.57,56.39,9.48c22.12,18.41,44.05,37.05,66.24,55.38c2.69,2.23,6.45,3.16,9.71,4.7
		c-0.77-3.48-0.68-7.49-2.44-10.37c-15.71-25.69-32.16-50.94-47.55-76.82c-10.34-17.39-12.3-34.67-1.55-54.14
		c24.92-45.14,27.21-92.57,5.86-139.71c-5.96-13.17-5.26-24.03,2-34.65c8.48-12.4,18.39-23.84,27.96-35.47
		c15.15-18.43,30.53-36.68,45.81-55.01c-0.83-1.02-1.67-2.04-2.5-3.06c-4.7,2.22-9.69,3.98-14.04,6.74
		c-25.06,15.91-49.7,32.53-75.06,47.95c-12.87,7.82-27.01,14.66-42.24,5.09c-47.24-29.68-96.59-32.93-148.25-13.02
		c-6.43,2.48-15,4.43-20.9,2.19c-12.5-4.74-25.04-10.93-35.53-19.14C108.73,66.7,83.11,44.34,57.04,22.55z"/>
	<path class="st3" d="M57.04,22.55c26.07,21.79,51.7,44.15,78.44,65.08c10.48,8.21,23.02,14.41,35.53,19.14
		c5.9,2.23,14.47,0.28,20.9-2.19c51.67-19.91,101.01-16.66,148.25,13.02c15.23,9.57,29.37,2.73,42.24-5.09
		c25.36-15.42,49.99-32.03,75.06-47.95c4.35-2.76,9.34-4.52,14.04-6.74c0.83,1.02,1.67,2.04,2.5,3.06
		c-15.28,18.33-30.66,36.57-45.81,55.01c-9.56,11.63-19.48,23.07-27.96,35.47c-7.26,10.61-7.96,21.48-2,34.65
		c21.35,47.15,19.06,94.57-5.86,139.71c-10.75,19.48-8.79,36.76,1.55,54.14c15.39,25.88,31.84,51.13,47.55,76.82
		c1.76,2.88,1.67,6.88,2.44,10.37c-3.26-1.53-7.02-2.47-9.71-4.7c-22.18-18.33-44.11-36.97-66.24-55.38
		c-16.89-14.05-33.76-19.68-56.39-9.48c-45.26,20.4-91.29,17.49-134.54-6.61c-20.89-11.64-39.26-9.33-57.8,2.13
		c-24.49,15.13-48.33,31.3-72.65,46.7c-6.62,4.19-13.97,7.22-21.99,8.65C47,421.9,69.23,395.3,91.88,369.04
		c15.78-18.3,21.73-36.74,12.32-61.41c-18.73-49.1-12.88-96.56,15.41-141.57c10.04-15.97,4.02-33.07-5.29-47.82
		C95.81,88.87,76.44,60.04,57.48,30.96c-1.2-1.83-1.88-4-2.8-6.02C55.46,24.14,56.25,23.35,57.04,22.55z"/>
</g>
</svg>
