<?xml version="1.0" encoding="utf-8"?>
<!-- Generator: Adobe Illustrator 25.3.1, SVG Export Plug-In . SVG Version: 6.00 Build 0)  -->
<svg version="1.1" id="Layer_1" xmlns="http://www.w3.org/2000/svg" xmlns:xlink="http://www.w3.org/1999/xlink" x="0px" y="0px"
	 viewBox="0 0 500 500" style="enable-background:new 0 0 500 500;" xml:space="preserve">
<style type="text/css">
	.st0{fill:#DAEFF3;}
	.st1{fill:#DAF0F4;}
</style>
<g>
	<path class="st0" d="M248.37,484.86C115.05,484.17,26.54,383.14,13.95,279.93c-8.46-69.38,8.62-134.09,55.02-187.1
		c44.22-50.51,100.94-81.39,169.65-82.3c143.93-1.91,249.57,103.39,248.71,241.54C486.55,376.69,381.61,487.61,248.37,484.86z
		 M453.21,249.02c-1.97-112.03-87.88-203.94-204.31-203.69C136.61,45.56,46.2,133.24,47.46,250.11
		c1.18,109.28,85.61,209.02,219.92,199.91C366.23,443.31,450.99,359.26,453.21,249.02z"/>
	<path class="st1" d="M112.5,248.66c-4.35-81.81,62.92-135.04,118.21-138.83c107.69-7.37,158.62,64.94,158.66,140.15
		c0.04,75.94-61.43,138.85-143.37,137.55C180.64,386.5,108.06,332.04,112.5,248.66z"/>
</g>
</svg>
