<?xml version="1.0" encoding="utf-8"?>
<!-- Generator: Adobe Illustrator 25.3.1, SVG Export Plug-In . SVG Version: 6.00 Build 0)  -->
<svg version="1.1" id="Layer_1" xmlns="http://www.w3.org/2000/svg" xmlns:xlink="http://www.w3.org/1999/xlink" x="0px" y="0px"
	 viewBox="0 0 500 500" style="enable-background:new 0 0 500 500;" xml:space="preserve">
<style type="text/css">
	.st0{display:none;fill:#FEFEFE;}
	.st1{fill:#F5EB1E;}
	.st2{fill:#F1E737;}
	.st3{fill:#F2E834;}
	.st4{fill:#F1E738;}
	.st5{fill:#F1E836;}
</style>
<g>
	<path class="st0" d="M586.42,586.42c-224.28,0-448.56,0-672.85,0c0-224.28,0-448.56,0-672.85c224.28,0,448.56,0,672.85,0
		C586.42,137.86,586.42,362.14,586.42,586.42z M246.74,474.1c0.95-0.17,1.89-0.34,2.84-0.51c3.99-26.74,8.53-53.42,11.78-80.26
		c2.09-17.24,11.79-28.26,26.52-34.4c35.99-14.99,61.09-39.86,75.47-76.25c6.1-15.44,17.99-25,35.37-27.07
		c16.62-1.98,33.14-4.77,49.68-7.38c8.74-1.38,17.42-3.16,26.12-4.76c-2.93-3.43-5.61-4.51-8.39-4.92
		c-21.34-3.21-42.61-7.22-64.07-9.14c-20.82-1.86-33.56-12.89-41.05-31.1c-13.79-33.51-37.62-56.5-71.03-70.08
		c-17.45-7.1-29.1-19.02-30.35-39c-0.3-4.8-1.37-9.57-2.18-14.33c-3.29-19.39-6.62-38.78-9.94-58.17c-1.23,0.09-2.46,0.18-3.68,0.26
		c-3.53,24.18-7.62,48.29-10.4,72.55c-2.08,18.19-11.16,31.02-27.42,37.66c-36.21,14.78-60.86,40.04-75.34,76.3
		c-5.76,14.43-16.76,24.02-33.37,26.35c-27.44,3.85-54.77,8.51-82.14,12.83c2.14,2.53,4.38,3.56,6.72,3.9
		c23.56,3.47,47.05,7.7,70.73,9.95c21.42,2.03,33.2,13.93,41.03,32.56c12.82,30.5,34.33,53.51,64.95,65.91
		c23.41,9.48,35.38,24.56,37.56,49.85C238.14,428.07,243.09,451.03,246.74,474.1z M136.44,154.76c7.16-7.64,13.62-14.54,20.88-22.3
		c-24.78-16.56-46.27-36.1-71.46-50.19c-0.57,0.77-1.15,1.55-1.72,2.32C101.38,107.73,118.62,130.86,136.44,154.76z M356.93,154.05
		c17.42-24.18,33.55-46.56,49.67-68.94c-1.11-1.09-2.23-2.19-3.34-3.28c-22.35,16.56-44.7,33.13-66.21,49.07
		C343.64,138.57,349.63,145.54,356.93,154.05z M404.79,402.56c1.07-1.15,2.15-2.29,3.22-3.44c-16.49-22.34-32.98-44.68-49.07-66.5
		c-7.66,6.75-14.77,13.02-22.88,20.18C359.91,370.07,382.35,386.32,404.79,402.56z M86.09,401.75c0.77,1.2,1.55,2.39,2.32,3.59
		c23.39-17.11,46.78-34.21,70.88-51.84c-8.39-7.52-15.23-13.65-22.7-20.36C119.38,356.51,102.74,379.13,86.09,401.75z"/>
	<path class="st1" d="M246.74,474.1c-3.65-23.07-8.6-46.02-10.6-69.24c-2.18-25.29-14.15-40.37-37.56-49.85
		c-30.62-12.4-52.13-35.41-64.95-65.91c-7.83-18.63-19.61-30.53-41.03-32.56c-23.68-2.25-47.17-6.48-70.73-9.95
		c-2.34-0.34-4.58-1.37-6.72-3.9c27.37-4.32,54.7-8.98,82.14-12.83c16.61-2.33,27.61-11.92,33.37-26.35
		c14.48-36.26,39.14-61.52,75.34-76.3c16.26-6.64,25.34-19.47,27.42-37.66c2.78-24.26,6.87-48.38,10.4-72.55
		c1.23-0.09,2.46-0.18,3.68-0.26c3.32,19.39,6.65,38.78,9.94,58.17c0.81,4.77,1.88,9.53,2.18,14.33c1.25,19.98,12.89,31.9,30.35,39
		c33.41,13.59,57.25,36.58,71.03,70.08c7.49,18.21,20.23,29.24,41.05,31.1c21.46,1.92,42.74,5.93,64.07,9.14
		c2.78,0.42,5.46,1.49,8.39,4.92c-8.71,1.6-17.38,3.37-26.12,4.76c-16.54,2.62-33.06,5.41-49.68,7.38
		c-17.38,2.07-29.27,11.63-35.37,27.07c-14.38,36.39-39.48,61.26-75.47,76.25c-14.73,6.14-24.43,17.15-26.52,34.4
		c-3.26,26.83-7.79,53.51-11.78,80.26C248.63,473.76,247.68,473.93,246.74,474.1z"/>
	<path class="st2" d="M136.44,154.76c-17.81-23.9-35.06-47.03-52.3-70.17c0.57-0.77,1.15-1.55,1.72-2.32
		c25.18,14.09,46.68,33.63,71.46,50.19C150.05,140.22,143.59,147.12,136.44,154.76z"/>
	<path class="st3" d="M356.93,154.05c-7.31-8.51-13.29-15.48-19.88-23.15c21.51-15.94,43.86-32.5,66.21-49.07
		c1.11,1.09,2.23,2.19,3.34,3.28C390.48,107.49,374.36,129.87,356.93,154.05z"/>
	<path class="st4" d="M404.79,402.56c-22.44-16.24-44.88-32.49-68.73-49.76c8.11-7.16,15.22-13.43,22.88-20.18
		c16.1,21.81,32.59,44.16,49.07,66.5C406.93,400.27,405.86,401.41,404.79,402.56z"/>
	<path class="st5" d="M86.09,401.75c16.65-22.62,33.3-45.24,50.5-68.61c7.48,6.7,14.32,12.83,22.7,20.36
		c-24.1,17.63-47.49,34.74-70.88,51.84C87.63,404.15,86.86,402.95,86.09,401.75z"/>
</g>
</svg>
