<?xml version="1.0" encoding="utf-8"?>
<!-- Generator: Adobe Illustrator 25.3.1, SVG Export Plug-In . SVG Version: 6.00 Build 0)  -->
<svg version="1.1" id="Layer_1" xmlns="http://www.w3.org/2000/svg" xmlns:xlink="http://www.w3.org/1999/xlink" x="0px" y="0px"
	 viewBox="0 0 500 500" style="enable-background:new 0 0 500 500;" xml:space="preserve">
<style type="text/css">
	.st0{display:none;fill:#FFFFFE;}
	.st1{fill:#FDC715;}
</style>
<g>
	<path class="st0" d="M-64.47-64.47c209.65,0,419.3,0,628.95,0c0,209.65,0,419.3,0,628.95c-209.65,0-419.3,0-628.95,0
		C-64.47,354.82-64.47,145.18-64.47-64.47z M248.32,484.26c0.5-0.04,1-0.09,1.5-0.13c4.51-30.26,8.53-60.6,13.74-90.74
		c2.59-14.98,10.12-26.15,26.25-31.86c36.27-12.83,61.23-38.32,72.8-75.02c4.95-15.69,14.78-22.86,29.28-25.68
		c12.96-2.53,26.12-4.06,39.18-6.05c16.35-2.49,32.7-4.99,49.06-7.49c-2.17-2.42-4.26-3.47-6.47-3.8
		c-24.75-3.68-49.51-7.3-74.29-10.83c-18.43-2.63-31.7-10.09-38.7-29.51c-12.62-35.04-37.85-59.3-73.44-70.31
		c-16.36-5.06-21.69-15.51-24.06-29.89c-4.25-25.74-8.29-51.52-12.42-77.28c-0.97-0.19-1.94-0.39-2.91-0.58
		c-1.02,3.46-2.47,6.85-3.01,10.38c-3.58,23.72-6.37,47.58-10.66,71.16c-2.3,12.64-8.71,21.68-23.15,26.12
		c-36.09,11.07-61.27,35.79-73.95,71.08c-6.56,18.27-18.82,25.77-35.85,28.55c-20.59,3.36-41.32,5.85-61.95,8.97
		c-6.67,1.01-13.21,2.84-22.47,4.89c9.8,1.9,16.28,3.37,22.83,4.39c22.33,3.49,44.78,6.28,66.99,10.4
		c14.01,2.6,24.01,10.07,28.77,25.16c11.85,37.57,37.3,62.97,74.4,75.96c12.16,4.26,19.17,12.23,22.8,23.66
		c2.09,6.58,2.95,13.57,4.01,20.44C240.59,432.23,244.43,458.25,248.32,484.26z"/>
	<path class="st1" d="M248.31,490.96c-4.01-26.77-7.95-53.55-12.06-80.31c-1.08-7.06-1.98-14.26-4.12-21.03
		c-3.74-11.77-10.95-19.97-23.46-24.35c-38.18-13.37-64.38-39.5-76.57-78.17c-4.9-15.54-15.19-23.22-29.61-25.89
		c-22.86-4.24-45.97-7.12-68.95-10.7c-6.74-1.05-13.41-2.56-23.5-4.52c9.53-2.1,16.26-3.99,23.12-5.03
		c21.23-3.22,42.56-5.78,63.75-9.23c17.53-2.86,30.15-10.57,36.9-29.38c13.05-36.33,38.97-61.76,76.11-73.16
		c14.86-4.56,21.46-13.87,23.83-26.88c4.41-24.28,7.29-48.83,10.97-73.24c0.55-3.63,2.04-7.12,3.09-10.68c1,0.2,2,0.4,3,0.6
		c4.25,26.52,8.4,53.05,12.78,79.54c2.44,14.8,7.93,25.56,24.77,30.76c36.63,11.32,62.59,36.3,75.59,72.36
		c7.2,19.99,20.86,27.66,39.83,30.37c25.5,3.64,50.98,7.36,76.45,11.15c2.27,0.34,4.43,1.42,6.66,3.91
		c-16.83,2.57-33.66,5.15-50.49,7.71c-13.45,2.05-26.99,3.63-40.33,6.23c-14.92,2.91-25.04,10.29-30.13,26.43
		c-11.91,37.77-37.6,64.01-74.93,77.21c-16.6,5.87-24.35,17.37-27.02,32.79c-5.36,31.02-9.5,62.25-14.14,93.39
		C249.34,490.87,248.83,490.92,248.31,490.96z"/>
</g>
</svg>
