<svg xmlns="http://www.w3.org/2000/svg" id="Layer_1_1_" height="512" viewBox="0 0 64 64" width="512"><path d="m32 17c-8.271 0-15 6.729-15 15 0 4.893 2.365 9.232 6 11.972v.028h.038c2.504 1.875 5.6 3 8.962 3s6.458-1.125 8.962-3h.038v-.028c3.635-2.74 6-7.079 6-11.972 0-8.271-6.729-15-15-15zm-4 27.364v-8.364h-2v7.521c-.343-.18-.676-.376-1-.584v-6.937c0-1.654 1.346-3 3-3h8c1.654 0 3 1.346 3 3v6.937c-.324.208-.657.405-1 .584v-7.521h-2v8.364c-1.261.409-2.604.636-4 .636s-2.739-.227-4-.636zm1-16.364c0-1.654 1.346-3 3-3s3 1.346 3 3-1.346 3-3 3-3-1.346-3-3zm12 13.359v-5.359c0-2.757-2.243-5-5-5h-.026c.635-.838 1.026-1.87 1.026-3 0-2.757-2.243-5-5-5s-5 2.243-5 5c0 1.13.391 2.162 1.026 3h-.026c-2.757 0-5 2.243-5 5v5.359c-2.46-2.367-4-5.684-4-9.359 0-7.168 5.832-13 13-13s13 5.832 13 13c0 3.675-1.54 6.992-4 9.359z"></path><path d="m11 21c5.514 0 10-4.486 10-10s-4.486-10-10-10-10 4.486-10 10 4.486 10 10 10zm0-18c4.411 0 8 3.589 8 8s-3.589 8-8 8-8-3.589-8-8 3.589-8 8-8z"></path><path d="m53 1c-5.514 0-10 4.486-10 10s4.486 10 10 10 10-4.486 10-10-4.486-10-10-10zm0 18c-4.411 0-8-3.589-8-8s3.589-8 8-8 8 3.589 8 8-3.589 8-8 8z"></path><path d="m11 43c-5.514 0-10 4.486-10 10s4.486 10 10 10 10-4.486 10-10-4.486-10-10-10zm0 18c-4.411 0-8-3.589-8-8s3.589-8 8-8 8 3.589 8 8-3.589 8-8 8z"></path><path d="m53 43c-5.514 0-10 4.486-10 10s4.486 10 10 10 10-4.486 10-10-4.486-10-10-10zm0 18c-4.411 0-8-3.589-8-8s3.589-8 8-8 8 3.589 8 8-3.589 8-8 8z"></path><path d="m11 14c-.552 0-1-.448-1-1h-2c0 1.302.839 2.402 2 2.816v1.184h2v-1.184c1.161-.414 2-1.514 2-2.816 0-1.654-1.346-3-3-3-.552 0-1-.448-1-1s.448-1 1-1 1 .448 1 1h2c0-1.302-.839-2.402-2-2.816v-1.184h-2v1.184c-1.161.414-2 1.514-2 2.816 0 1.654 1.346 3 3 3 .552 0 1 .448 1 1s-.448 1-1 1z"></path><path d="m55.884 5.882c-.812-.344-1.546-.876-2.124-1.539-.191-.218-.465-.343-.754-.343 0 0 0 0-.001 0-.289 0-.563.126-.754.344-.575.662-1.31 1.194-2.123 1.538-.678.287-1.4.446-2.128.471-.55 0-.997.444-1 .995 0 .041-.014 4.146.728 5.838 1.286 2.914 3.836 4.279 4.873 4.731.127.056.263.083.399.083s.272-.027.399-.083c1.037-.452 3.587-1.817 4.874-4.733.741-1.691.727-5.795.727-5.836-.003-.537-.43-.977-.966-.994-.749-.026-1.472-.185-2.15-.472zm-6.325 6.499c-.323-.738-.497-2.636-.545-4.119.652-.101 1.287-.28 1.895-.538.378-.16.743-.351 1.092-.569v8.131c-.861-.605-1.837-1.534-2.442-2.905zm6.883-.002c-.606 1.373-1.582 2.302-2.442 2.907v-8.138c.352.221.721.414 1.104.576.604.256 1.234.436 1.883.536-.049 1.483-.222 3.382-.545 4.119z"></path><path d="m14 50v-2c0-.553-.447-1-1-1h-4c-.553 0-1 .447-1 1v2h-2c-.553 0-1 .447-1 1v4c0 .553.447 1 1 1h2v2c0 .553.447 1 1 1h4c.553 0 1-.447 1-1v-2h2c.553 0 1-.447 1-1v-4c0-.553-.447-1-1-1zm1 4h-2c-.553 0-1 .447-1 1v2h-2v-2c0-.553-.447-1-1-1h-2v-2h2c.553 0 1-.447 1-1v-2h2v2c0 .553.447 1 1 1h2z"></path><path d="m52.293 47.293-5 5c-.286.286-.372.716-.217 1.09.154.374.52.617.924.617h1v4c0 .553.447 1 1 1h6c.553 0 1-.447 1-1v-4h1c.404 0 .77-.243.924-.617.155-.374.069-.804-.217-1.09l-5-5c-.391-.391-1.023-.391-1.414 0zm2.707 9.707h-4v-3h4zm-4.586-5 2.586-2.586 2.586 2.586z"></path><path d="m30.968 58.982-.075 2c.671.024 1.356.026 2.036.004l.03-.001-.094-1.998c-.633.019-1.272.018-1.897-.005z"></path><path d="m34.819 58.854.206 1.989c.683-.071 1.371-.167 2.048-.286l-.347-1.97c-.629.111-1.271.201-1.907.267z"></path><path d="m26.785 60.533c.679.123 1.367.223 2.047.297l.216-1.988c-.632-.069-1.273-.161-1.907-.276z"></path><path d="m38.61 58.184.488 1.94c.671-.169 1.34-.364 1.988-.578l-.628-1.899c-.601.2-1.224.38-1.848.537z"></path><path d="m22.779 59.502c.655.219 1.322.417 1.984.587l.499-1.937c-.616-.159-1.238-.342-1.848-.547z"></path><path d="m59.493 41.252c.22-.649.418-1.317.59-1.985l-1.937-.499c-.16.621-.344 1.241-.548 1.845z"></path><path d="m6.362 40.488c-.2-.606-.381-1.229-.539-1.85l-1.939.492c.169.666.363 1.334.579 1.985z"></path><path d="m58.561 36.887 1.968.359c.122-.671.223-1.36.299-2.046l-1.989-.22c-.07.64-.164 1.282-.278 1.907z"></path><path d="m5.418 36.755c-.112-.633-.202-1.275-.268-1.906l-1.989.206c.07.679.167 1.368.289 2.05z"></path><path d="m60.985 31.07-.004-.123-1.999.064.004.123c.021.644.019 1.293-.006 1.926l1.998.078c.027-.68.029-1.376.007-2.068z"></path><path d="m3.015 32.93.002.062 1.997-.126c-.02-.628-.019-1.251.004-1.868l-1.999-.071c-.024.669-.025 1.342-.004 2.003z"></path><path d="m58.571 27.185c.112.629.204 1.271.272 1.907l1.988-.212c-.073-.684-.171-1.372-.292-2.047z"></path><path d="m5.429 27.171-1.968-.355c-.121.675-.221 1.364-.294 2.048l1.988.214c.069-.637.16-1.278.274-1.907z"></path><path d="m57.621 23.457c.201.604.383 1.226.542 1.848l1.938-.494c-.171-.669-.367-1.337-.583-1.985z"></path><path d="m4.488 22.806c-.218.652-.415 1.321-.585 1.987l1.937.495c.159-.619.342-1.24.545-1.846z"></path><path d="m41.163 4.478c-.649-.217-1.317-.413-1.988-.584l-.493 1.939c.623.158 1.244.34 1.845.542z"></path><path d="m22.855 4.471.63 1.899c.61-.202 1.232-.384 1.849-.541l-.492-1.938c-.662.168-1.331.363-1.987.58z"></path><path d="m34.894 5.152c.636.068 1.277.159 1.905.272l.353-1.969c-.675-.121-1.364-.219-2.048-.291z"></path><path d="m29.12 5.153-.206-1.989c-.676.07-1.365.168-2.05.291l.352 1.968c.636-.114 1.277-.205 1.904-.27z"></path><path d="m31.101 3.015-.123.002.156 1.997c.617-.02 1.229-.019 1.839.003l.069-1.999c-.646-.022-1.296-.024-1.92-.004-.007-.001-.014 0-.021.001z"></path></svg>