<?xml version="1.0" standalone="no"?>
<!DOCTYPE svg PUBLIC "-//W3C//DTD SVG 20010904//EN"
 "http://www.w3.org/TR/2001/REC-SVG-20010904/DTD/svg10.dtd">
<svg version="1.0" xmlns="http://www.w3.org/2000/svg"
 width="1440.000000pt" height="1440.000000pt" viewBox="0 0 1440.000000 1440.000000"
 preserveAspectRatio="xMidYMid meet">
<metadata>
Created by potrace 1.14, written by Peter Selinger 2001-2017
</metadata>
<g transform="translate(0.000000,1440.000000) scale(0.100000,-0.100000)"
fill="#000000" stroke="none">
<path d="M3383 12775 c-15 -17 -17 -35 -3 -35 12 0 42 -69 34 -81 -3 -5 0 -9
6 -9 6 0 8 -4 5 -10 -3 -5 -2 -10 4 -10 5 0 8 -8 7 -17 -2 -10 1 -20 5 -23 5
-3 10 -15 12 -25 2 -11 9 -31 14 -45 6 -14 9 -28 6 -32 -2 -5 0 -8 4 -8 5 0 9
-10 10 -22 1 -11 7 -24 12 -27 6 -4 11 -23 13 -43 1 -20 6 -34 10 -32 4 3 8
-6 8 -20 0 -14 5 -26 11 -26 6 0 9 -8 7 -17 -2 -10 3 -24 12 -31 8 -8 10 -11
3 -7 -9 4 -8 -3 2 -21 8 -15 12 -31 9 -36 -3 -4 0 -8 5 -8 6 0 11 -11 11 -25
0 -14 5 -25 11 -25 8 0 7 -6 -2 -17 -8 -9 -9 -14 -3 -10 8 4 17 -9 25 -38 7
-25 17 -45 21 -45 4 0 5 -9 3 -20 -2 -11 1 -20 6 -20 6 0 8 -4 4 -9 -3 -5 2
-17 11 -25 8 -9 11 -16 6 -16 -6 0 -8 -9 -5 -20 3 -11 9 -20 13 -20 4 0 13
-21 20 -47 16 -58 14 -51 29 -88 13 -31 21 -59 24 -85 1 -8 8 -21 15 -29 7 -7
11 -19 8 -27 -3 -7 0 -14 6 -16 5 -2 11 -18 11 -35 1 -17 6 -31 12 -30 5 1 9
-4 7 -12 -1 -7 2 -19 9 -27 6 -7 8 -18 4 -24 -3 -5 -1 -10 6 -10 7 0 10 -3 6
-6 -3 -4 0 -19 9 -35 8 -16 11 -29 7 -29 -4 0 -2 -5 4 -11 6 -6 9 -18 6 -25
-3 -8 1 -16 9 -19 8 -3 15 -20 16 -37 2 -18 8 -36 15 -40 7 -4 8 -8 3 -8 -5 0
-3 -7 4 -15 7 -8 9 -15 5 -15 -4 0 -2 -7 5 -15 7 -8 9 -15 5 -15 -4 0 -2 -6 4
-14 6 -8 11 -18 9 -22 -1 -5 3 -19 10 -31 7 -13 10 -23 7 -23 -3 0 1 -10 9
-22 7 -13 12 -31 11 -40 -2 -9 3 -19 10 -22 8 -3 11 -13 8 -25 -3 -12 -1 -21
6 -21 6 0 11 -11 11 -24 0 -14 5 -28 10 -31 6 -3 10 -17 10 -31 0 -13 5 -24
11 -24 6 0 9 -9 6 -20 -3 -11 -1 -20 5 -20 5 0 6 -4 3 -10 -3 -5 -1 -10 5 -10
6 0 9 -4 6 -8 -3 -5 2 -21 10 -36 7 -16 14 -35 14 -42 0 -8 4 -14 10 -14 5 0
7 -7 4 -15 -4 -8 -1 -22 6 -30 7 -8 9 -15 5 -15 -4 0 -2 -7 5 -15 7 -8 9 -15
5 -15 -4 0 -2 -7 5 -15 6 -8 9 -19 5 -25 -3 -5 -1 -10 4 -10 6 0 11 -9 11 -19
0 -11 5 -23 10 -26 6 -3 10 -17 10 -31 0 -13 4 -24 9 -24 5 0 8 -8 7 -17 -2
-10 4 -24 13 -31 12 -10 12 -12 1 -6 -12 6 -13 5 -4 -7 7 -8 15 -29 19 -46 3
-18 10 -33 15 -33 4 0 7 -8 6 -17 -2 -9 4 -29 11 -45 8 -15 12 -32 9 -37 -4
-5 -1 -11 4 -13 6 -2 12 -10 14 -18 4 -21 16 -52 27 -73 5 -10 7 -22 4 -27 -3
-5 -1 -11 5 -15 6 -4 8 -11 5 -16 -4 -5 -1 -9 4 -9 6 0 11 -11 11 -24 0 -14 5
-28 11 -31 6 -4 8 -13 5 -21 -3 -8 -1 -14 5 -14 6 0 7 -4 4 -10 -3 -5 -2 -10
2 -10 5 0 9 -10 10 -22 1 -11 6 -24 10 -27 4 -3 9 -13 9 -21 3 -26 9 -45 17
-51 4 -3 9 -20 10 -37 1 -18 5 -32 10 -32 4 0 7 -7 7 -15 0 -8 6 -15 13 -15 9
0 9 -2 -1 -9 -10 -6 -10 -10 2 -20 8 -6 13 -19 12 -29 -2 -9 3 -22 10 -30 7
-7 11 -19 8 -27 -4 -8 -1 -15 5 -15 6 0 11 -9 11 -20 0 -12 7 -34 15 -49 8
-16 11 -31 8 -35 -4 -3 -2 -6 4 -6 9 0 11 -6 15 -50 1 -11 6 -20 11 -20 5 0 7
-7 3 -15 -3 -8 -2 -15 2 -15 6 0 25 -46 37 -90 2 -8 4 -16 5 -17 2 -2 3 -7 4
-12 0 -5 4 -13 9 -17 4 -4 7 -16 7 -26 0 -10 3 -18 8 -18 4 0 8 -14 9 -32 0
-18 6 -34 12 -36 6 -2 11 -15 11 -28 0 -13 5 -24 10 -24 6 0 10 -5 10 -11 0
-5 -6 -7 -12 -3 -7 4 -6 -1 3 -12 9 -10 15 -27 14 -37 -2 -9 0 -15 5 -12 7 4
35 -81 32 -97 -1 -5 3 -8 9 -8 5 0 7 -4 4 -10 -3 -5 -2 -10 3 -10 6 0 10 -6 9
-12 -1 -31 4 -49 11 -44 5 3 8 -5 7 -17 -1 -12 1 -24 4 -27 4 -3 17 -39 31
-80 13 -41 27 -80 32 -86 4 -6 9 -23 10 -38 1 -14 6 -26 11 -26 5 0 7 -7 3
-15 -3 -8 -1 -15 5 -15 6 0 9 -7 5 -15 -3 -8 -1 -15 4 -15 6 0 10 -9 10 -19 0
-11 4 -22 8 -25 4 -2 9 -19 10 -38 2 -18 7 -34 12 -36 6 -2 10 -15 10 -28 0
-13 5 -24 10 -24 6 0 10 -13 10 -30 0 -16 4 -30 8 -30 5 0 9 -7 10 -15 1 -8 3
-22 4 -30 1 -8 5 -15 10 -15 4 0 8 -8 8 -17 0 -10 7 -31 15 -46 8 -15 10 -25
5 -22 -6 3 -7 -1 -4 -9 3 -9 11 -16 16 -16 5 0 8 -6 5 -12 -2 -7 4 -30 15 -50
10 -21 16 -38 14 -38 -3 0 6 -28 20 -61 13 -34 21 -66 18 -70 -3 -5 -1 -9 4
-9 8 0 13 -11 27 -62 2 -5 4 -10 5 -13 1 -3 3 -8 5 -12 1 -5 4 -15 7 -23 36
-98 46 -129 41 -134 -4 -3 -1 -6 6 -6 7 0 11 -6 8 -14 -3 -7 -1 -18 4 -23 5
-5 11 -18 13 -29 2 -10 13 -42 24 -70 12 -29 18 -55 15 -58 -4 -3 0 -6 7 -6 7
0 10 -3 7 -7 -4 -3 0 -17 9 -31 9 -13 11 -21 4 -17 -7 4 -5 -4 4 -17 9 -14 13
-28 9 -31 -3 -4 -1 -7 6 -7 7 0 10 -4 6 -9 -3 -5 -1 -12 5 -16 5 -3 10 -11 10
-16 0 -6 -6 -7 -12 -3 -8 5 -7 1 1 -10 15 -18 62 -140 64 -163 0 -7 3 -13 7
-13 3 0 6 -10 7 -22 1 -11 6 -24 10 -27 4 -3 10 -19 11 -36 2 -16 8 -31 13
-33 5 -2 9 -14 9 -27 0 -13 5 -27 10 -30 6 -3 10 -17 10 -31 0 -13 5 -24 11
-24 5 0 8 -3 6 -7 -3 -5 0 -19 6 -33 5 -14 12 -34 14 -44 2 -11 8 -25 14 -33
6 -7 8 -13 4 -13 -4 0 -2 -7 5 -15 6 -8 9 -19 5 -25 -3 -5 -1 -10 5 -10 7 0
10 -7 6 -15 -3 -8 0 -15 6 -15 6 0 9 -3 5 -6 -3 -4 0 -19 8 -34 8 -15 11 -30
8 -34 -4 -3 -1 -6 6 -6 7 0 10 -4 7 -8 -3 -5 1 -20 9 -35 8 -15 11 -27 8 -27
-3 0 0 -7 7 -15 7 -8 10 -22 6 -30 -3 -9 1 -18 9 -21 8 -4 12 -11 9 -16 -4 -6
-1 -14 6 -18 7 -4 13 -22 14 -39 0 -17 5 -31 10 -31 4 0 6 -9 3 -20 -3 -11 -1
-18 4 -14 8 5 11 -3 8 -22 0 -4 5 -11 13 -15 10 -7 10 -9 -2 -9 -12 -1 -11 -3
3 -11 9 -6 15 -14 12 -20 -4 -5 -3 -15 2 -21 4 -7 8 -15 9 -18 1 -6 12 -36 25
-68 5 -13 9 -31 9 -42 0 -10 4 -20 10 -22 5 -1 11 -12 13 -23 1 -11 6 -26 10
-32 5 -7 6 -13 2 -13 -3 0 2 -14 10 -31 9 -17 14 -37 11 -45 -3 -9 -1 -12 4
-9 6 3 10 3 11 -2 3 -30 11 -59 22 -72 10 -12 9 -13 -3 -6 -11 6 -10 3 3 -12
9 -11 14 -23 10 -26 -3 -4 -1 -7 5 -7 6 0 9 -7 6 -15 -4 -8 -1 -15 6 -15 6 0
8 -5 5 -10 -4 -6 -1 -17 5 -25 6 -8 9 -19 5 -25 -3 -5 -1 -10 5 -10 6 0 8 -4
5 -10 -3 -5 -1 -10 5 -10 6 0 9 -4 6 -8 -3 -5 1 -20 9 -35 8 -15 11 -27 8 -27
-3 0 0 -7 7 -15 7 -8 9 -15 4 -15 -4 0 -3 -5 4 -12 7 -7 12 -21 12 -33 0 -12
4 -25 9 -31 5 -5 11 -20 13 -34 1 -14 7 -28 12 -32 5 -3 10 -14 11 -25 1 -10
7 -28 13 -40 7 -13 11 -23 8 -23 -3 0 2 -16 10 -35 8 -20 12 -41 8 -47 -4 -7
-3 -8 4 -4 8 4 12 0 12 -11 0 -11 5 -24 12 -31 7 -7 8 -12 4 -12 -5 0 -2 -8 5
-17 12 -15 12 -16 -1 -8 -12 7 -13 6 -3 -7 7 -8 9 -19 5 -23 -4 -5 -1 -5 6 -1
8 5 12 -1 12 -18 0 -14 5 -28 10 -31 6 -4 8 -11 5 -16 -4 -5 -1 -9 5 -9 6 0 8
-5 5 -10 -7 -11 16 -70 27 -70 3 0 5 -8 4 -17 -2 -10 4 -34 12 -53 24 -57 43
-108 44 -120 0 -3 4 -13 9 -22 6 -11 5 -18 -4 -21 -6 -3 -3 -6 8 -6 17 -1 17
-3 5 -11 -13 -8 -13 -10 2 -10 10 0 15 -7 14 -17 -2 -9 3 -28 10 -42 7 -13 11
-28 8 -33 -3 -4 0 -8 5 -8 6 0 11 -11 11 -25 0 -14 4 -25 8 -25 7 0 11 -16 14
-57 1 -7 6 -13 11 -13 5 0 7 -9 4 -20 -3 -11 -2 -18 3 -15 8 5 23 -36 24 -65
0 -8 6 -18 13 -23 6 -4 10 -16 8 -27 -2 -11 1 -20 7 -20 6 0 8 -3 5 -7 -4 -3
1 -12 11 -20 9 -8 11 -11 3 -7 -11 6 -13 3 -7 -12 5 -10 9 -25 9 -31 0 -7 4
-13 9 -13 5 0 6 -5 3 -10 -3 -6 -1 -10 4 -10 6 0 11 -8 11 -17 0 -21 23 -90
33 -99 4 -4 7 -18 7 -30 0 -13 5 -26 11 -30 6 -3 9 -14 6 -24 -3 -11 2 -21 10
-24 8 -3 12 -10 8 -15 -3 -5 -1 -12 4 -16 6 -3 8 -12 4 -20 -3 -8 0 -15 7 -15
7 0 10 -7 6 -15 -3 -9 1 -18 10 -22 13 -5 13 -7 2 -14 -10 -7 -11 -9 0 -9 7 0
11 -4 7 -9 -3 -5 -1 -12 5 -16 6 -4 8 -10 5 -15 -3 -5 -1 -11 5 -15 5 -3 10
-17 10 -30 0 -13 5 -27 10 -30 6 -3 10 -17 10 -31 0 -13 5 -24 12 -24 6 0 8
-3 5 -7 -4 -3 0 -17 9 -31 11 -17 12 -22 3 -16 -11 6 -12 5 -3 -7 7 -8 18 -33
25 -56 6 -24 16 -43 20 -43 4 0 6 -8 5 -17 -2 -10 5 -36 15 -57 10 -22 15 -44
13 -48 -3 -4 0 -8 6 -8 7 0 10 -7 6 -15 -3 -8 -1 -15 5 -15 6 0 8 -4 4 -9 -3
-5 -1 -12 5 -16 6 -4 8 -10 5 -15 -3 -5 -1 -11 5 -15 6 -4 8 -10 5 -15 -3 -5
-1 -11 5 -15 5 -3 10 -15 10 -26 0 -10 4 -19 9 -19 5 0 8 -8 6 -17 -1 -10 4
-26 13 -36 8 -9 12 -20 9 -23 -3 -4 0 -19 9 -35 8 -16 12 -29 8 -29 -4 0 -1
-7 6 -15 7 -8 9 -15 5 -15 -4 0 0 -11 9 -25 9 -14 14 -30 11 -35 -3 -5 -1 -11
5 -15 6 -4 8 -10 5 -15 -3 -5 3 -13 12 -19 13 -8 14 -10 3 -11 -11 0 -11 -3
-2 -12 7 -7 12 -20 12 -30 0 -10 5 -18 11 -18 5 0 8 -3 6 -8 -3 -4 0 -18 6
-32 5 -14 12 -34 14 -45 2 -11 8 -22 13 -23 6 -2 8 -7 5 -12 -3 -5 0 -21 6
-37 7 -15 13 -32 14 -38 2 -5 4 -17 6 -25 2 -8 8 -18 12 -21 4 -3 9 -16 10
-27 1 -12 5 -22 10 -22 4 0 5 -4 2 -10 -3 -5 0 -10 7 -10 9 0 9 -3 -2 -10 -12
-7 -12 -10 -1 -10 7 0 11 -6 8 -14 -3 -8 -2 -16 3 -18 5 -2 11 -12 13 -23 2
-11 9 -30 15 -43 7 -12 10 -27 7 -32 -3 -6 -1 -10 4 -10 6 0 10 -3 10 -7 -1
-5 0 -11 1 -15 1 -5 3 -11 5 -15 1 -5 7 -21 13 -36 7 -16 10 -33 6 -38 -3 -5
0 -9 7 -9 7 0 9 -3 6 -7 -4 -3 -1 -13 5 -21 12 -14 16 -28 20 -64 1 -10 6 -18
11 -18 4 0 6 -4 2 -9 -3 -5 2 -16 10 -24 11 -12 12 -17 2 -20 -9 -4 -9 -6 1
-6 7 -1 10 -5 7 -11 -3 -5 -1 -10 5 -10 6 0 9 -4 6 -9 -3 -4 3 -25 14 -46 11
-21 17 -41 15 -46 -3 -4 -1 -11 5 -14 6 -4 8 -16 4 -27 -4 -14 -2 -18 5 -14 7
4 12 -1 12 -13 1 -12 2 -26 3 -32 0 -7 11 -15 22 -20 18 -6 21 -4 17 10 -3 10
5 39 16 64 12 25 21 50 21 55 0 5 7 23 15 40 9 17 18 40 20 52 2 11 7 26 12
33 4 6 8 17 8 22 1 6 5 19 9 30 4 11 16 42 27 69 10 27 19 52 19 57 0 4 5 20
11 36 30 74 56 153 51 153 -4 0 -2 4 4 8 6 4 21 40 34 80 12 40 27 75 31 78 5
3 7 9 4 14 -3 5 -1 11 5 15 6 4 8 11 5 16 -4 5 1 21 9 36 12 23 60 151 70 188
2 6 8 21 13 35 6 14 9 28 6 32 -2 5 1 8 6 8 6 0 10 3 9 8 0 4 2 16 6 27 25 66
36 96 36 100 0 3 7 22 15 42 9 21 17 44 19 53 2 8 8 26 13 40 6 14 9 28 6 33
-2 4 0 7 5 7 9 0 26 53 25 78 0 6 5 12 12 12 8 0 10 9 7 26 -3 19 -1 25 7 20
7 -5 11 0 11 13 0 10 9 40 20 65 10 25 17 46 13 46 -3 0 0 7 7 15 6 8 9 19 5
25 -3 5 -1 10 4 10 6 0 11 9 11 20 0 11 5 20 11 20 5 0 8 4 4 10 -3 5 -1 17 4
27 18 34 51 133 43 133 -4 0 0 5 8 10 8 5 16 17 16 27 1 10 7 32 14 48 7 17
12 34 11 39 -1 4 3 13 8 20 5 6 19 40 30 76 12 36 26 74 31 85 8 18 23 62 25
75 0 3 6 15 13 27 7 12 12 26 11 30 -1 4 6 26 16 48 9 22 18 50 19 62 0 11 4
19 9 16 4 -2 8 3 8 11 2 17 5 33 9 41 1 3 3 8 4 13 1 4 7 16 13 27 6 11 11 25
12 30 0 8 17 58 38 115 3 8 7 20 9 25 10 32 31 86 37 91 4 4 7 17 7 29 0 11 4
25 10 31 5 5 11 18 13 29 9 47 20 75 29 75 6 0 8 7 5 15 -4 8 -2 17 2 20 9 5
36 94 33 108 -1 4 2 7 7 7 5 0 12 16 15 35 5 22 11 33 18 29 6 -4 8 -3 4 4 -3
6 -1 23 5 39 6 15 12 35 14 43 2 8 17 51 34 95 17 44 31 82 31 86 0 4 8 24 17
45 9 22 17 46 17 54 0 8 5 18 10 22 5 3 11 14 12 24 2 10 6 29 10 43 4 14 7
29 6 34 -1 4 2 7 8 7 5 0 10 8 10 18 0 10 5 23 12 30 7 7 8 12 4 12 -5 0 -3 7
4 15 7 8 10 15 7 15 -3 0 0 12 8 27 8 15 12 30 9 35 -3 4 -1 8 5 8 6 0 8 7 5
15 -4 8 -1 15 6 15 6 0 9 4 5 9 -3 5 -1 12 5 16 5 3 10 12 10 20 0 8 5 26 12
42 6 15 13 37 15 48 2 10 8 22 15 26 6 4 8 11 4 17 -3 6 -2 13 4 17 5 3 10 12
10 20 0 8 5 26 12 42 6 15 12 30 12 33 1 3 5 11 9 18 5 6 5 17 2 22 -3 6 -1
10 5 10 7 0 10 7 6 15 -3 8 -1 15 4 15 6 0 10 9 10 20 0 11 4 20 8 20 4 0 8
10 9 22 1 11 6 24 11 27 5 3 8 14 6 24 -1 9 4 24 13 32 8 8 12 15 9 15 -4 0
50 162 71 210 8 19 14 41 15 58 1 6 5 12 10 12 4 0 8 6 8 14 0 8 5 27 11 43 6
15 10 29 10 30 0 2 9 24 20 50 12 27 23 59 26 73 2 13 9 30 15 37 6 7 7 13 3
13 -4 0 -3 6 3 13 6 6 10 14 11 17 0 3 2 12 5 20 3 8 12 35 21 60 9 25 18 52
20 60 2 8 4 16 5 18 2 1 3 5 4 10 1 4 7 16 13 27 6 11 10 22 10 25 -1 4 19 65
40 120 4 8 7 18 8 23 2 4 4 9 5 12 1 3 3 8 4 13 1 4 5 13 9 20 5 6 6 12 3 12
-3 0 1 12 9 27 8 15 12 30 9 35 -3 4 0 8 6 8 6 0 10 6 9 13 -1 6 4 26 11 42 7
17 13 33 12 38 -1 4 2 7 6 7 5 0 9 6 10 13 1 14 10 52 12 52 1 0 3 7 5 15 2 8
9 29 16 45 6 17 14 39 16 49 2 11 7 24 11 30 5 6 14 30 22 54 7 23 17 42 21
42 5 0 6 7 3 15 -4 8 1 26 10 40 9 14 14 25 12 25 -3 0 1 15 9 34 8 18 11 36
8 40 -4 3 -2 6 4 6 6 0 14 16 17 35 4 19 12 35 18 35 5 0 8 6 5 14 -3 7 0 19
6 25 6 6 8 11 5 11 -4 0 -1 12 7 27 8 15 12 30 9 35 -3 4 0 8 5 8 6 0 11 11
11 25 0 14 5 25 10 25 6 0 10 9 10 21 0 11 5 17 10 14 6 -3 10 -2 10 4 0 5 -5
11 -11 13 -8 3 -6 10 5 20 9 9 16 23 16 30 0 8 9 32 20 53 11 22 18 45 15 52
-2 7 1 13 8 13 8 0 6 4 -3 10 -10 6 -11 10 -2 10 6 0 12 9 12 20 0 11 6 20 13
20 8 0 7 4 -3 10 -12 7 -12 10 -1 10 7 0 11 6 8 14 -3 8 1 17 10 20 10 4 14
15 11 31 -3 14 1 30 8 36 8 6 11 15 8 20 -3 5 0 9 6 9 7 0 9 7 6 16 -3 8 2 27
11 41 10 15 18 31 19 37 0 6 2 17 2 24 1 7 7 10 13 6 8 -4 8 -1 1 12 -7 14 -6
25 4 38 7 10 11 23 8 27 -3 5 0 9 6 9 6 0 8 5 5 10 -3 6 -2 10 4 10 5 0 8 9 6
20 -2 11 1 20 6 20 6 0 7 5 4 10 -3 6 -1 10 6 10 7 0 10 3 7 6 -11 11 23 94
35 87 7 -4 7 0 -1 9 -9 11 -10 18 -2 23 6 3 8 11 5 16 -4 5 -1 9 5 9 6 0 10 6
8 13 -1 6 3 22 10 35 7 12 10 22 7 22 -3 0 3 12 12 27 10 15 12 24 6 20 -9 -6
-11 -3 -6 10 4 10 9 20 13 23 3 3 17 39 30 80 14 41 28 77 31 80 3 3 5 13 3
23 -1 9 2 17 7 17 5 0 9 12 9 26 0 16 4 23 12 18 7 -4 8 -3 4 5 -4 6 -2 18 4
26 7 8 10 15 7 15 -3 0 0 15 8 34 8 18 11 36 8 40 -4 3 -2 6 4 6 9 0 24 43 27
75 1 6 3 12 6 15 3 3 14 30 24 60 10 30 24 61 30 69 9 12 8 13 -2 7 -12 -7
-12 -4 -1 15 7 13 12 27 11 32 -1 4 2 7 6 7 4 0 9 12 10 27 1 15 5 29 10 32 4
3 9 15 10 26 2 11 8 25 14 32 5 7 7 17 3 23 -3 5 -2 10 3 10 5 0 9 6 9 13 1
24 8 42 23 55 13 12 13 13 0 6 -13 -7 -13 -5 -2 9 8 9 11 21 7 27 -3 5 -3 10
2 10 12 0 35 79 27 92 -4 6 -3 9 2 5 5 -3 14 6 21 19 6 13 7 22 2 18 -5 -3 -9
0 -9 5 0 6 4 11 9 11 9 0 24 38 22 54 -1 5 6 18 16 29 12 14 13 18 3 12 -12
-7 -13 -6 -4 6 6 8 10 22 9 32 -2 9 1 15 6 11 5 -3 10 0 10 5 2 14 6 30 8 34
2 1 5 13 7 27 2 13 10 28 17 32 6 4 9 8 5 8 -4 0 6 36 21 80 16 43 26 81 23
85 -3 3 0 5 7 5 8 0 11 8 8 20 -3 11 -2 20 3 20 7 0 18 25 26 64 3 11 10 26
17 35 10 12 9 13 -2 7 -9 -6 -8 -1 3 16 9 14 13 28 9 31 -3 4 -1 7 6 7 8 0 11
7 7 15 -3 8 -2 15 3 15 4 0 8 6 9 13 2 26 8 46 19 58 6 8 9 22 8 32 -2 9 1 17
6 17 6 0 8 4 4 9 -3 5 -1 12 5 16 6 4 8 11 5 16 -4 5 -1 9 5 9 7 0 10 7 6 15
-3 8 -1 15 5 15 6 0 8 4 5 9 -4 5 0 12 6 14 10 4 10 6 0 6 -10 1 -9 5 3 17 9
10 14 25 12 35 -3 10 -1 19 4 21 5 2 11 13 13 25 3 12 10 31 16 43 6 11 8 25
5 30 -3 6 -1 10 5 10 7 0 10 7 6 15 -3 8 -1 15 4 15 6 0 10 12 10 26 0 14 4
23 8 20 4 -2 9 7 10 22 1 15 6 28 12 30 5 2 6 10 3 18 -3 8 0 14 5 14 6 0 9 9
7 20 -2 11 1 20 6 20 6 0 7 5 4 10 -3 6 -1 10 6 10 7 0 10 2 7 5 -3 3 5 35 18
72 13 36 20 71 17 76 -3 6 -1 7 4 4 9 -6 24 37 22 59 0 4 5 11 13 15 11 7 10
9 -1 9 -11 0 -10 4 4 13 10 8 15 19 11 25 -4 7 -2 12 4 12 6 0 8 5 5 10 -3 6
-2 10 3 10 6 0 8 8 5 18 -2 10 3 24 11 32 12 10 14 16 5 26 -8 9 -8 14 -1 14
6 0 16 17 23 38 6 20 17 40 23 44 7 5 7 8 -2 8 -10 0 -10 3 1 15 9 8 14 23 13
32 -2 10 1 21 6 24 5 3 10 12 11 20 2 8 6 20 10 27 5 6 6 12 2 12 -3 0 1 13 9
29 9 16 12 31 9 35 -4 3 -1 6 5 6 6 0 9 7 6 15 -4 8 -1 15 5 15 7 0 9 10 7 25
-3 14 -1 23 5 20 5 -4 9 -3 10 2 1 9 7 35 13 56 2 6 9 28 17 47 7 19 12 38 11
43 -1 4 2 7 6 7 8 0 10 7 14 50 1 11 6 20 10 20 4 0 8 8 8 18 0 10 5 23 12 30
7 7 9 12 5 12 -3 0 2 19 12 43 10 23 17 50 15 60 -1 9 2 15 7 11 5 -3 9 9 9
25 0 21 -5 31 -15 31 -8 0 -15 -4 -15 -10 0 -5 -6 -10 -14 -10 -8 0 -16 -3
-18 -7 -1 -5 -25 -24 -53 -43 -27 -19 -54 -38 -60 -42 -17 -14 -141 -102 -242
-172 -34 -24 -59 -47 -55 -51 4 -5 -1 -6 -10 -2 -9 3 -19 0 -22 -9 -3 -8 -12
-14 -20 -14 -7 0 -16 -7 -20 -15 -3 -8 -12 -15 -20 -15 -7 0 -17 -7 -20 -16
-4 -9 -9 -14 -12 -11 -4 3 -12 1 -19 -6 -7 -7 -23 -19 -35 -27 -13 -8 -31 -22
-40 -31 -9 -8 -24 -18 -33 -22 -9 -3 -17 -11 -17 -17 0 -6 -4 -8 -10 -5 -5 3
-10 1 -10 -4 0 -6 -5 -11 -11 -11 -7 0 -18 -8 -26 -17 -8 -11 -11 -12 -7 -3 7
13 5 13 -9 1 -9 -7 -14 -17 -11 -22 3 -5 0 -9 -7 -9 -7 0 -27 -11 -45 -25 -18
-14 -35 -25 -38 -25 -6 0 -36 -24 -61 -47 -7 -7 -15 -9 -19 -6 -3 4 -6 0 -6
-7 0 -7 -3 -11 -6 -8 -3 3 -15 -4 -28 -16 -31 -29 -66 -51 -77 -48 -5 1 -9 -5
-9 -15 0 -9 -3 -14 -6 -10 -3 3 -11 2 -18 -3 -59 -49 -76 -61 -76 -57 0 5 -34
-21 -70 -55 -10 -9 -21 -14 -24 -11 -3 4 -6 1 -6 -5 0 -7 -6 -12 -14 -12 -8 0
-22 -10 -30 -22 -9 -12 -16 -19 -16 -15 0 4 -6 3 -12 -2 -35 -28 -76 -59 -103
-76 -16 -10 -34 -24 -38 -32 -5 -7 -12 -11 -17 -8 -5 3 -15 -4 -23 -15 -7 -11
-17 -17 -20 -13 -4 3 -7 1 -7 -5 0 -7 -6 -12 -13 -12 -7 0 -20 -9 -30 -20 -10
-12 -22 -18 -27 -15 -5 3 -12 -4 -15 -16 -4 -11 -9 -18 -12 -15 -5 5 -20 -5
-79 -54 -7 -5 -14 -6 -17 -3 -3 3 -12 -4 -19 -16 -7 -12 -19 -21 -26 -21 -7 0
-15 -7 -18 -15 -4 -8 -10 -12 -15 -9 -5 3 -9 0 -9 -5 0 -6 -7 -11 -15 -11 -8
0 -15 -5 -15 -11 0 -5 -3 -8 -7 -6 -5 3 -14 -1 -21 -9 -7 -8 -9 -14 -5 -14 4
0 -10 -10 -32 -21 -22 -12 -42 -25 -45 -29 -3 -3 -20 -15 -37 -25 -18 -11 -33
-23 -33 -27 0 -4 -6 -8 -14 -8 -8 0 -21 -9 -29 -20 -8 -11 -17 -17 -20 -13 -4
3 -7 1 -7 -5 0 -7 -5 -12 -10 -12 -11 0 -28 -13 -60 -44 -11 -11 -20 -16 -20
-12 0 4 -6 2 -12 -3 -58 -48 -76 -60 -82 -54 -3 3 -6 2 -6 -4 0 -5 -22 -25
-50 -44 -27 -19 -50 -38 -50 -42 0 -5 -5 -5 -10 -2 -6 3 -13 -1 -16 -9 -3 -9
-20 -23 -38 -31 -17 -8 -44 -26 -59 -40 -15 -14 -27 -22 -27 -18 0 4 -5 1 -10
-7 -5 -8 -14 -15 -20 -15 -6 0 -15 -7 -20 -15 -5 -8 -10 -12 -10 -7 0 4 -9 -2
-20 -13 -11 -11 -27 -20 -36 -20 -8 0 -13 -4 -9 -9 3 -5 -4 -12 -15 -16 -11
-3 -20 -11 -20 -16 0 -5 -9 -9 -21 -9 -11 0 -18 -3 -16 -7 5 -9 -13 -28 -26
-30 -5 -1 -18 -9 -30 -17 -12 -9 -50 -36 -84 -60 -34 -24 -59 -47 -55 -51 4
-5 2 -5 -4 -2 -6 4 -23 -4 -37 -17 -14 -13 -28 -21 -31 -18 -3 3 -6 0 -6 -6 0
-6 -8 -13 -17 -16 -10 -3 -33 -19 -52 -35 -19 -17 -38 -28 -43 -25 -4 3 -8 1
-8 -4 0 -5 -31 -30 -70 -57 -38 -27 -70 -52 -70 -57 0 -5 -4 -6 -10 -3 -5 3
-10 2 -10 -3 0 -5 -12 -15 -27 -23 -16 -7 -38 -24 -50 -36 -15 -15 -23 -19
-26 -10 -3 7 -6 4 -6 -5 -1 -10 -8 -18 -16 -18 -8 0 -15 -5 -15 -11 0 -5 -4
-8 -9 -5 -5 3 -11 -1 -15 -9 -3 -8 -13 -15 -21 -15 -10 0 -13 -5 -9 -12 5 -7
2 -10 -7 -6 -15 5 -51 -26 -41 -37 4 -3 -2 -3 -12 1 -14 5 -17 4 -12 -4 4 -7
1 -12 -8 -12 -15 0 -38 -16 -72 -48 -8 -7 -14 -10 -14 -6 0 4 -7 -1 -15 -12
-8 -10 -15 -16 -15 -11 0 4 -9 -1 -20 -10 -57 -51 -80 -63 -80 -43 0 6 -7 10
-15 10 -8 0 -15 4 -15 8 0 5 -12 15 -27 23 -16 8 -36 22 -45 33 -10 10 -18 15
-18 10 0 -5 -5 -1 -11 9 -5 9 -15 17 -20 17 -6 0 -17 6 -24 13 -34 30 -43 35
-49 30 -3 -4 -6 -1 -6 5 0 7 -7 12 -16 12 -8 0 -12 5 -9 10 6 9 -8 14 -27 11
-5 0 -8 6 -8 14 0 8 -7 15 -15 15 -8 0 -24 9 -35 20 -11 11 -24 20 -30 20 -5
0 -10 4 -10 10 0 5 -15 17 -32 26 -18 9 -35 20 -38 23 -3 3 -22 17 -42 31 -21
14 -38 29 -38 33 0 5 -4 5 -10 2 -5 -3 -10 -1 -10 5 0 6 -4 8 -10 5 -5 -3 -10
2 -10 11 0 10 -3 15 -6 11 -3 -3 -11 -1 -18 4 -47 40 -60 49 -68 49 -15 0 -38
27 -30 35 4 5 2 5 -4 2 -10 -6 -22 2 -71 43 -7 6 -13 8 -13 5 0 -5 -29 17 -55
43 -8 6 -18 12 -24 12 -6 0 -11 5 -11 10 0 6 -7 10 -16 10 -8 0 -12 5 -9 10 3
6 1 10 -5 10 -12 0 -93 53 -124 82 -11 10 -26 18 -33 18 -7 0 -13 3 -13 8 0 4
-17 18 -38 32 -20 14 -40 29 -44 35 -4 5 -8 6 -8 2 0 -4 -11 4 -24 18 -14 15
-27 26 -30 26 -20 -3 -26 0 -21 8 3 5 -10 15 -30 22 -19 7 -32 15 -30 17 2 3
-24 24 -58 48 -34 23 -67 47 -74 53 -7 6 -15 11 -17 11 -6 0 -37 24 -61 48 -8
6 -17 12 -22 12 -7 0 -28 16 -80 60 -7 6 -13 8 -13 5 0 -3 -12 6 -27 20 -16
14 -36 28 -45 31 -10 3 -18 10 -18 15 0 5 -4 9 -10 9 -9 0 -36 19 -66 48 -8 7
-14 10 -14 6 0 -4 -9 3 -20 16 -11 13 -23 21 -26 17 -3 -3 -17 6 -30 20 -13
14 -24 23 -24 19 0 -4 -15 7 -32 23 -18 17 -39 31 -45 31 -7 0 -13 5 -13 10 0
6 -6 10 -13 10 -7 0 -19 9 -27 19 -7 11 -17 18 -21 16 -3 -3 -19 7 -33 20 -15
14 -31 25 -37 25 -5 0 -9 5 -9 10 0 6 -6 10 -14 10 -8 0 -22 10 -30 22 -9 12
-16 18 -16 13 0 -6 -7 -1 -15 9 -8 11 -15 16 -15 12 0 -4 -6 -1 -14 6 -7 7
-24 20 -36 28 -12 8 -29 21 -36 28 -8 7 -14 10 -14 6 0 -4 -7 1 -15 12 -8 10
-15 16 -15 12 0 -5 -8 0 -18 10 -10 9 -29 24 -41 32 -34 22 -122 86 -151 110
-14 11 -31 20 -37 20 -7 0 -13 4 -13 9 0 6 -18 20 -40 32 -22 13 -40 26 -40
31 0 4 -5 8 -10 8 -6 0 -20 9 -32 20 -12 11 -28 20 -35 20 -8 0 -11 5 -8 10 5
9 -1 12 -21 9 -3 0 -14 10 -25 22 -10 12 -19 19 -19 14 0 -4 -9 3 -20 16 -10
13 -19 20 -20 16 0 -4 -12 4 -27 18 -16 14 -36 28 -46 31 -9 3 -15 10 -11 15
3 5 1 8 -4 7 -5 -2 -31 13 -58 32 -27 19 -52 34 -56 32 -5 -1 -8 5 -8 14 0 8
-4 13 -9 9 -5 -3 -16 3 -23 13 -13 18 -46 37 -60 34 -5 -1 -8 4 -8 12 0 7 -13
19 -30 26 -16 7 -30 16 -30 20 0 4 -13 13 -30 20 -16 7 -27 16 -24 21 3 5 -2
9 -10 9 -9 0 -16 5 -16 12 0 6 -3 9 -6 5 -4 -3 -12 -1 -20 6 -33 30 -42 35
-48 30 -3 -4 -6 1 -6 11 0 9 -4 14 -10 11 -5 -3 -10 -2 -10 4 0 5 -10 13 -21
16 -12 4 -35 20 -52 36 -16 16 -34 29 -38 29 -15 0 -22 4 -44 25 -37 34 -65
55 -75 55 -6 0 -10 4 -10 8 0 5 -12 15 -27 23 -15 8 -35 21 -44 29 -53 46 -57
47 -76 25z"/>
</g>
</svg>
